<?xml version="1.0" encoding="UTF-8"?>
<svg width="80px" height="80px" viewBox="0 0 80 80" version="1.1" xmlns="http://www.w3.org/2000/svg" xmlns:xlink="http://www.w3.org/1999/xlink">
    <!-- Generator: Sketch 56 (81588) - https://sketch.com -->
    <title>google-qr-code</title>
    <desc>Created with Sketch.</desc>
    <g id="Backend-admin-" stroke="none" stroke-width="1" fill="none" fill-rule="evenodd">
        <g id="Register-popup---filled" transform="translate(-550.000000, -411.000000)" fill="#31314F">
            <g id="login-popup" transform="translate(372.000000, 124.000000)">
                <path d="M250.911392,360.625634 L244.571872,360.625634 L244.571872,363.820985 L241.401786,363.820985 L241.401786,367 L235.046196,367 L235.046196,363.820985 L238.232135,363.820985 L238.232135,354.267168 L229.64557,354.267168 L229.64557,357.446401 L231.876545,357.446401 L231.876545,367 L228.706893,367 L228.706893,363.820985 L225.537242,363.820985 L225.537242,367 L222.351303,367 L222.351303,363.820985 L219.181652,363.820985 L219.181652,367 L203.316456,367 L203.316456,357.446401 L206.486107,357.446401 L206.486107,363.820985 L209.655759,363.820985 L209.655759,354.267168 L216.011349,354.267168 L216.011349,351.810127 L213.443142,351.810127 L210.405063,351.810127 L210.405063,347.759494 L213.443142,347.759494 L216.481013,347.759494 L216.481013,351.087935 L219.181435,351.087935 L219.181435,338.355103 L216.011349,338.355103 L216.011349,335.17587 L212.841697,335.17587 L212.841697,338.355103 L216.011349,338.355103 L216.011349,344.713351 L212.841697,344.713351 L212.841697,341.534118 L209.655759,341.534118 L209.655759,332.56962 L207.367089,332.56962 L207.367089,335.318264 L204.12676,335.318264 L204.12676,338.500904 L204.12676,341.683544 L206.354326,341.683544 L206.354326,351.561297 L209.392405,351.561297 L209.392405,354.848101 L203.316456,354.848101 L203.316456,341.683544 L200.885987,341.683544 L197.64588,341.683544 L194.405108,341.683544 L194.405108,338.500904 L197.64588,338.500904 L200.885987,338.500904 L200.885987,335.318264 L197.64588,335.318264 L197.64588,332.135624 L200.885987,332.135624 L200.885987,328.952984 L197.64588,328.952984 L197.64588,332.135624 L194.405108,332.135624 L194.405108,328.952984 L194.405108,325.770344 L191.164557,325.770344 L191.164557,322.587703 L191.164557,319.405063 L194.405108,319.405063 L197.64588,319.405063 L200.658011,319.405063 L200.658011,316.113924 L197.493887,316.113924 L194.329114,316.113924 L191.164557,316.113924 L191.164557,312.822785 L194.329114,312.822785 L197.493887,312.822785 L200.658011,312.822785 L203.822785,312.822785 L203.822785,309.531646 L203.822785,306.240506 L206.579267,306.240506 L206.579267,303.033755 L209.842302,303.033755 L209.842302,299.827004 L206.579267,299.827004 L206.579267,296.620253 L203.316456,296.620253 L203.316456,293.413502 L206.579267,293.413502 L209.842302,293.413502 L209.842302,291.050633 L206.35443,291.050633 L206.35443,287 L210.405063,287 L210.405063,290.206751 L213.10556,290.206751 L216.368594,290.206751 L216.368594,287 L219.631852,287 L222.894664,287 L226.157698,287 L229.420956,287 L229.420956,290.206751 L232.683544,290.206751 L232.683544,293.413502 L229.420956,293.413502 L229.420956,296.620253 L226.202665,296.620253 L226.202665,299.296564 L229.443437,299.296564 L229.443437,302.479204 L232.683544,302.479204 L232.683544,305.661844 L232.683544,308.844485 L229.443437,308.844485 L229.443437,305.661844 L226.202665,305.661844 L226.202665,308.844485 L226.202665,312.027125 L222.962114,312.027125 L222.962114,315.209765 L222.962114,318.392405 L219.721785,318.392405 L219.721785,315.209765 L219.721785,312.027125 L216.481013,312.027125 L216.481013,308.844485 L216.481013,305.661844 L219.721785,305.661844 L219.721785,308.844485 L222.962114,308.844485 L222.962114,305.661844 L219.721785,305.661844 L219.721785,302.479204 L219.721785,299.296564 L222.962114,299.296564 L222.962114,296.113924 L226.157698,296.113924 L226.157698,293.413502 L222.894664,293.413502 L219.631852,293.413502 L219.631852,296.620253 L216.368594,296.620253 L216.368594,293.413502 L213.10556,293.413502 L213.10556,296.620253 L216.368594,296.620253 L216.368594,299.827004 L213.10556,299.827004 L213.10556,303.033755 L209.842302,303.033755 L209.842302,306.240506 L206.987125,306.240506 L206.987125,309.531646 L210.151682,309.531646 L210.151682,306.240506 L213.316456,306.240506 L213.316456,309.531646 L213.316456,312.822785 L216.481013,312.822785 L216.481013,316.113924 L216.481013,319.405063 L213.316456,319.405063 L210.405063,319.405063 L210.405063,322.443038 L206.35443,322.443038 L206.35443,319.405063 L203.822785,319.405063 L200.885987,319.405063 L200.885987,322.587703 L197.64588,322.587703 L197.64588,325.770344 L200.885987,325.770344 L200.885987,322.587703 L204.12676,322.587703 L207.367089,322.587703 L207.367089,325.770344 L204.12676,325.770344 L204.12676,328.952984 L204.12676,332.135624 L206.35443,332.135624 L206.35443,328.518987 L210.405063,328.518987 L210.405063,331.98052 L212.841697,331.98052 L212.841697,328.801286 L216.011349,328.801286 L216.011349,325.622053 L219.181435,325.622053 L219.181435,322.443038 L231.876545,322.443038 L231.876545,325.622053 L238.232135,325.622053 L238.232135,328.801286 L241.401786,328.801286 L241.401786,335.17587 L238.232135,335.17587 L238.232135,331.98052 L235.046196,331.98052 L235.046196,335.17587 L238.232135,335.17587 L238.232135,338.355103 L247.741741,338.355103 L247.741741,344.713351 L244.572089,344.713351 L244.572089,354.267168 L250.911392,354.267168 L250.911392,359.911392 L253.949471,359.911392 L253.949471,362.949367 L256.987342,362.949367 L256.987342,365.987342 L253.949471,365.987342 L250.911392,365.987342 L250.911392,362.949367 L250.911392,360.625634 Z M228.706676,353.835443 L228.706676,344.713351 L225.537025,344.713351 L225.537025,341.534118 L228.706676,341.534118 L228.706676,338.355103 L225.537025,338.355103 L225.537025,335.17587 L231.876545,335.17587 L231.876545,328.801286 L225.537025,328.801286 L225.537025,325.622053 L222.351086,325.622053 L222.351086,328.801286 L225.537025,328.801286 L225.537025,335.17587 L222.351086,335.17587 L222.351086,344.713351 L225.537025,344.713351 L225.537025,351.087935 L222.351086,351.087935 L222.351086,357.446401 L219.181435,357.446401 L219.181435,360.625417 L228.706893,360.625417 L228.706893,357.886076 L225.594937,357.886076 L225.594937,353.835443 L228.706676,353.835443 Z M187.72835,337.632911 L191.164557,337.632911 L191.164557,341.683544 L187.113924,341.683544 L187.113924,337.632911 L182.050633,337.632911 L182.050633,341.683544 L178,341.683544 L178,337.632911 L181.237313,337.632911 L181.237313,335.607595 L178,335.607595 L178,331.556962 L182.050633,331.556962 L182.050633,334.472333 L184.491037,334.472333 L184.491037,331.295732 L181.237313,331.295732 L181.237313,328.135154 L178,328.135154 L178,312.316456 L187.72835,312.316456 L187.72835,318.637612 L181.237313,318.637612 L181.237313,324.974575 L187.72835,324.974575 L187.72835,331.295732 L194.202532,331.295732 L194.202532,334.472333 L187.72835,334.472333 L187.72835,337.632911 Z M241.797468,321.43038 L241.797468,318.392405 L244.835339,318.392405 L247.873418,318.392405 L247.873418,315.607595 L247.873418,312.316456 L251.248714,312.316456 L251.248714,315.607595 L254.624473,315.607595 L258,315.607595 L258,318.898734 L258,322.189873 L254.624473,322.189873 L254.624473,325.481013 L251.248714,325.481013 L251.248714,322.189873 L251.248714,318.898734 L247.873418,318.898734 L247.873418,322.443038 L244.835339,322.443038 L242.810127,322.443038 L242.810127,325.481013 L238.759494,325.481013 L238.759494,322.443038 L235.468186,322.443038 L235.468186,319.067511 L232.176877,319.067511 L228.886245,319.067511 L225.594937,319.067511 L225.594937,315.691983 L228.886245,315.691983 L228.886245,312.316456 L232.176877,312.316456 L235.468186,312.316456 L238.759494,312.316456 L238.759494,315.691983 L238.759494,319.067511 L238.759494,321.43038 L241.797468,321.43038 Z M210.151682,318.392405 L210.151682,316.113924 L210.151682,312.822785 L206.987125,312.822785 L206.987125,316.113924 L206.987125,318.392405 L210.151682,318.392405 Z M248.548523,293.075949 L250.236287,293.075949 C251.168413,293.075949 251.924051,293.831587 251.924051,294.763713 L251.924051,301.514768 C251.924051,302.446894 251.168413,303.202532 250.236287,303.202532 L243.485232,303.202532 C242.553106,303.202532 241.797468,302.446894 241.797468,301.514768 L241.797468,294.763713 C241.797468,293.831587 242.553106,293.075949 243.485232,293.075949 L248.548523,293.075949 Z M190.827004,303.202532 L185.763713,303.202532 C184.831587,303.202532 184.075949,302.446894 184.075949,301.514768 L184.075949,294.763713 C184.075949,293.831587 184.831587,293.075949 185.763713,293.075949 L192.514768,293.075949 C193.446894,293.075949 194.202532,293.831587 194.202532,294.763713 L194.202532,301.514768 C194.202532,302.446894 193.446894,303.202532 192.514768,303.202532 L190.827004,303.202532 Z M190.827004,360.924051 L185.763713,360.924051 C184.831587,360.924051 184.075949,360.168413 184.075949,359.236287 L184.075949,352.485232 C184.075949,351.553106 184.831587,350.797468 185.763713,350.797468 L192.514768,350.797468 C193.446894,350.797468 194.202532,351.553106 194.202532,352.485232 L194.202532,359.236287 C194.202532,360.168413 193.446894,360.924051 192.514768,360.924051 L190.827004,360.924051 Z M254.817235,287 L256.40868,287 C257.287542,287 258,287.712458 258,288.59132 L258,307.687161 C258,308.566023 257.287542,309.278481 256.40868,309.278481 L237.312839,309.278481 C236.433977,309.278481 235.721519,308.566023 235.721519,307.687161 L235.721519,288.59132 C235.721519,287.712458 236.433977,287 237.312839,287 L254.817235,287 Z M254.817235,293.36528 L254.817235,291.77396 C254.817235,290.895098 254.104777,290.18264 253.225915,290.18264 L240.495604,290.18264 C239.616742,290.18264 238.904284,290.895098 238.904284,291.77396 L238.904284,304.504521 C238.904284,305.383383 239.616742,306.095841 240.495604,306.095841 L253.225915,306.095841 C254.104777,306.095841 254.817235,305.383383 254.817235,304.504521 L254.817235,293.36528 Z M178,291 C178,288.790861 179.790861,287 182,287 L196.278481,287 C198.48762,287 200.278481,288.790861 200.278481,291 L200.278481,305.278481 C200.278481,307.48762 198.48762,309.278481 196.278481,309.278481 L182,309.278481 C179.790861,309.278481 178,307.48762 178,305.278481 L178,291 Z M193.100195,306.084488 C195.309334,306.084488 197.100195,304.293627 197.100195,302.084488 L197.100195,294.178099 C197.100195,291.96896 195.309334,290.178099 193.100195,290.178099 L185.178068,290.178099 C182.968929,290.178099 181.178068,291.96896 181.178068,294.178099 L181.178068,302.084488 C181.178068,304.293627 182.968929,306.084488 185.178068,306.084488 L193.100195,306.084488 Z M212.43038,321.43038 L216.481013,321.43038 L216.481013,325.481013 L212.43038,325.481013 L212.43038,321.43038 Z M248.886076,325.481013 L248.886076,328.518987 L248.886076,331.556962 L244.835443,331.556962 L244.835443,328.518987 L244.835443,325.481013 L248.886076,325.481013 Z M251.248714,328.518987 L254.624473,328.518987 L258,328.518987 L258,331.810127 L258,335.101266 L258,338.392405 L258,341.683544 L254.624473,341.683544 L254.624473,338.392405 L254.624473,335.101266 L251.248714,335.101266 L247.873418,335.101266 L247.873418,331.810127 L251.248714,331.810127 L251.248714,328.518987 Z M178,348.721519 C178,346.51238 179.790861,344.721519 182,344.721519 L196.278481,344.721519 C198.48762,344.721519 200.278481,346.51238 200.278481,348.721519 L200.278481,363 C200.278481,365.209139 198.48762,367 196.278481,367 L182,367 C179.790861,367 178,365.209139 178,363 L178,348.721519 Z M193.100195,363.822119 C195.309334,363.822119 197.100195,362.031258 197.100195,359.822119 L197.100195,351.91573 C197.100195,349.706591 195.309334,347.91573 193.100195,347.91573 L185.178068,347.91573 C182.968929,347.91573 181.178068,349.706591 181.178068,351.91573 L181.178068,359.822119 C181.178068,362.031258 182.968929,363.822119 185.178068,363.822119 L193.100195,363.822119 Z M236.708861,343.708861 L236.759494,343.708861 C237.864063,343.708861 238.759494,344.604291 238.759494,345.708861 L238.759494,345.759494 C238.759494,346.864063 237.864063,347.759494 236.759494,347.759494 L236.708861,347.759494 C235.604291,347.759494 234.708861,346.864063 234.708861,345.759494 L234.708861,345.708861 C234.708861,344.604291 235.604291,343.708861 236.708861,343.708861 Z M251.248714,344.721519 L254.624473,344.721519 L258,344.721519 L258,348.097046 L258,351.472574 L258,354.848101 L254.624473,354.848101 L251.248714,354.848101 L251.248714,351.472574 L254.624473,351.472574 L254.624473,348.097046 L251.248714,348.097046 L247.873418,348.097046 L247.873418,344.721519 L251.248714,344.721519 Z M253.949367,356.873418 L258,356.873418 L258,360.924051 L253.949367,360.924051 L253.949367,356.873418 Z M216.011349,363.820985 L216.011349,360.625634 L212.841697,360.625634 L212.841697,363.820985 L216.011349,363.820985 Z M239.402003,351.088153 C240.506573,351.088153 241.402003,350.192722 241.402003,349.088153 L241.402003,343.534336 C241.402003,342.429767 240.506573,341.534336 239.402003,341.534336 L233.876545,341.534336 C232.771975,341.534336 231.876545,342.429767 231.876545,343.534336 L231.876545,349.088153 C231.876545,350.192722 232.771975,351.088153 233.876545,351.088153 L239.402003,351.088153 Z" id="google-qr-code"></path>
            </g>
        </g>
    </g>
</svg>