<?xml version="1.0" encoding="UTF-8"?>
<svg width="248px" height="272px" viewBox="0 0 248 272" version="1.1" xmlns="http://www.w3.org/2000/svg" xmlns:xlink="http://www.w3.org/1999/xlink">
    <!-- Generator: Sketch 56 (81588) - https://sketch.com -->
    <title>fp-logo-full</title>
    <desc>Created with Sketch.</desc>
    <g id="Backend-admin-" stroke="none" stroke-width="1" fill="none" fill-rule="evenodd">
        <g id="Desktop-backround" transform="translate(-466.000000, -284.000000)">
            <g id="fp-logo-full" transform="translate(466.000000, 284.000000)">
                <path d="M104.488599,266.217065 C104.944951,266.217065 105.347689,266.156997 105.696826,266.03686 C106.045962,265.916723 106.340112,265.748807 106.579285,265.533106 C106.818457,265.317405 106.998521,265.059387 107.119482,264.759044 C107.240442,264.458702 107.300922,264.128329 107.300922,263.767918 C107.300922,263.019791 107.068626,262.435497 106.604027,262.015017 C106.139428,261.594537 105.434292,261.3843 104.488599,261.3843 L102.591725,261.3843 L102.591725,266.217065 L104.488599,266.217065 Z M104.488599,260.131058 C105.236356,260.131058 105.886511,260.217064 106.439081,260.389078 C106.991652,260.561093 107.449371,260.805459 107.812253,261.122184 C108.175135,261.438909 108.445918,261.821158 108.62461,262.268942 C108.803302,262.716726 108.892647,263.216379 108.892647,263.767918 C108.892647,264.313996 108.796429,264.81365 108.603992,265.266894 C108.411554,265.720139 108.129775,266.110579 107.758646,266.438225 C107.387516,266.765872 106.928422,267.021159 106.38135,267.204096 C105.834278,267.387032 105.203367,267.478498 104.488599,267.478498 L102.591725,267.478498 L102.591725,271.868942 L101,271.868942 L101,260.131058 L104.488599,260.131058 Z M121.304803,267.511263 L119.449165,262.735836 C119.394183,262.593856 119.336452,262.42867 119.275972,262.240273 C119.215492,262.051876 119.157761,261.851196 119.102779,261.638225 C118.987317,262.080548 118.869107,262.449145 118.748146,262.744027 L116.892508,267.511263 L121.304803,267.511263 Z M124.636704,271.868942 L123.399612,271.868942 C123.256658,271.868942 123.141198,271.833447 123.053226,271.762457 C122.965255,271.691467 122.899277,271.601366 122.855291,271.49215 L121.750156,268.65802 L116.447155,268.65802 L115.34202,271.49215 C115.30903,271.590444 115.245802,271.677815 115.152332,271.754266 C115.058862,271.830717 114.943402,271.868942 114.805946,271.868942 L113.568854,271.868942 L118.294546,260.131058 L119.911013,260.131058 L124.636704,271.868942 Z M135.580844,267.191809 L135.580844,271.868942 L133.980872,271.868942 L133.980872,267.191809 L129.65105,260.131058 L131.053088,260.131058 C131.196041,260.131058 131.308753,260.165187 131.391226,260.233447 C131.473699,260.301707 131.545175,260.390443 131.605655,260.499659 L134.310763,265.062116 C134.409731,265.253243 134.50045,265.432081 134.582923,265.598635 C134.665396,265.765189 134.736872,265.933105 134.797353,266.102389 C134.857833,265.933105 134.92656,265.765189 135.003535,265.598635 C135.08051,265.432081 135.165731,265.253243 135.2592,265.062116 L137.956061,260.499659 C138.005545,260.406825 138.074271,260.322185 138.162243,260.245734 C138.250214,260.169283 138.362926,260.131058 138.500381,260.131058 L139.910666,260.131058 L135.580844,267.191809 Z M158.681475,260.131058 L158.681475,271.868942 L157.279437,271.868942 L157.279437,263.243686 C157.279437,263.12901 157.283561,263.006144 157.291808,262.875085 C157.300055,262.744027 157.309677,262.61024 157.320674,262.47372 L153.263012,269.812969 C153.136553,270.058704 152.944118,270.18157 152.685702,270.18157 L152.454779,270.18157 C152.196363,270.18157 152.003928,270.058704 151.877469,269.812969 L147.737335,262.440956 C147.770324,262.730377 147.786818,262.997951 147.786818,263.243686 L147.786818,271.868942 L146.384781,271.868942 L146.384781,260.131058 L147.564142,260.131058 C147.707095,260.131058 147.817058,260.14471 147.894033,260.172014 C147.971008,260.199318 148.045233,260.275767 148.116709,260.401365 L152.199113,267.625939 C152.265091,267.756997 152.329695,267.893515 152.392924,268.035495 C152.456153,268.177475 152.515258,268.322184 152.57024,268.469625 C152.625223,268.322184 152.682953,268.17611 152.743433,268.031399 C152.803914,267.886689 152.869891,267.748806 152.941368,267.617747 L156.949546,260.401365 C157.015525,260.275767 157.088375,260.199318 157.168099,260.172014 C157.247823,260.14471 157.35916,260.131058 157.502114,260.131058 L158.681475,260.131058 Z M173.938942,270.574744 L173.930695,271.868942 L166.648347,271.868942 L166.648347,260.131058 L173.930695,260.131058 L173.930695,261.425256 L168.248319,261.425256 L168.248319,265.324232 L172.850301,265.324232 L172.850301,266.569283 L168.248319,266.569283 L168.248319,270.574744 L173.938942,270.574744 Z M190.697415,260.131058 L190.697415,271.868942 L189.897429,271.868942 C189.77097,271.868942 189.665131,271.847099 189.579909,271.803413 C189.494686,271.759727 189.41084,271.686007 189.328366,271.582253 L182.491372,262.735836 C182.502368,262.872356 182.510615,263.006143 182.516113,263.137201 C182.521612,263.26826 182.524361,263.391126 182.524361,263.505802 L182.524361,271.868942 L181.122323,271.868942 L181.122323,260.131058 L181.947051,260.131058 C182.018528,260.131058 182.079007,260.135154 182.128491,260.143345 C182.177975,260.151536 182.22196,260.165188 182.260448,260.1843 C182.298935,260.203413 182.337422,260.230717 182.37591,260.266212 C182.414397,260.301707 182.455633,260.346757 182.499619,260.401365 L189.336614,269.23959 C189.325617,269.09761 189.315996,268.959728 189.307748,268.825939 C189.299501,268.69215 189.295377,268.565188 189.295377,268.445051 L189.295377,260.131058 L190.697415,260.131058 Z M206.655901,261.466212 L202.829163,261.466212 L202.829163,271.868942 L201.237438,271.868942 L201.237438,261.466212 L197.402453,261.466212 L197.402453,260.131058 L206.655901,260.131058 L206.655901,261.466212 Z M219.348465,261.96587 C219.298981,262.047782 219.245374,262.109215 219.187643,262.150171 C219.129912,262.191126 219.059811,262.211604 218.977337,262.211604 C218.883868,262.211604 218.773905,262.165188 218.647446,262.072355 C218.520987,261.979522 218.362916,261.877134 218.173228,261.765188 C217.983539,261.653242 217.755367,261.550854 217.488703,261.45802 C217.22204,261.365187 216.899025,261.318771 216.519648,261.318771 C216.162264,261.318771 215.847496,261.366552 215.575334,261.462116 C215.303173,261.55768 215.075,261.687371 214.89081,261.851195 C214.70662,262.015018 214.567792,262.207507 214.474323,262.428669 C214.380853,262.64983 214.334119,262.888736 214.334119,263.145392 C214.334119,263.473039 214.415216,263.744709 214.577414,263.96041 C214.739611,264.17611 214.954038,264.360409 215.220701,264.513311 C215.487365,264.666212 215.789762,264.798634 216.127902,264.91058 C216.466042,265.022526 216.812425,265.138566 217.167059,265.258703 C217.521694,265.37884 217.868076,265.513992 218.206217,265.664164 C218.544357,265.814335 218.846754,266.004094 219.113417,266.233447 C219.380081,266.4628 219.594508,266.744026 219.756705,267.077133 C219.918903,267.410241 220,267.819793 220,268.305802 C220,268.819115 219.91203,269.301022 219.736087,269.751536 C219.560144,270.20205 219.303107,270.593855 218.964966,270.926962 C218.626826,271.26007 218.211717,271.522183 217.719627,271.713311 C217.227537,271.904438 216.668102,272 216.041306,272 C215.271556,272 214.573293,271.862117 213.946497,271.586348 C213.3197,271.310579 212.783632,270.937886 212.338277,270.468259 L212.800125,269.714676 C212.84411,269.654607 212.897717,269.604096 212.960947,269.56314 C213.024176,269.522184 213.094277,269.501706 213.171252,269.501706 C213.242729,269.501706 213.323827,269.530375 213.414547,269.587713 C213.505268,269.645051 213.608358,269.717406 213.72382,269.804778 C213.839283,269.892151 213.971238,269.987713 214.11969,270.091468 C214.268141,270.195222 214.437209,270.290785 214.626897,270.378157 C214.816586,270.465529 215.032387,270.537884 215.274309,270.595222 C215.51623,270.65256 215.788388,270.681229 216.090789,270.681229 C216.470166,270.681229 216.808301,270.629352 217.105205,270.525597 C217.402108,270.421842 217.653648,270.275769 217.859831,270.087372 C218.066014,269.898975 218.224085,269.673721 218.334049,269.411604 C218.444014,269.149487 218.498995,268.857339 218.498995,268.535154 C218.498995,268.180203 218.417898,267.889421 218.2557,267.662799 C218.093503,267.436176 217.88045,267.246417 217.616536,267.093515 C217.352622,266.940614 217.050225,266.810922 216.709335,266.704437 C216.368446,266.597952 216.022064,266.488738 215.670178,266.376792 C215.318292,266.264846 214.97191,266.135154 214.631021,265.987713 C214.290132,265.840272 213.987734,265.649148 213.72382,265.414334 C213.459906,265.179521 213.246853,264.886009 213.084656,264.533788 C212.922459,264.181568 212.841361,263.746078 212.841361,263.227304 C212.841361,262.812285 212.922459,262.410923 213.084656,262.023208 C213.246853,261.635493 213.483273,261.291469 213.793922,260.991126 C214.104571,260.690783 214.486691,260.450513 214.940294,260.270307 C215.393897,260.090101 215.914844,260 216.503153,260 C217.162939,260 217.76361,260.103753 218.305184,260.311263 C218.846758,260.518772 219.323721,260.819111 219.736087,261.212287 L219.348465,261.96587 Z" id="PAYMENTS" fill="#4A4A4A"></path>
                <path d="M41.576394,233.177866 C41.576394,233.38867 41.4970819,233.573122 41.3384553,233.731225 C41.1798288,233.889329 40.9947672,233.968379 40.7832651,233.968379 L28.6087365,233.968379 L28.6087365,246.893281 C28.6087365,247.104085 28.5294244,247.288537 28.3707978,247.44664 C28.2121713,247.604744 28.0271097,247.683794 27.8156076,247.683794 L25.7931289,247.683794 C25.5816268,247.683794 25.3965652,247.604744 25.2379387,247.44664 C25.0793121,247.288537 25,247.104085 25,246.893281 L25,225.391304 C25,222.756245 25.7071995,220.872206 27.1216198,219.73913 C28.5360401,218.606055 30.64442,218.039526 33.4468228,218.039526 C34.0284536,218.039526 34.6827784,218.046113 35.4098168,218.059289 C36.1368553,218.072464 36.8572735,218.085639 37.5710931,218.098814 C38.2849126,218.11199 38.9590655,218.13834 39.5935718,218.177866 L41.1798296,218.27668 C41.3120184,218.30303 41.4111585,218.368906 41.4772529,218.474308 C41.5433473,218.579711 41.576394,218.698287 41.576394,218.83004 L41.576394,220.806324 C41.576394,221.122531 41.4309885,221.280632 41.1401731,221.280632 L33.4864792,221.280632 C32.4289687,221.280632 31.582973,221.353095 30.9484668,221.498024 C30.3139605,221.642952 29.8248692,221.880104 29.4811783,222.209486 C29.1374874,222.538869 28.9061604,222.967059 28.7871905,223.494071 C28.6682206,224.021083 28.6087365,224.653488 28.6087365,225.391304 L28.6087365,230.885375 L40.7832651,230.885375 C40.9947672,230.885375 41.1798288,230.964426 41.3384553,231.12253 C41.4970819,231.280633 41.576394,231.465085 41.576394,231.675889 L41.576394,233.177866 Z M68.7674965,235.549407 C68.7674965,237.736506 68.5031228,239.613958 67.9743676,241.181818 C67.4456123,242.749678 66.7053661,244.034251 65.7536067,245.035573 C64.8018472,246.036896 63.6716498,246.774701 62.3629806,247.249012 C61.0543114,247.723323 59.6200843,247.960474 58.0602563,247.960474 C56.5004284,247.960474 55.0662013,247.723323 53.757532,247.249012 C52.4488628,246.774701 51.3186654,246.036896 50.366906,245.035573 C49.4151466,244.034251 48.668291,242.749678 48.1263168,241.181818 C47.5843427,239.613958 47.3133597,237.736506 47.3133597,235.549407 L47.3133597,230.450593 C47.3133597,228.263494 47.5843427,226.386042 48.1263168,224.818182 C48.668291,223.250322 49.4151466,221.965749 50.366906,220.964427 C51.3186654,219.963104 52.4488628,219.225299 53.757532,218.750988 C55.0662013,218.276677 56.5004284,218.039526 58.0602563,218.039526 C59.6200843,218.039526 61.0543114,218.276677 62.3629806,218.750988 C63.6716498,219.225299 64.8018472,219.963104 65.7536067,220.964427 C66.7053661,221.965749 67.4456123,223.250322 67.9743676,224.818182 C68.5031228,226.386042 68.7674965,228.263494 68.7674965,230.450593 L68.7674965,235.549407 Z M65.1191035,230.450593 C65.1191035,228.790506 64.95387,227.38077 64.623398,226.221344 C64.2929259,225.061918 63.8236627,224.113311 63.2155942,223.375494 C62.6075256,222.637677 61.8672794,222.104086 60.9948333,221.774704 C60.1223871,221.445321 59.1442046,221.280632 58.0602563,221.280632 C56.9763081,221.280632 55.9981255,221.445321 55.1256794,221.774704 C54.2532332,222.104086 53.5063777,222.637677 52.8850903,223.375494 C52.2638028,224.113311 51.7879303,225.061918 51.4574582,226.221344 C51.1269862,227.38077 50.9617527,228.790506 50.9617527,230.450593 L50.9617527,235.549407 C50.9617527,237.209494 51.1269862,238.61923 51.4574582,239.778656 C51.7879303,240.938082 52.2571935,241.886689 52.865262,242.624506 C53.4733306,243.362323 54.2201861,243.895914 55.1058512,244.225296 C55.9915162,244.554679 56.9763081,244.719368 58.0602563,244.719368 C59.1442046,244.719368 60.1223871,244.554679 60.9948333,244.225296 C61.8672794,243.895914 62.6075256,243.362323 63.2155942,242.624506 C63.8236627,241.886689 64.2929259,240.938082 64.623398,239.778656 C64.95387,238.61923 65.1191035,237.209494 65.1191035,235.549407 L65.1191035,230.450593 Z M96.0379118,247.16996 C96.0379118,247.512518 95.866069,247.683794 95.522378,247.683794 L92.9843656,247.683794 C92.7464257,247.683794 92.5547548,247.664032 92.4093471,247.624506 C92.2639394,247.58498 92.1119246,247.433466 91.953298,247.16996 L84.8547943,235.391304 L83.8237268,235.391304 C83.1627827,235.391304 82.5348953,235.384717 81.9400456,235.371542 C81.345196,235.358366 80.5190283,235.325428 79.4615178,235.272727 L79.4615178,246.893281 C79.4615178,247.104085 79.3954244,247.288537 79.2632356,247.44664 C79.1310468,247.604744 78.9592039,247.683794 78.7477018,247.683794 L76.6062538,247.683794 C76.3947517,247.683794 76.2229088,247.604744 76.09072,247.44664 C75.9585312,247.288537 75.8924378,247.104085 75.8924378,246.893281 L75.8924378,219.225296 C75.8924378,218.93544 75.9585312,218.731226 76.09072,218.612648 C76.2229088,218.494071 76.4740638,218.408432 76.8441924,218.355731 C77.2671966,218.30303 77.7628972,218.256917 78.3313091,218.217391 C78.899721,218.177865 79.4945617,218.144928 80.1158492,218.118577 C80.7371366,218.092226 81.365024,218.072464 81.9995303,218.059289 C82.6340366,218.046113 83.242096,218.039526 83.8237268,218.039526 C85.3835547,218.039526 86.8442192,218.184452 88.2057639,218.474308 C89.5673087,218.764165 90.7437715,219.238468 91.7351875,219.897233 C92.7266036,220.555998 93.5065059,221.425555 94.0749178,222.505929 C94.6433297,223.586303 94.9275314,224.930163 94.9275314,226.537549 L94.9275314,226.814229 C94.9275314,227.920954 94.7755165,228.915674 94.4714823,229.798419 C94.167448,230.681164 93.7378408,231.451907 93.1826478,232.110672 C92.6274548,232.769437 91.9665206,233.322791 91.1998255,233.770751 C90.4331304,234.218711 89.6003534,234.561264 88.7014695,234.798419 L95.9189425,246.814229 C95.9982558,246.945982 96.0379118,247.064558 96.0379118,247.16996 Z M91.3584513,226.537549 C91.3584513,224.561255 90.7239545,223.191045 89.454942,222.426877 C88.1859294,221.66271 86.3088764,221.280632 83.8237268,221.280632 L82.7530028,221.280632 C82.3564363,221.280632 81.9532665,221.28722 81.5434812,221.300395 C81.1336959,221.313571 80.7437447,221.326746 80.3736161,221.339921 C80.0034874,221.353096 79.6994577,221.372859 79.4615178,221.399209 L79.4615178,232.229249 C80.333964,232.2556 81.166741,232.275362 81.9598739,232.288538 C82.7530067,232.301713 83.3742848,232.3083 83.8237268,232.3083 C85.0398638,232.3083 86.1171865,232.222662 87.055727,232.051383 C87.9942676,231.880105 88.7807792,231.583665 89.4152855,231.162055 C90.0497918,230.740446 90.5322737,230.180504 90.8627458,229.482213 C91.1932178,228.783923 91.3584513,227.894604 91.3584513,226.814229 L91.3584513,226.537549 Z M122.673824,227.486166 C122.673824,229.225305 122.363185,230.687741 121.741898,231.873518 C121.12061,233.059294 120.287833,234.014489 119.243542,234.73913 C118.19925,235.463772 116.98974,235.977601 115.614977,236.280632 C114.240213,236.583664 112.786158,236.735178 111.252768,236.735178 C110.724013,236.735178 110.115953,236.715415 109.428571,236.675889 C108.74119,236.636363 108.172786,236.603426 107.723344,236.577075 L107.723344,246.893281 C107.723344,247.104085 107.650642,247.288537 107.505234,247.44664 C107.359826,247.604744 107.181374,247.683794 106.969872,247.683794 L103.004227,247.683794 C102.792725,247.683794 102.607664,247.604744 102.449037,247.44664 C102.290411,247.288537 102.211098,247.104085 102.211098,246.893281 L102.211098,219.699605 C102.211098,219.304346 102.323457,219.021081 102.548178,218.849802 C102.772899,218.678524 103.083538,218.566535 103.480105,218.513834 C104.511177,218.35573 105.700859,218.230567 107.049185,218.13834 C108.397511,218.046113 109.798691,218 111.252768,218 C112.786158,218 114.240213,218.144926 115.614977,218.434783 C116.98974,218.724639 118.19925,219.225293 119.243542,219.936759 C120.287833,220.648225 121.12061,221.590244 121.741898,222.762846 C122.363185,223.935447 122.673824,225.391296 122.673824,227.130435 L122.673824,227.486166 Z M117.201235,227.130435 C117.201235,225.470347 116.705534,224.291176 115.714118,223.592885 C114.722702,222.894595 113.2356,222.545455 111.252768,222.545455 C111.041266,222.545455 110.770283,222.552042 110.439811,222.565217 C110.109339,222.578393 109.772262,222.591568 109.428571,222.604743 C109.084881,222.617918 108.761023,222.631093 108.456989,222.644269 C108.152954,222.657444 107.908409,222.677207 107.723344,222.703557 L107.723344,232.110672 C107.881971,232.110672 108.126516,232.117259 108.456989,232.130435 C108.787461,232.14361 109.131146,232.156785 109.488056,232.16996 C109.844966,232.183136 110.188652,232.196311 110.519124,232.209486 C110.849596,232.222661 111.094141,232.229249 111.252768,232.229249 C113.394227,232.229249 114.920985,231.833996 115.833087,231.043478 C116.74519,230.25296 117.201235,229.067202 117.201235,227.486166 L117.201235,227.130435 Z M146.176877,246.616601 C146.176877,246.906457 146.117393,247.104084 145.998423,247.209486 C145.879453,247.314889 145.674564,247.393939 145.383748,247.44664 C145.066495,247.499342 144.7162,247.558629 144.332852,247.624506 C143.949505,247.690382 143.473632,247.74967 142.90522,247.802372 C142.336809,247.855073 141.649437,247.901186 140.843085,247.940711 C140.036734,247.980237 139.038723,248 137.849024,248 C136.553573,248 135.350673,247.894599 134.240287,247.683794 C133.129901,247.47299 132.164937,247.071149 131.345367,246.478261 C130.525796,245.885373 129.878081,245.061929 129.402201,244.007905 C128.926321,242.953881 128.688385,241.583671 128.688385,239.897233 L128.688385,226.102767 C128.688385,224.416329 128.926321,223.046119 129.402201,221.992095 C129.878081,220.938071 130.525796,220.114627 131.345367,219.521739 C132.164937,218.928851 133.129901,218.52701 134.240287,218.316206 C135.350673,218.105401 136.553573,218 137.849024,218 C139.038723,218 140.036734,218.019763 140.843085,218.059289 C141.649437,218.098814 142.336809,218.144927 142.90522,218.197628 C143.473632,218.25033 143.949505,218.309618 144.332852,218.375494 C144.7162,218.441371 145.066495,218.500658 145.383748,218.55336 C145.674564,218.606061 145.879453,218.685111 145.998423,218.790514 C146.117393,218.895916 146.176877,219.093543 146.176877,219.383399 L146.176877,221.913043 C146.176877,222.123848 146.097565,222.3083 145.938938,222.466403 C145.780312,222.624507 145.59525,222.703557 145.383748,222.703557 L137.293833,222.703557 C136.130572,222.703557 135.317623,222.940709 134.854962,223.41502 C134.392301,223.88933 134.160974,224.785237 134.160974,226.102767 L134.160974,230.371542 L144.907871,230.371542 C145.119373,230.371542 145.304435,230.450592 145.463061,230.608696 C145.621688,230.766799 145.701,230.951251 145.701,231.162055 L145.701,234.007905 C145.701,234.21871 145.621688,234.403161 145.463061,234.561265 C145.304435,234.719368 145.119373,234.798419 144.907871,234.798419 L134.160974,234.798419 L134.160974,239.897233 C134.160974,241.214763 134.392301,242.11067 134.854962,242.58498 C135.317623,243.059291 136.130572,243.296443 137.293833,243.296443 L145.383748,243.296443 C145.59525,243.296443 145.780312,243.375493 145.938938,243.533597 C146.097565,243.6917 146.176877,243.876152 146.176877,244.086957 L146.176877,246.616601 Z M170.671341,246.616601 C170.671341,246.906457 170.611857,247.104084 170.492887,247.209486 C170.373917,247.314889 170.169028,247.393939 169.878212,247.44664 C169.560959,247.499342 169.210664,247.558629 168.827317,247.624506 C168.443969,247.690382 167.968097,247.74967 167.399685,247.802372 C166.831273,247.855073 166.143901,247.901186 165.337549,247.940711 C164.531198,247.980237 163.533187,248 162.343488,248 C161.048038,248 159.845137,247.894599 158.734751,247.683794 C157.624365,247.47299 156.659402,247.071149 155.839831,246.478261 C155.02026,245.885373 154.372545,245.061929 153.896665,244.007905 C153.420785,242.953881 153.182849,241.583671 153.182849,239.897233 L153.182849,226.102767 C153.182849,224.416329 153.420785,223.046119 153.896665,221.992095 C154.372545,220.938071 155.02026,220.114627 155.839831,219.521739 C156.659402,218.928851 157.624365,218.52701 158.734751,218.316206 C159.845137,218.105401 161.048038,218 162.343488,218 C163.533187,218 164.531198,218.019763 165.337549,218.059289 C166.143901,218.098814 166.831273,218.144927 167.399685,218.197628 C167.968097,218.25033 168.443969,218.309618 168.827317,218.375494 C169.210664,218.441371 169.560959,218.500658 169.878212,218.55336 C170.169028,218.606061 170.373917,218.685111 170.492887,218.790514 C170.611857,218.895916 170.671341,219.093543 170.671341,219.383399 L170.671341,221.913043 C170.671341,222.123848 170.592029,222.3083 170.433403,222.466403 C170.274776,222.624507 170.089715,222.703557 169.878212,222.703557 L161.788298,222.703557 C160.625036,222.703557 159.812087,222.940709 159.349426,223.41502 C158.886765,223.88933 158.655439,224.785237 158.655439,226.102767 L158.655439,230.371542 L169.402335,230.371542 C169.613837,230.371542 169.798899,230.450592 169.957525,230.608696 C170.116152,230.766799 170.195464,230.951251 170.195464,231.162055 L170.195464,234.007905 C170.195464,234.21871 170.116152,234.403161 169.957525,234.561265 C169.798899,234.719368 169.613837,234.798419 169.402335,234.798419 L158.655439,234.798419 L158.655439,239.897233 C158.655439,241.214763 158.886765,242.11067 159.349426,242.58498 C159.812087,243.059291 160.625036,243.296443 161.788298,243.296443 L169.878212,243.296443 C170.089715,243.296443 170.274776,243.375493 170.433403,243.533597 C170.592029,243.6917 170.671341,243.876152 170.671341,244.086957 L170.671341,246.616601 Z M198.140039,227.486166 C198.140039,229.225305 197.8294,230.687741 197.208112,231.873518 C196.586825,233.059294 195.754048,234.014489 194.709756,234.73913 C193.665465,235.463772 192.455955,235.977601 191.081192,236.280632 C189.706428,236.583664 188.252373,236.735178 186.718983,236.735178 C186.190228,236.735178 185.582168,236.715415 184.894786,236.675889 C184.207404,236.636363 183.639001,236.603426 183.189559,236.577075 L183.189559,246.893281 C183.189559,247.104085 183.116856,247.288537 182.971449,247.44664 C182.826041,247.604744 182.647589,247.683794 182.436087,247.683794 L178.470442,247.683794 C178.25894,247.683794 178.073879,247.604744 177.915252,247.44664 C177.756625,247.288537 177.677313,247.104085 177.677313,246.893281 L177.677313,219.699605 C177.677313,219.304346 177.789672,219.021081 178.014393,218.849802 C178.239114,218.678524 178.549753,218.566535 178.94632,218.513834 C179.977392,218.35573 181.167074,218.230567 182.5154,218.13834 C183.863725,218.046113 185.264906,218 186.718983,218 C188.252373,218 189.706428,218.144926 191.081192,218.434783 C192.455955,218.724639 193.665465,219.225293 194.709756,219.936759 C195.754048,220.648225 196.586825,221.590244 197.208112,222.762846 C197.8294,223.935447 198.140039,225.391296 198.140039,227.130435 L198.140039,227.486166 Z M192.66745,227.130435 C192.66745,225.470347 192.171749,224.291176 191.180333,223.592885 C190.188917,222.894595 188.701815,222.545455 186.718983,222.545455 C186.507481,222.545455 186.236498,222.552042 185.906026,222.565217 C185.575554,222.578393 185.238477,222.591568 184.894786,222.604743 C184.551095,222.617918 184.227238,222.631093 183.923203,222.644269 C183.619169,222.657444 183.374623,222.677207 183.189559,222.703557 L183.189559,232.110672 C183.348186,232.110672 183.592731,232.117259 183.923203,232.130435 C184.253675,232.14361 184.597361,232.156785 184.954271,232.16996 C185.311181,232.183136 185.654866,232.196311 185.985339,232.209486 C186.315811,232.222661 186.560356,232.229249 186.718983,232.229249 C188.860441,232.229249 190.387199,231.833996 191.299302,231.043478 C192.211405,230.25296 192.66745,229.067202 192.66745,227.486166 L192.66745,227.130435 Z M222,239.73913 C222,240.740453 221.828157,241.735173 221.484466,242.72332 C221.140775,243.711467 220.565763,244.594199 219.759411,245.371542 C218.953059,246.148884 217.882346,246.781289 216.547239,247.268775 C215.212132,247.756261 213.553187,248 211.570355,248 C210.063403,248 208.754753,247.934125 207.644367,247.802372 C206.533981,247.670619 205.502924,247.499342 204.551164,247.288538 C204.339662,247.235836 204.16121,247.143611 204.015802,247.011858 C203.870394,246.880105 203.797692,246.708828 203.797692,246.498024 L203.797692,243.652174 C203.797692,243.441369 203.870394,243.263505 204.015802,243.118577 C204.16121,242.973649 204.339662,242.901186 204.551164,242.901186 L204.630477,242.901186 C205.027044,242.953887 205.549181,243 206.196907,243.039526 C206.844632,243.079052 207.512175,243.118577 208.199557,243.158103 C208.886939,243.197629 209.541264,243.230566 210.162551,243.256917 C210.783839,243.283268 211.279539,243.296443 211.649668,243.296443 C213.420998,243.296443 214.630507,242.993415 215.278233,242.387352 C215.925958,241.781288 216.249815,240.898557 216.249815,239.73913 C216.249815,239.343872 216.196941,238.994731 216.09119,238.6917 C215.985439,238.388668 215.800377,238.092228 215.535999,237.802372 C215.271622,237.512515 214.927936,237.216075 214.504932,236.913043 C214.081928,236.610012 213.539962,236.260872 212.879018,235.865613 L207.644367,232.743083 C206.719045,232.189721 205.958971,231.636366 205.364121,231.083004 C204.769272,230.529642 204.293399,229.956525 203.936489,229.363636 C203.57958,228.770748 203.328425,228.151518 203.183017,227.505929 C203.037609,226.860339 202.964906,226.194997 202.964906,225.509881 C202.964906,224.429507 203.136749,223.4282 203.48044,222.505929 C203.824131,221.583658 204.385925,220.786565 205.165839,220.114625 C205.945753,219.442684 206.963592,218.922268 208.219385,218.55336 C209.475179,218.184451 211.028374,218 212.879018,218 C213.539962,218 214.240552,218.019763 214.980809,218.059289 C215.721067,218.098814 216.448094,218.158102 217.161914,218.237154 C217.875733,218.316206 218.523449,218.395257 219.10508,218.474308 C219.68671,218.55336 220.149364,218.632411 220.493055,218.711462 C220.704557,218.764164 220.8764,218.849802 221.008589,218.968379 C221.140778,219.086957 221.206871,219.251646 221.206871,219.462451 L221.206871,222.387352 C221.206871,222.598157 221.147387,222.769433 221.028417,222.901186 C220.909447,223.032939 220.744214,223.098814 220.532712,223.098814 L220.453399,223.098814 C219.131511,222.967061 217.822861,222.868248 216.527411,222.802372 C215.23196,222.736495 213.936529,222.703557 212.641079,222.703557 C211.160564,222.703557 210.09646,222.947297 209.448735,223.434783 C208.80101,223.922269 208.477152,224.613961 208.477152,225.509881 C208.477152,225.826089 208.523418,226.122528 208.61595,226.399209 C208.708482,226.675891 208.880325,226.952568 209.131484,227.229249 C209.382642,227.50593 209.719719,227.789195 210.142723,228.079051 C210.565727,228.368908 211.094474,228.68511 211.728981,229.027668 L216.487754,231.675889 C217.571702,232.281953 218.470573,232.894595 219.184392,233.513834 C219.898212,234.133073 220.460006,234.772065 220.869791,235.43083 C221.279577,236.089595 221.570388,236.7747 221.742233,237.486166 C221.914079,238.197632 222,238.948613 222,239.73913 Z" id="FORPEEPS" fill="#4A4A4A"></path>
                <g id="icon">
                    <path d="M69.0062987,122.628571 C55.8152798,126.983809 46.2933333,139.4345 46.2933333,154.114286 L46.2933333,202.171429 L0,202.171429 L0,155.771429 C0,137.467134 14.8044509,122.628571 33.0666667,122.628571 L69.0062987,122.628571 Z" id="body-light" fill="#EAEFF4"></path>
                    <path d="M95.9245846,3.51016498 C76.2638734,13.7075682 62.8266667,34.2809545 62.8266667,58 C62.8266667,81.7190455 76.2638734,102.292432 95.9245846,112.489835 C89.7276072,114.760784 83.0348548,116 76.0533333,116 C44.0944558,116 18.1866667,90.0325155 18.1866667,58 C18.1866667,25.9674845 44.0944558,0 76.0533333,0 C83.0348548,0 89.7276072,1.23921596 95.9245846,3.51016498 Z" id="head-light" fill="#EAEFF4"></path>
                    <path d="M152.76472,112.126704 C172.049526,101.80933 185.173333,81.4408111 185.173333,58 C185.173333,34.5591889 172.049526,14.1906701 152.76472,3.87329611 C159.229482,1.37163637 166.254928,0 173.6,0 C205.558878,0 231.466667,25.9674845 231.466667,58 C231.466667,90.0325155 205.558878,116 173.6,116 C166.254928,116 159.229482,114.628364 152.76472,112.126704 Z" id="head-dark" fill="#C4D1E4"></path>
                    <ellipse id="head-medium" fill="#D7E2EC" cx="124" cy="58" rx="57.8666667" ry="58"></ellipse>
                    <path d="M178.993701,122.628571 L214.933333,122.628571 C233.195549,122.628571 248,137.467134 248,155.771429 L248,202.171429 L201.706667,202.171429 L201.706667,154.114286 C201.706667,139.4345 192.18472,126.983809 178.993701,122.628571 Z" id="body-dark" fill="#C4D1E4"></path>
                    <path d="M82.6666667,122.628571 L165.333333,122.628571 C183.595549,122.628571 198.4,137.467134 198.4,155.771429 L198.4,202.171429 L49.6,202.171429 L49.6,155.771429 C49.6,137.467134 64.4044509,122.628571 82.6666667,122.628571 Z" id="body-medium" fill="#D7E2EC"></path>
                </g>
            </g>
        </g>
    </g>
</svg>