<?xml version="1.0" encoding="UTF-8"?>
<svg width="35px" height="36px" viewBox="0 0 35 36" version="1.1" xmlns="http://www.w3.org/2000/svg" xmlns:xlink="http://www.w3.org/1999/xlink">
    <!-- Generator: Sketch 56 (81588) - https://sketch.com -->
    <title>logo</title>
    <desc>Created with Sketch.</desc>
    <g id="Symbols" stroke="none" stroke-width="1" fill="none" fill-rule="evenodd">
        <g id="Sidemenu---ecommerce" transform="translate(-23.000000, -22.000000)">
            <g id="logo" transform="translate(23.000000, 22.000000)">
                <path d="M5.90706667,32.9448 C5.90706667,32.9746668 5.89586678,33.0007999 5.87346667,33.0232 C5.85106655,33.0456001 5.82493348,33.0568 5.79506667,33.0568 L4.07586667,33.0568 L4.07586667,34.888 C4.07586667,34.9178668 4.06466678,34.9439999 4.04226667,34.9664 C4.01986655,34.9888001 3.99373348,35 3.96386667,35 L3.67826667,35 C3.64839985,35 3.62226678,34.9888001 3.59986667,34.9664 C3.57746655,34.9439999 3.56626667,34.9178668 3.56626667,34.888 L3.56626667,31.8416 C3.56626667,31.4682648 3.66613233,31.2013341 3.86586667,31.0408 C4.065601,30.8802659 4.36333135,30.8 4.75906667,30.8 C4.84120041,30.8 4.93359949,30.8009333 5.03626667,30.8028 C5.13893385,30.8046667 5.24066616,30.8065333 5.34146667,30.8084 C5.44226717,30.8102667 5.53746622,30.814 5.62706667,30.8196 L5.85106667,30.8336 C5.86973343,30.8373334 5.88373329,30.8466666 5.89306667,30.8616 C5.90240005,30.8765334 5.90706667,30.8933332 5.90706667,30.912 L5.90706667,31.192 C5.90706667,31.2368002 5.88653354,31.2592 5.84546667,31.2592 L4.76466667,31.2592 C4.61533259,31.2592 4.49586711,31.2694666 4.40626667,31.29 C4.31666622,31.3105334 4.24760024,31.3441331 4.19906667,31.3908 C4.15053309,31.4374669 4.11786675,31.498133 4.10106667,31.5728 C4.08426658,31.647467 4.07586667,31.7370661 4.07586667,31.8416 L4.07586667,32.62 L5.79506667,32.62 C5.82493348,32.62 5.85106655,32.6311999 5.87346667,32.6536 C5.89586678,32.6760001 5.90706667,32.7021332 5.90706667,32.732 L5.90706667,32.9448 Z M9.7468,33.2808 C9.7468,33.5906682 9.70946704,33.8566656 9.6348,34.0788 C9.56013296,34.3009344 9.45560067,34.4829326 9.3212,34.6248 C9.18679933,34.7666674 9.02720092,34.8711997 8.8424,34.9384 C8.65759908,35.0056003 8.45506777,35.0392 8.2348,35.0392 C8.01453223,35.0392 7.81200092,35.0056003 7.6272,34.9384 C7.44239908,34.8711997 7.28280067,34.7666674 7.1484,34.6248 C7.01399933,34.4829326 6.90853372,34.3009344 6.832,34.0788 C6.75546628,33.8566656 6.7172,33.5906682 6.7172,33.2808 L6.7172,32.5584 C6.7172,32.2485318 6.75546628,31.9825344 6.832,31.7604 C6.90853372,31.5382656 7.01399933,31.3562674 7.1484,31.2144 C7.28280067,31.0725326 7.44239908,30.9680003 7.6272,30.9008 C7.81200092,30.8335997 8.01453223,30.8 8.2348,30.8 C8.45506777,30.8 8.65759908,30.8335997 8.8424,30.9008 C9.02720092,30.9680003 9.18679933,31.0725326 9.3212,31.2144 C9.45560067,31.3562674 9.56013296,31.5382656 9.6348,31.7604 C9.70946704,31.9825344 9.7468,32.2485318 9.7468,32.5584 L9.7468,33.2808 Z M9.2316,32.5584 C9.2316,32.3231988 9.2082669,32.1234675 9.1616,31.9592 C9.1149331,31.7949325 9.0486671,31.6605339 8.9628,31.556 C8.8769329,31.4514661 8.77240062,31.3758669 8.6492,31.3292 C8.52599938,31.2825331 8.38786743,31.2592 8.2348,31.2592 C8.08173257,31.2592 7.94360062,31.2825331 7.8204,31.3292 C7.69719938,31.3758669 7.59173377,31.4514661 7.504,31.556 C7.41626623,31.6605339 7.3490669,31.7949325 7.3024,31.9592 C7.2557331,32.1234675 7.2324,32.3231988 7.2324,32.5584 L7.2324,33.2808 C7.2324,33.5160012 7.2557331,33.7157325 7.3024,33.88 C7.3490669,34.0442675 7.4153329,34.1786661 7.5012,34.2832 C7.5870671,34.3877339 7.69253271,34.4633331 7.8176,34.51 C7.94266729,34.5566669 8.08173257,34.58 8.2348,34.58 C8.38786743,34.58 8.52599938,34.5566669 8.6492,34.51 C8.77240062,34.4633331 8.8769329,34.3877339 8.9628,34.2832 C9.0486671,34.1786661 9.1149331,34.0442675 9.1616,33.88 C9.2082669,33.7157325 9.2316,33.5160012 9.2316,33.2808 L9.2316,32.5584 Z M13.5977333,34.9272 C13.5977333,34.9757336 13.5734669,35 13.5249333,35 L13.1665333,35 C13.1329332,35 13.1058668,34.9972 13.0853333,34.9916 C13.0647999,34.986 13.0433334,34.9645335 13.0209333,34.9272 L12.0185333,33.2584 L11.8729333,33.2584 C11.7795995,33.2584 11.6909338,33.2574667 11.6069333,33.2556 C11.5229329,33.2537333 11.4062674,33.2490667 11.2569333,33.2416 L11.2569333,34.888 C11.2569333,34.9178668 11.2476001,34.9439999 11.2289333,34.9664 C11.2102666,34.9888001 11.1860001,35 11.1561333,35 L10.8537333,35 C10.8238665,35 10.7996001,34.9888001 10.7809333,34.9664 C10.7622666,34.9439999 10.7529333,34.9178668 10.7529333,34.888 L10.7529333,30.968 C10.7529333,30.9269331 10.7622666,30.8980001 10.7809333,30.8812 C10.7996001,30.8643999 10.8350664,30.8522667 10.8873333,30.8448 C10.947067,30.8373333 11.0170663,30.8308 11.0973333,30.8252 C11.1776004,30.8196 11.2615996,30.8149334 11.3493333,30.8112 C11.4370671,30.8074666 11.5257329,30.8046667 11.6153333,30.8028 C11.7049338,30.8009333 11.7907996,30.8 11.8729333,30.8 C12.0932011,30.8 12.2994657,30.8205331 12.4917333,30.8616 C12.684001,30.9026669 12.8501326,30.9698662 12.9901333,31.0632 C13.130134,31.1565338 13.2402663,31.2797326 13.3205333,31.4328 C13.4008004,31.5858674 13.4409333,31.7762655 13.4409333,32.004 L13.4409333,32.0432 C13.4409333,32.2000008 13.4194669,32.3409327 13.3765333,32.466 C13.3335998,32.5910673 13.2729337,32.7002662 13.1945333,32.7936 C13.1161329,32.8869338 13.0228005,32.965333 12.9145333,33.0288 C12.8062661,33.092267 12.6886673,33.1407998 12.5617333,33.1744 L13.5809333,34.8768 C13.5921334,34.8954668 13.5977333,34.9122666 13.5977333,34.9272 Z M12.9369333,32.004 C12.9369333,31.7239986 12.8473342,31.5298672 12.6681333,31.4216 C12.4889324,31.3133328 12.2238684,31.2592 11.8729333,31.2592 L11.7217333,31.2592 C11.6657331,31.2592 11.6088003,31.2601333 11.5509333,31.262 C11.4930664,31.2638667 11.4380003,31.2657333 11.3857333,31.2676 C11.3334664,31.2694667 11.2905335,31.2722666 11.2569333,31.276 L11.2569333,32.8104 C11.3801339,32.8141334 11.4977328,32.8169333 11.6097333,32.8188 C11.7217339,32.8206667 11.8094663,32.8216 11.8729333,32.8216 C12.0446675,32.8216 12.1967993,32.8094668 12.3293333,32.7852 C12.4618673,32.7609332 12.5729329,32.7189336 12.6625333,32.6592 C12.7521338,32.5994664 12.8202664,32.5201338 12.8669333,32.4212 C12.9136002,32.3222662 12.9369333,32.1962674 12.9369333,32.0432 L12.9369333,32.004 Z M17.3590667,32.1384 C17.3590667,32.3848012 17.3152004,32.5919992 17.2274667,32.76 C17.1397329,32.9280008 17.0221341,33.0633328 16.8746667,33.166 C16.7271993,33.2686672 16.556401,33.3414665 16.3622667,33.3844 C16.1681324,33.4273335 15.9628011,33.4488 15.7462667,33.4488 C15.6715996,33.4488 15.5857338,33.446 15.4886667,33.4404 C15.3915995,33.4348 15.3113337,33.4301334 15.2478667,33.4264 L15.2478667,34.888 C15.2478667,34.9178668 15.2376001,34.9439999 15.2170667,34.9664 C15.1965332,34.9888001 15.1713335,35 15.1414667,35 L14.5814667,35 C14.5515999,35 14.5254668,34.9888001 14.5030667,34.9664 C14.4806666,34.9439999 14.4694667,34.9178668 14.4694667,34.888 L14.4694667,31.0352 C14.4694667,30.9791997 14.4853332,30.9390668 14.5170667,30.9148 C14.5488002,30.8905332 14.5926664,30.8746667 14.6486667,30.8672 C14.7942674,30.8447999 14.9622657,30.8270667 15.1526667,30.814 C15.3430676,30.8009333 15.5409323,30.7944 15.7462667,30.7944 C15.9628011,30.7944 16.1681324,30.8149331 16.3622667,30.856 C16.556401,30.8970669 16.7271993,30.9679995 16.8746667,31.0688 C17.0221341,31.1696005 17.1397329,31.3030658 17.2274667,31.4692 C17.3152004,31.6353342 17.3590667,31.8415988 17.3590667,32.088 L17.3590667,32.1384 Z M16.5862667,32.088 C16.5862667,31.8527988 16.5162674,31.6857338 16.3762667,31.5868 C16.236266,31.4878662 16.0262681,31.4384 15.7462667,31.4384 C15.7163999,31.4384 15.6781336,31.4393333 15.6314667,31.4412 C15.5847998,31.4430667 15.5372002,31.4449333 15.4886667,31.4468 C15.4401331,31.4486667 15.3944002,31.4505333 15.3514667,31.4524 C15.3085331,31.4542667 15.2740001,31.4570666 15.2478667,31.4608 L15.2478667,32.7936 C15.2702668,32.7936 15.3047998,32.7945333 15.3514667,32.7964 C15.3981336,32.7982667 15.4466664,32.8001333 15.4970667,32.802 C15.5474669,32.8038667 15.5959998,32.8057333 15.6426667,32.8076 C15.6893336,32.8094667 15.7238666,32.8104 15.7462667,32.8104 C16.0486682,32.8104 16.264266,32.7544006 16.3930667,32.6424 C16.5218673,32.5303994 16.5862667,32.3624011 16.5862667,32.1384 L16.5862667,32.088 Z M20.678,34.8488 C20.678,34.8898669 20.6696001,34.9178666 20.6528,34.9328 C20.6359999,34.9477334 20.6070669,34.9589333 20.566,34.9664 C20.5211998,34.9738667 20.4717336,34.9822666 20.4176,34.9916 C20.3634664,35.0009334 20.2962671,35.0093333 20.216,35.0168 C20.1357329,35.0242667 20.0386672,35.0308 19.9248,35.0364 C19.8109328,35.042 19.6700008,35.0448 19.502,35.0448 C19.3190658,35.0448 19.1492008,35.0298668 18.9924,35 C18.8355992,34.9701332 18.6993339,34.9132004 18.5836,34.8292 C18.4678661,34.7451996 18.3764003,34.6285341 18.3092,34.4792 C18.2419997,34.3298659 18.2084,34.1357345 18.2084,33.8968 L18.2084,31.9424 C18.2084,31.7034655 18.2419997,31.5093341 18.3092,31.36 C18.3764003,31.2106659 18.4678661,31.0940004 18.5836,31.01 C18.6993339,30.9259996 18.8355992,30.8690668 18.9924,30.8392 C19.1492008,30.8093332 19.3190658,30.7944 19.502,30.7944 C19.6700008,30.7944 19.8109328,30.7972 19.9248,30.8028 C20.0386672,30.8084 20.1357329,30.8149333 20.216,30.8224 C20.2962671,30.8298667 20.3634664,30.8382666 20.4176,30.8476 C20.4717336,30.8569334 20.5211998,30.8653333 20.566,30.8728 C20.6070669,30.8802667 20.6359999,30.8914666 20.6528,30.9064 C20.6696001,30.9213334 20.678,30.9493331 20.678,30.9904 L20.678,31.3488 C20.678,31.3786668 20.6668001,31.4047999 20.6444,31.4272 C20.6219999,31.4496001 20.5958668,31.4608 20.566,31.4608 L19.4236,31.4608 C19.2593325,31.4608 19.1445337,31.4943997 19.0792,31.5616 C19.0138663,31.6288003 18.9812,31.7557324 18.9812,31.9424 L18.9812,32.5472 L20.4988,32.5472 C20.5286668,32.5472 20.5547999,32.5583999 20.5772,32.5808 C20.5996001,32.6032001 20.6108,32.6293332 20.6108,32.6592 L20.6108,33.0624 C20.6108,33.0922668 20.5996001,33.1183999 20.5772,33.1408 C20.5547999,33.1632001 20.5286668,33.1744 20.4988,33.1744 L18.9812,33.1744 L18.9812,33.8968 C18.9812,34.0834676 19.0138663,34.2103997 19.0792,34.2776 C19.1445337,34.3448003 19.2593325,34.3784 19.4236,34.3784 L20.566,34.3784 C20.5958668,34.3784 20.6219999,34.3895999 20.6444,34.412 C20.6668001,34.4344001 20.678,34.4605332 20.678,34.4904 L20.678,34.8488 Z M24.1369333,34.8488 C24.1369333,34.8898669 24.1285334,34.9178666 24.1117333,34.9328 C24.0949332,34.9477334 24.0660002,34.9589333 24.0249333,34.9664 C23.9801331,34.9738667 23.9306669,34.9822666 23.8765333,34.9916 C23.8223997,35.0009334 23.7552004,35.0093333 23.6749333,35.0168 C23.5946663,35.0242667 23.4976006,35.0308 23.3837333,35.0364 C23.2698661,35.042 23.1289342,35.0448 22.9609333,35.0448 C22.7779991,35.0448 22.6081341,35.0298668 22.4513333,35 C22.2945325,34.9701332 22.1582672,34.9132004 22.0425333,34.8292 C21.9267994,34.7451996 21.8353337,34.6285341 21.7681333,34.4792 C21.700933,34.3298659 21.6673333,34.1357345 21.6673333,33.8968 L21.6673333,31.9424 C21.6673333,31.7034655 21.700933,31.5093341 21.7681333,31.36 C21.8353337,31.2106659 21.9267994,31.0940004 22.0425333,31.01 C22.1582672,30.9259996 22.2945325,30.8690668 22.4513333,30.8392 C22.6081341,30.8093332 22.7779991,30.7944 22.9609333,30.7944 C23.1289342,30.7944 23.2698661,30.7972 23.3837333,30.8028 C23.4976006,30.8084 23.5946663,30.8149333 23.6749333,30.8224 C23.7552004,30.8298667 23.8223997,30.8382666 23.8765333,30.8476 C23.9306669,30.8569334 23.9801331,30.8653333 24.0249333,30.8728 C24.0660002,30.8802667 24.0949332,30.8914666 24.1117333,30.9064 C24.1285334,30.9213334 24.1369333,30.9493331 24.1369333,30.9904 L24.1369333,31.3488 C24.1369333,31.3786668 24.1257334,31.4047999 24.1033333,31.4272 C24.0809332,31.4496001 24.0548001,31.4608 24.0249333,31.4608 L22.8825333,31.4608 C22.7182658,31.4608 22.603467,31.4943997 22.5381333,31.5616 C22.4727997,31.6288003 22.4401333,31.7557324 22.4401333,31.9424 L22.4401333,32.5472 L23.9577333,32.5472 C23.9876001,32.5472 24.0137332,32.5583999 24.0361333,32.5808 C24.0585334,32.6032001 24.0697333,32.6293332 24.0697333,32.6592 L24.0697333,33.0624 C24.0697333,33.0922668 24.0585334,33.1183999 24.0361333,33.1408 C24.0137332,33.1632001 23.9876001,33.1744 23.9577333,33.1744 L22.4401333,33.1744 L22.4401333,33.8968 C22.4401333,34.0834676 22.4727997,34.2103997 22.5381333,34.2776 C22.603467,34.3448003 22.7182658,34.3784 22.8825333,34.3784 L24.0249333,34.3784 C24.0548001,34.3784 24.0809332,34.3895999 24.1033333,34.412 C24.1257334,34.4344001 24.1369333,34.4605332 24.1369333,34.4904 L24.1369333,34.8488 Z M28.0158667,32.1384 C28.0158667,32.3848012 27.9720004,32.5919992 27.8842667,32.76 C27.7965329,32.9280008 27.6789341,33.0633328 27.5314667,33.166 C27.3839993,33.2686672 27.213201,33.3414665 27.0190667,33.3844 C26.8249324,33.4273335 26.6196011,33.4488 26.4030667,33.4488 C26.3283996,33.4488 26.2425338,33.446 26.1454667,33.4404 C26.0483995,33.4348 25.9681337,33.4301334 25.9046667,33.4264 L25.9046667,34.888 C25.9046667,34.9178668 25.8944001,34.9439999 25.8738667,34.9664 C25.8533332,34.9888001 25.8281335,35 25.7982667,35 L25.2382667,35 C25.2083999,35 25.1822668,34.9888001 25.1598667,34.9664 C25.1374666,34.9439999 25.1262667,34.9178668 25.1262667,34.888 L25.1262667,31.0352 C25.1262667,30.9791997 25.1421332,30.9390668 25.1738667,30.9148 C25.2056002,30.8905332 25.2494664,30.8746667 25.3054667,30.8672 C25.4510674,30.8447999 25.6190657,30.8270667 25.8094667,30.814 C25.9998676,30.8009333 26.1977323,30.7944 26.4030667,30.7944 C26.6196011,30.7944 26.8249324,30.8149331 27.0190667,30.856 C27.213201,30.8970669 27.3839993,30.9679995 27.5314667,31.0688 C27.6789341,31.1696005 27.7965329,31.3030658 27.8842667,31.4692 C27.9720004,31.6353342 28.0158667,31.8415988 28.0158667,32.088 L28.0158667,32.1384 Z M27.2430667,32.088 C27.2430667,31.8527988 27.1730674,31.6857338 27.0330667,31.5868 C26.893066,31.4878662 26.6830681,31.4384 26.4030667,31.4384 C26.3731999,31.4384 26.3349336,31.4393333 26.2882667,31.4412 C26.2415998,31.4430667 26.1940002,31.4449333 26.1454667,31.4468 C26.0969331,31.4486667 26.0512002,31.4505333 26.0082667,31.4524 C25.9653331,31.4542667 25.9308001,31.4570666 25.9046667,31.4608 L25.9046667,32.7936 C25.9270668,32.7936 25.9615998,32.7945333 26.0082667,32.7964 C26.0549336,32.7982667 26.1034664,32.8001333 26.1538667,32.802 C26.2042669,32.8038667 26.2527998,32.8057333 26.2994667,32.8076 C26.3461336,32.8094667 26.3806666,32.8104 26.4030667,32.8104 C26.7054682,32.8104 26.921066,32.7544006 27.0498667,32.6424 C27.1786673,32.5303994 27.2430667,32.3624011 27.2430667,32.1384 L27.2430667,32.088 Z M31.3852,33.8744 C31.3852,34.0162674 31.3609336,34.1571993 31.3124,34.2972 C31.2638664,34.4372007 31.1826672,34.5622661 31.0688,34.6724 C30.9549328,34.7825339 30.8037343,34.872133 30.6152,34.9412 C30.4266657,35.010267 30.1924014,35.0448 29.9124,35.0448 C29.6995989,35.0448 29.5148008,35.0354668 29.358,35.0168 C29.2011992,34.9981332 29.0556007,34.9738668 28.9212,34.944 C28.8913332,34.9365333 28.8661334,34.9234668 28.8456,34.9048 C28.8250666,34.8861332 28.8148,34.8618668 28.8148,34.832 L28.8148,34.4288 C28.8148,34.3989332 28.8250666,34.3737334 28.8456,34.3532 C28.8661334,34.3326666 28.8913332,34.3224 28.9212,34.3224 L28.9324,34.3224 C28.9884003,34.3298667 29.0621329,34.3364 29.1536,34.342 C29.2450671,34.3476 29.3393328,34.3532 29.4364,34.3588 C29.5334672,34.3644 29.6258662,34.3690666 29.7136,34.3728 C29.8013338,34.3765334 29.8713331,34.3784 29.9236,34.3784 C30.1737346,34.3784 30.3445329,34.3354671 30.436,34.2496 C30.5274671,34.1637329 30.5732,34.0386675 30.5732,33.8744 C30.5732,33.8183997 30.5657334,33.7689335 30.5508,33.726 C30.5358666,33.6830665 30.5097335,33.6410669 30.4724,33.6 C30.4350665,33.5589331 30.3865336,33.5169335 30.3268,33.474 C30.2670664,33.4310665 30.1905338,33.3816003 30.0972,33.3256 L29.358,32.8832 C29.2273327,32.8047996 29.1200004,32.7264004 29.036,32.648 C28.9519996,32.5695996 28.8848003,32.4884004 28.8344,32.4044 C28.7839997,32.3203996 28.7485334,32.2326671 28.728,32.1412 C28.7074666,32.0497329 28.6972,31.9554672 28.6972,31.8584 C28.6972,31.7053326 28.7214664,31.5634673 28.77,31.4328 C28.8185336,31.3021327 28.8978661,31.1892005 29.008,31.094 C29.1181339,30.9987995 29.2618658,30.9250669 29.4392,30.8728 C29.6165342,30.8205331 29.8358654,30.7944 30.0972,30.7944 C30.1905338,30.7944 30.2894661,30.7972 30.394,30.8028 C30.4985339,30.8084 30.6011995,30.8167999 30.702,30.828 C30.8028005,30.8392001 30.8942663,30.8503999 30.9764,30.8616 C31.0585337,30.8728001 31.1238664,30.8839999 31.1724,30.8952 C31.2022668,30.9026667 31.2265332,30.9147999 31.2452,30.9316 C31.2638668,30.9484001 31.2732,30.9717332 31.2732,31.0016 L31.2732,31.416 C31.2732,31.4458668 31.2648001,31.4701332 31.248,31.4888 C31.2311999,31.5074668 31.2078668,31.5168 31.178,31.5168 L31.1668,31.5168 C30.9801324,31.4981332 30.7953342,31.4841334 30.6124,31.4748 C30.4294658,31.4654666 30.2465342,31.4608 30.0636,31.4608 C29.8545323,31.4608 29.7042671,31.495333 29.6128,31.5644 C29.5213329,31.633467 29.4756,31.731466 29.4756,31.8584 C29.4756,31.9032002 29.4821333,31.9451998 29.4952,31.9844 C29.5082667,32.0236002 29.5325332,32.0627998 29.568,32.102 C29.6034668,32.1412002 29.6510664,32.1813331 29.7108,32.2224 C29.7705336,32.2634669 29.8451996,32.3082664 29.9348,32.3568 L30.6068,32.732 C30.7598674,32.8178671 30.8867995,32.9046662 30.9876,32.9924 C31.0884005,33.0801338 31.167733,33.1706662 31.2256,33.264 C31.283467,33.3573338 31.3245332,33.4543995 31.3488,33.5552 C31.3730668,33.6560005 31.3852,33.7623994 31.3852,33.8744 Z" id="FORPEEPS" fill="#4A4A4A"></path>
                <g id="icon">
                    <path d="M8.69674154,17.2666667 C7.1398611,18.0230031 6.06666667,19.6195059 6.06666667,21.4666667 L6.06666667,28.4666667 L0,28.4666667 L0,21.9333333 C0,19.3560045 2.08933783,17.2666667 4.66666667,17.2666667 L8.69674154,17.2666667 Z" id="body-light" fill="#EAEFF4"></path>
                    <path d="M12.9263602,0.297807016 C10.2194059,1.87457691 8.4,4.80814928 8.4,8.16666667 C8.4,11.5251841 10.2194059,14.4587564 12.9263602,16.0355263 C12.228507,16.2296005 11.4930342,16.3333333 10.7333333,16.3333333 C6.22300788,16.3333333 2.56666667,12.6769921 2.56666667,8.16666667 C2.56666667,3.65634121 6.22300788,0 10.7333333,0 C11.4930342,0 12.228507,0.103732823 12.9263602,0.297807016 Z" id="head-light" fill="#EAEFF4"></path>
                    <path d="M22.1504308,15.990291 C24.8149468,14.4030648 26.6,11.4933265 26.6,8.16666667 C26.6,4.84000686 24.8149468,1.93026857 22.1504308,0.343042321 C22.8945245,0.119894063 23.6832609,0 24.5,0 C29.0103255,0 32.6666667,3.65634121 32.6666667,8.16666667 C32.6666667,12.6769921 29.0103255,16.3333333 24.5,16.3333333 C23.6832609,16.3333333 22.8945245,16.2134393 22.1504308,15.990291 Z" id="head-dark" fill="#C4D1E4"></path>
                    <circle id="head-medium" fill="#D7E2EC" cx="17.5" cy="8.16666667" r="8.16666667"></circle>
                    <path d="M26.3032585,17.2666667 L30.3333333,17.2666667 C32.9106622,17.2666667 35,19.3560045 35,21.9333333 L35,28.4666667 L28.9333333,28.4666667 L28.9333333,21.4666667 C28.9333333,19.6195059 27.8601389,18.0230031 26.3032585,17.2666667 Z" id="body-dark" fill="#C4D1E4"></path>
                    <path d="M11.6666667,17.2666667 L23.3333333,17.2666667 C25.9106622,17.2666667 28,19.3560045 28,21.9333333 L28,28.4666667 L7,28.4666667 L7,21.9333333 C7,19.3560045 9.08933783,17.2666667 11.6666667,17.2666667 Z" id="body-medium" fill="#D7E2EC"></path>
                </g>
            </g>
        </g>
    </g>
</svg>