<?xml version="1.0" encoding="UTF-8"?>
<svg width="25px" height="25px" viewBox="0 0 25 25" version="1.1" xmlns="http://www.w3.org/2000/svg" xmlns:xlink="http://www.w3.org/1999/xlink">
    <!-- Generator: Sketch 56 (81588) - https://sketch.com -->
    <title>api-d</title>
    <desc>Created with Sketch.</desc>
    <g id="Symbols" stroke="none" stroke-width="1" fill="none" fill-rule="evenodd">
        <g id="web-API-icon-enabled" fill="#31314F" fill-rule="nonzero">
            <path d="M24.4117933,15.1457436 C24.9764436,15.4627202 25.1705641,16.1672211 24.8446147,16.7162916 L22.4294289,20.7837573 C22.1034291,21.3327299 21.3787728,21.5215264 20.8141728,21.2045499 L19.9251832,20.7054795 C18.8045873,21.6642368 17.492437,22.4043542 16.101139,22.8623777 L16.101139,23.8502935 C16.101139,24.4842466 15.5707038,25 14.9187043,25 L10.0883328,25 C9.43633326,25 8.90589808,24.4842466 8.90589808,23.8502935 L8.90589808,22.8624755 C7.50710299,22.402544 6.19319162,21.6634051 5.07667136,20.7083659 L4.19286432,21.2045499 C3.62816369,21.5215264 2.90360796,21.3327299 2.5776082,20.7837573 L0.162422431,16.7162916 C-0.163527016,16.1672211 0.0305935407,15.4627202 0.595243847,15.1457436 L1.47839678,14.6499511 C1.33197614,13.9384051 1.25780981,13.2164384 1.25780981,12.5 C1.25780981,11.7936888 1.33323405,11.072407 1.48206987,10.3521037 L0.595193531,9.85420744 C0.321673742,9.70068493 0.125993379,9.45273973 0.0442795934,9.15611546 C-0.0374341918,8.85949119 0.00447934457,8.54965753 0.162422431,8.28370841 L2.5776082,4.21624266 C2.73555129,3.95029354 2.99050434,3.76007828 3.29557249,3.6805773 C3.60064064,3.60107632 3.91929421,3.64187867 4.19286432,3.7954501 L5.08190426,4.29456947 C6.20250014,3.33576321 7.51465045,2.59564579 8.90589808,2.13762231 L8.90589808,1.14970646 C8.90589808,0.515753425 9.43633326,0 10.0883328,0 L14.9187043,0 C15.5707038,0 16.101139,0.515753425 16.101139,1.14970646 L16.101139,2.13757339 C17.4998335,2.59745597 18.8137952,3.33659491 19.9302651,4.29163405 L20.8141225,3.7954501 C21.0876926,3.64187867 21.4062958,3.60112524 21.7114143,3.6805773 C22.0164825,3.76002935 22.2714355,3.95029354 22.4293786,4.21624266 L24.8445644,8.28370841 C25.0025074,8.54965753 25.044421,8.85949119 24.9627072,9.15611546 C24.8809934,9.45273973 24.685313,9.70068493 24.4117933,9.85420744 L23.5286403,10.35 C23.675061,11.0614971 23.7492273,11.7834638 23.7492273,12.5 C23.7492273,13.2062622 23.6738534,13.927544 23.5249169,14.6478474 L24.4117933,15.1457436 Z M13.5273973,10.5675147 L12.1575342,10.5675147 C11.9548924,10.5675147 11.7906067,10.7318004 11.7906067,10.9344423 L11.7906067,14.0655577 C11.7906067,14.2681996 11.9548924,14.4324853 12.1575342,14.4324853 C12.3601761,14.4324853 12.5244618,14.2681996 12.5244618,14.0655577 L12.5244618,13.258317 L13.5273973,13.258317 C14.2692759,13.258317 14.8727984,12.6547945 14.8727984,11.9129159 C14.8727984,11.1710372 14.2692759,10.5675147 13.5273973,10.5675147 Z M13.5273973,12.5244618 L12.5244618,12.5244618 L12.5244618,11.3013699 L13.5273973,11.3013699 C13.8646282,11.3013699 14.1389432,11.5756849 14.1389432,11.9129159 C14.1389432,12.2501468 13.8646282,12.5244618 13.5273973,12.5244618 Z M10.1527397,10.8056262 C10.0990215,10.6624266 9.96213307,10.5675147 9.80919765,10.5675147 L9.41780822,10.5675147 C9.2648728,10.5675147 9.12793542,10.6623777 9.07426614,10.8056262 L7.90009785,13.9367417 C7.82891389,14.1264677 7.92509785,14.3379648 8.11482387,14.4091487 C8.3045499,14.4803327 8.51604697,14.3841487 8.58723092,14.1944227 L8.79143836,13.6497065 L10.4355186,13.6497065 L10.639775,14.1943738 C10.6950098,14.341683 10.8348337,14.4326206 10.9833659,14.4326206 C11.0261742,14.4326206 11.0697162,14.4250489 11.1121331,14.4091487 C11.3018591,14.3380137 11.3980431,14.1264677 11.3268591,13.9367417 L10.1527397,10.8056262 Z M9.06663405,12.9158513 L9.61350294,11.4575832 L10.1603718,12.9158513 L9.06663405,12.9158513 Z M15.6800391,10.5675147 C15.4773973,10.5675147 15.3131115,10.7318004 15.3131115,10.9344423 L15.3131115,14.0655577 C15.3131115,14.2681996 15.4773973,14.4324853 15.6800391,14.4324853 C15.882681,14.4324853 16.0469667,14.2681996 16.0469667,14.0655577 L16.0469667,10.9344423 C16.0469667,10.7318004 15.882681,10.5675147 15.6800391,10.5675147 Z" id="api-d"></path>
        </g>
    </g>
</svg>