<?xml version="1.0" encoding="UTF-8"?>
<svg width="25px" height="25px" viewBox="0 0 25 25" version="1.1" xmlns="http://www.w3.org/2000/svg" xmlns:xlink="http://www.w3.org/1999/xlink">
    <!-- Generator: Sketch 56 (81588) - https://sketch.com -->
    <title>api</title>
    <desc>Created with Sketch.</desc>
    <g id="Symbols" stroke="none" stroke-width="1" fill="none" fill-rule="evenodd">
        <g id="web-API-icon-disabled" fill="#31314F" fill-rule="nonzero">
            <g id="api" transform="translate(-0.000000, 0.000000)">
                <path d="M24.4117933,15.1457436 L23.5249169,14.6478474 C23.6738534,13.927544 23.7492273,13.2062622 23.7492273,12.5 C23.7492273,11.7834638 23.675061,11.0614971 23.5286403,10.35 L24.4117933,9.85420744 C24.685313,9.70068493 24.8809934,9.45273973 24.9627072,9.15611546 C25.044421,8.85949119 25.0025074,8.54965753 24.8445644,8.28370841 L22.4293786,4.21624266 C22.2714355,3.95029354 22.0164825,3.76002935 21.7114143,3.6805773 C21.4062958,3.60112524 21.0876926,3.64187867 20.8141225,3.7954501 L19.9302651,4.29163405 C18.8137952,3.33659491 17.4998335,2.59745597 16.101139,2.13757339 L16.101139,1.14970646 C16.101139,0.515753425 15.5707038,0 14.9187043,0 L10.0883328,0 C9.43633326,0 8.90589808,0.515753425 8.90589808,1.14970646 L8.90589808,2.13762231 C7.51465045,2.59564579 6.20250014,3.33576321 5.08190426,4.29456947 L4.19286432,3.7954501 C3.91929421,3.64187867 3.60064064,3.60107632 3.29557249,3.6805773 C2.99050434,3.76007828 2.73555129,3.95029354 2.5776082,4.21624266 L0.162422431,8.28370841 C0.00447934457,8.54965753 -0.0374341918,8.85949119 0.0442795934,9.15611546 C0.125993379,9.45273973 0.321673742,9.70068493 0.595193531,9.85420744 L1.48206987,10.3521037 C1.33323405,11.072407 1.25780981,11.7936888 1.25780981,12.5 C1.25780981,13.2164384 1.33197614,13.9384051 1.47839678,14.6499511 L0.595243847,15.1457436 C0.0305935407,15.4627202 -0.163527016,16.1672211 0.162422431,16.7162916 L2.5776082,20.7837573 C2.90360796,21.3327299 3.62816369,21.5215264 4.19286432,21.2045499 L5.07667136,20.7083659 C6.19319162,21.6634051 7.50710299,22.402544 8.90589808,22.8624755 L8.90589808,23.8502935 C8.90589808,24.4842466 9.43633326,25 10.0883328,25 L14.9187043,25 C15.5707038,25 16.101139,24.4842466 16.101139,23.8502935 L16.101139,22.8623777 C17.492437,22.4043542 18.8045873,21.6642368 19.9251832,20.7054795 L20.8141728,21.2045499 C21.3787728,21.5215264 22.1034291,21.3327299 22.4294289,20.7837573 L24.8446147,16.7162916 C25.1705641,16.1672211 24.9764436,15.4627202 24.4117933,15.1457436 Z M23.9847179,16.2058236 L21.569586,20.2731986 C21.5223196,20.3527936 21.3976077,20.3852833 21.3037171,20.3325715 L20.4147094,19.8334909 L19.8057338,19.4916177 L19.2750774,19.9456357 C18.2532993,20.8198467 17.0557164,21.4953306 15.7884419,21.9125248 L15.101139,22.138789 L15.101139,23.8502935 C15.101139,23.9255826 15.0246033,24 14.9187043,24 L10.0883328,24 C9.98243385,24 9.90589808,23.9255826 9.90589808,23.8502935 L9.90589808,22.1386115 L9.21825205,21.9125097 C7.9432645,21.4932868 6.7440714,20.8186863 5.72668623,19.9484445 L5.196032,19.4945382 L3.70332088,20.332571 C3.60939005,20.385296 3.48473264,20.3528192 3.43743044,20.2731638 L1.0222653,16.2057328 C0.984779248,16.1425866 1.00718322,16.061287 1.08475495,16.0177407 L1.96792208,15.5219402 L2.60516999,15.164196 L2.45787397,14.448396 C2.32497757,13.8025725 2.25780981,13.1481259 2.25780981,12.5 C2.25780981,11.8628329 2.32606932,11.2093162 2.46138217,10.5544584 L2.60938755,9.83817407 L1.08472888,8.98222398 C1.04269227,8.95862947 1.01877976,8.92832905 1.0083668,8.89052959 C0.998957549,8.85637363 1.0029663,8.82676339 1.02222637,8.79433273 L3.43745107,4.72680142 C3.46016575,4.68855379 3.49615233,4.66170468 3.54775079,4.64825809 C3.60284563,4.63390033 3.65563225,4.6406585 3.70335813,4.66744992 L4.59236262,5.16654939 L5.20135997,5.50844896 L5.73202913,5.05439685 C6.75377013,4.18017299 7.95134125,3.50467776 9.21860545,3.08747183 L9.90589808,2.86120286 L9.90589808,1.14970646 C9.90589808,1.07441736 9.98243385,1 10.0883328,1 L14.9187043,1 C15.0246033,1 15.101139,1.07441736 15.101139,1.14970646 L15.101139,2.86144517 L15.7887948,3.08754237 C17.0637231,3.50673136 18.2629466,4.18134418 19.2802333,5.05154107 L19.8108763,5.50545818 L21.3036447,4.6674409 C21.3513351,4.64066941 21.4041387,4.63391091 21.4594202,4.64830608 C21.5108458,4.66169937 21.5468083,4.68853233 21.5695747,4.72686698 L23.9847215,8.79426717 C24.0040205,8.82676339 24.0080292,8.85637363 23.99862,8.89052959 C23.988207,8.92832905 23.9642945,8.95862947 23.9223372,8.98217947 L23.039115,9.47801091 L22.401858,9.83576013 L22.5491659,10.5515683 C22.6820611,11.197342 22.7492273,11.8517841 22.7492273,12.5 C22.7492273,13.1373432 22.6809709,13.7908189 22.5456317,14.4453615 L22.3975096,15.1617267 L23.9222579,16.0177271 C23.9998539,16.061287 24.0222579,16.1425866 23.9847179,16.2058236 Z" id="Path"></path>
                <path d="M13.5273973,10.5675147 L12.1575342,10.5675147 C11.9548924,10.5675147 11.7906067,10.7318004 11.7906067,10.9344423 L11.7906067,14.0655577 C11.7906067,14.2681996 11.9548924,14.4324853 12.1575342,14.4324853 C12.3601761,14.4324853 12.5244618,14.2681996 12.5244618,14.0655577 L12.5244618,13.258317 L13.5273973,13.258317 C14.2692759,13.258317 14.8727984,12.6547945 14.8727984,11.9129159 C14.8727984,11.1710372 14.2692759,10.5675147 13.5273973,10.5675147 Z M13.5273973,12.5244618 L12.5244618,12.5244618 L12.5244618,11.3013699 L13.5273973,11.3013699 C13.8646282,11.3013699 14.1389432,11.5756849 14.1389432,11.9129159 C14.1389432,12.2501468 13.8646282,12.5244618 13.5273973,12.5244618 Z" id="Shape"></path>
                <path d="M10.1527397,10.8056262 C10.0990215,10.6624266 9.96213307,10.5675147 9.80919765,10.5675147 L9.41780822,10.5675147 C9.2648728,10.5675147 9.12793542,10.6623777 9.07426614,10.8056262 L7.90009785,13.9367417 C7.82891389,14.1264677 7.92509785,14.3379648 8.11482387,14.4091487 C8.3045499,14.4803327 8.51604697,14.3841487 8.58723092,14.1944227 L8.79143836,13.6497065 L10.4355186,13.6497065 L10.639775,14.1943738 C10.6950098,14.341683 10.8348337,14.4326206 10.9833659,14.4326206 C11.0261742,14.4326206 11.0697162,14.4250489 11.1121331,14.4091487 C11.3018591,14.3380137 11.3980431,14.1264677 11.3268591,13.9367417 L10.1527397,10.8056262 Z M9.06663405,12.9158513 L9.61350294,11.4575832 L10.1603718,12.9158513 L9.06663405,12.9158513 Z" id="Shape"></path>
                <path d="M15.6800391,10.5675147 C15.4773973,10.5675147 15.3131115,10.7318004 15.3131115,10.9344423 L15.3131115,14.0655577 C15.3131115,14.2681996 15.4773973,14.4324853 15.6800391,14.4324853 C15.882681,14.4324853 16.0469667,14.2681996 16.0469667,14.0655577 L16.0469667,10.9344423 C16.0469667,10.7318004 15.882681,10.5675147 15.6800391,10.5675147 Z" id="Path"></path>
            </g>
        </g>
    </g>
</svg>