<?xml version="1.0" encoding="UTF-8"?>
<svg width="25px" height="25px" viewBox="0 0 25 25" version="1.1" xmlns="http://www.w3.org/2000/svg" xmlns:xlink="http://www.w3.org/1999/xlink">
    <!-- Generator: Sketch 56 (81588) - https://sketch.com -->
    <title>bell</title>
    <desc>Created with Sketch.</desc>
    <g id="Symbols" stroke="none" stroke-width="1" fill="none" fill-rule="evenodd">
        <g id="activity-blue" fill="#31314F" fill-rule="nonzero">
            <path d="M10,25 C11.9717917,25 13.6212309,23.7089233 14,22 L6,22 C6.37896834,23.7089233 8.02840768,25 10,25 Z M18.4546678,15.2206597 C18.4273669,15.2206597 18.4021808,15.2248894 18.3748798,15.2248894 C13.7433327,15.2248894 9.97503365,11.4565904 9.97503365,6.82504327 C9.97503365,5.00530086 10.5629652,3.32437036 11.5500288,1.94663406 L11.5500288,1.0499327 C11.5500288,0.469307027 11.0795682,0 10.4999039,0 C9.92043177,0 9.44997116,0.469307027 9.44997116,1.0499327 L9.44997116,2.18407536 C5.89354283,2.69644867 3.14999039,5.75511551 3.14999039,9.44997116 L3.14999039,12.3773243 C3.14999039,14.455272 2.23963854,16.4167101 0.642533464,17.7669532 C0.234172845,18.1166745 0,18.624818 0,19.1623774 C0,20.1757807 0.824219298,21 1.83743029,21 L19.1623774,21 C20.1757807,21 21,20.1757807 21,19.1623774 C21,18.624818 20.7658271,18.1166745 20.3468923,17.758686 C19.5194046,17.0582823 18.8811008,16.186767 18.4546678,15.2206597 Z M17.9999014,0 C14.1402735,0 11,3.14027352 11,7.00009861 C11,10.8597265 14.1402735,14 17.9999014,14 C21.8597265,14 25,10.8597265 25,7.00009861 C25,3.14027352 21.8597265,0 17.9999014,0 L17.9999014,0 Z M19.076961,9.42318692 C19.076961,9.86903673 18.7151147,10.230883 18.2692649,10.230883 C17.8234151,10.230883 17.4615688,9.86903673 17.4615688,9.42318692 L17.4615688,5.92303899 L16.923039,5.92303899 C16.4771892,5.92303899 16.1153429,5.56119271 16.1153429,5.11534289 C16.1153429,4.66949308 16.4771892,4.30764679 16.923039,4.30764679 L18.2692649,4.30764679 C18.7151147,4.30764679 19.076961,4.66949308 19.076961,5.11534289 L19.076961,9.42318692 Z" id="bell"></path>
        </g>
    </g>
</svg>