<?xml version="1.0" encoding="UTF-8"?>
<svg width="15px" height="8px" viewBox="0 0 15 8" version="1.1" xmlns="http://www.w3.org/2000/svg" xmlns:xlink="http://www.w3.org/1999/xlink">
    <!-- Generator: Sketch 56 (81588) - https://sketch.com -->
    <title>chart</title>
    <desc>Created with Sketch.</desc>
    <g id="Backend-admin-" stroke="none" stroke-width="1" fill="none" fill-rule="evenodd">
        <g id="Dashboard" transform="translate(-172.000000, -115.000000)" fill="#31314F">
            <g id="chart" transform="translate(0.000000, 82.000000)">
                <g id="online-chart" transform="translate(172.000000, 30.000000)">
                    <path d="M1.31756757,11 L9.05941988e-14,11 L9.1038288e-14,6.47368421 L1.31756757,6.47368421 L1.31756757,11 Z M2.83783784,11 L1.52027027,11 L1.52027027,8.26315789 L2.83783784,8.26315789 L2.83783784,11 Z M4.35810811,11 L3.04054054,11 L3.04054054,3 L4.35810811,3 L4.35810811,11 Z M5.87837838,11 L4.56081081,11 L4.56081081,5.52631579 L5.87837838,5.52631579 L5.87837838,11 Z M7.39864865,11 L6.08108108,11 L6.08108108,6.36842105 L7.39864865,6.36842105 L7.39864865,11 Z M8.91891892,11 L7.60135135,11 L7.60135135,3.21052632 L8.91891892,3.21052632 L8.91891892,11 Z M10.4391892,11 L9.12162162,11 L9.12162162,4.89473684 L10.4391892,4.89473684 L10.4391892,11 Z M11.9594595,11 L10.6418919,11 L10.6418919,8.26315789 L11.9594595,8.26315789 L11.9594595,11 Z M13.4797297,11 L12.1621622,11 L12.1621622,6.57894737 L13.4797297,6.57894737 L13.4797297,11 Z M15,11 L13.6824324,11 L13.6824324,9.10526316 L15,9.10526316 L15,11 Z" id="chart"></path>
                </g>
            </g>
        </g>
    </g>
</svg>