<?xml version="1.0" encoding="UTF-8"?>
<svg width="25px" height="25px" viewBox="0 0 25 25" version="1.1" xmlns="http://www.w3.org/2000/svg" xmlns:xlink="http://www.w3.org/1999/xlink">
    <!-- Generator: Sketch 56 (81588) - https://sketch.com -->
    <title>credit</title>
    <desc>Created with Sketch.</desc>
    <g id="credit" stroke="none" stroke-width="1" fill="none" fill-rule="evenodd">
        <path d="M12.5,25 C5.59644063,25 0,19.4035594 0,12.5 C0,5.59644063 5.59644063,1.77635684e-15 12.5,1.77635684e-15 C19.4035594,1.77635684e-15 25,5.59644063 25,12.5 C25,19.4035594 19.4035594,25 12.5,25 Z M15.7526433,17.0995764 C15.9910814,16.9878152 16.052394,16.7957257 15.9570188,16.5582333 C15.854831,16.2928005 15.7458308,16.0308603 15.630018,15.7724127 C15.5278303,15.5419053 15.3949862,15.4755471 15.1497356,15.5314277 C14.8363599,15.6047709 14.5297967,15.7025619 14.2164209,15.7689201 C13.610107,15.898144 13.0071993,15.9086216 12.4076979,15.7165321 C11.6583211,15.4755471 11.2597889,14.9202339 11.0145384,14.2007714 L13.0446682,14.2007714 C13.201356,14.2007714 13.3307938,14.0715476 13.3307938,13.9073984 L13.3307938,13.2508016 C13.3307938,13.0901449 13.2047623,12.9574286 13.0446682,12.9574286 L10.8203817,12.9574286 C10.8203817,12.7723242 10.8169754,12.5976974 10.8203817,12.4230706 L13.0412619,12.4230706 C13.1979498,12.4230706 13.3273876,12.2938467 13.3273876,12.1296975 L13.3273876,11.4731007 C13.3273876,11.3124441 13.201356,11.1797277 13.0412619,11.1797277 L11.0962886,11.1797277 C11.0962886,11.1727426 11.0962886,11.1657576 11.0996948,11.1587725 C11.3313204,10.6139369 11.6719462,10.1773698 12.2305725,9.950355 C12.8811678,9.6884148 13.5453881,9.69539987 14.2130147,9.83510131 C14.5297967,9.9014595 14.8397662,10.002743 15.1565481,10.0760863 C15.3881737,10.1284743 15.524424,10.0586236 15.6232055,9.83859385 C15.7390183,9.58363871 15.8446123,9.32169851 15.9502063,9.06325084 C16.0489878,8.81528077 15.9910814,8.64414651 15.7662683,8.5079376 C15.708362,8.47301224 15.6504556,8.44507195 15.5891429,8.4206242 C14.652422,8.0434303 13.6850447,7.90372886 12.6870111,8.06787805 C11.9853219,8.18313174 11.3313204,8.4311018 10.7658815,8.88163896 C10.0539736,9.44742981 9.59072251,10.1983251 9.32162812,11.0749516 L9.28756554,11.1762352 L8.28612568,11.1762352 C8.12943781,11.1762352 8,11.305459 8,11.4696082 L8,12.126205 C8,12.2868616 8.12603155,12.419578 8.28612568,12.419578 L9.07297128,12.419578 C9.07297128,12.6011899 9.07297128,12.7723242 9.07297128,12.953936 L8.28612568,12.953936 C8.12943781,12.953936 8,13.0831599 8,13.2473091 L8,13.9039059 C8,14.0645625 8.12603155,14.1972789 8.28612568,14.1972789 L9.23647167,14.1972789 C9.30800309,14.4382639 9.36931573,14.6792489 9.4612847,14.9097563 C9.94156708,16.0972185 10.745444,16.9459048 11.9580718,17.3475464 C12.962918,17.6828299 13.9711703,17.6723523 14.9794227,17.3859643 C15.2451109,17.3126211 15.5039865,17.2148301 15.7526433,17.0995764 Z" id="loan" fill="#31314F" fill-rule="nonzero"></path>
    </g>
</svg>