<?xml version="1.0" encoding="UTF-8"?>
<svg width="23px" height="6px" viewBox="0 0 23 6" version="1.1" xmlns="http://www.w3.org/2000/svg" xmlns:xlink="http://www.w3.org/1999/xlink">
    <!-- Generator: Sketch 56 (81588) - https://sketch.com -->
    <title>ellipsis</title>
    <desc>Created with Sketch.</desc>
    <g id="Backend-admin-" stroke="none" stroke-width="1" fill="none" fill-rule="evenodd">
        <g id="Dashboard---activity-details" transform="translate(-394.000000, -1526.000000)" fill="#31314F">
            <g id="general-info" transform="translate(108.000000, 1506.000000)">
                <g id="row-1" transform="translate(20.000000, 20.000000)">
                    <path d="M271.6675,2.83375001 C271.6675,4.39864678 270.398647,5.66750002 268.83375,5.66750002 C267.268853,5.66750002 266,4.39864678 266,2.83375001 C266,1.26885324 267.268853,0 268.83375,0 C270.398647,0 271.6675,1.26885324 271.6675,2.83375001 Z M280.16875,2.83375001 C280.16875,4.39864678 278.899897,5.66750002 277.335,5.66750002 C275.770103,5.66750002 274.50125,4.39864678 274.50125,2.83375001 C274.50125,1.26885324 275.770103,0 277.335,0 C278.899897,0 280.16875,1.26885324 280.16875,2.83375001 Z M288.67,2.83375001 C288.67,4.39864678 287.401147,5.66750002 285.83625,5.66750002 C284.271353,5.66750002 283.0025,4.39864678 283.0025,2.83375001 C283.0025,1.26885324 284.271353,0 285.83625,0 C287.401147,0 288.67,1.26885324 288.67,2.83375001 Z" id="ellipsis"></path>
                </g>
            </g>
        </g>
    </g>
</svg>