<?xml version="1.0" encoding="UTF-8"?>
<svg width="25px" height="25px" viewBox="0 0 25 25" version="1.1" xmlns="http://www.w3.org/2000/svg" xmlns:xlink="http://www.w3.org/1999/xlink">
    <!-- Generator: Sketch 56 (81588) - https://sketch.com -->
    <title>logout</title>
    <desc>Created with Sketch.</desc>
    <g id="Symbols" stroke="none" stroke-width="1" fill="none" fill-rule="evenodd">
        <g id="web-log-out" fill="#FC6692" fill-rule="nonzero">
            <g id="logout">
                <path d="M16,7.4351999 L16,2.1211607 C16,0.9516941 15.0210909,0 13.8181818,0 L2.18181818,0 C0.978909091,0 0,0.9516941 0,2.1211607 L0,19.0904463 C0,20.1453702 0.781090909,21.2964534 1.77745455,21.7107868 L9.28581818,24.8387918 C9.54472727,24.9462639 9.808,25 10.0596364,25 C10.3694545,25 10.6647273,24.9179818 10.9163636,24.7567736 C11.3730909,24.4640534 11.6363636,23.943662 11.6363636,23.3313536 L11.6363636,21.2101929 L13.8181818,21.2101929 C15.0210909,21.2101929 16,20.2584988 16,19.0890322 L16,14.6922905 C16,14.3019969 15.6741818,13.9852369 15.2727273,13.9852369 C14.8712727,13.9852369 14.5454545,14.3019969 14.5454545,14.6922905 L14.5454545,19.0890322 C14.5454545,19.4793258 14.2196364,19.7960858 13.8181818,19.7960858 L11.6363636,19.7960858 L11.6363636,6.36206799 C11.6363636,5.30714407 10.8552727,4.15606086 9.85890909,3.74172747 L4.27054545,1.41269303 L13.8181818,1.41269303 C14.2196364,1.41269303 14.5454545,1.72945302 14.5454545,2.11974659 L14.5454545,7.43378579 C14.5454545,7.82407936 14.8712727,8.14083936 15.2727273,8.14083936 C15.6741818,8.14225346 16,7.82549347 16,7.4351999 Z M9.28581818,5.04270604 C9.75418182,5.23785282 10.1818182,5.8685446 10.1818182,6.3634821 L10.1818182,23.3327677 C10.1818182,23.4798348 10.1410909,23.561853 10.1163636,23.5774082 C10.0916364,23.5929634 9.99854545,23.5972057 9.85890909,23.5392273 L2.35054545,20.4112224 C1.88218182,20.2160756 1.45454545,19.5867979 1.45454545,19.0904463 L1.45454545,2.1211607 C1.45454545,2.00944624 1.48072727,1.90480231 1.52872727,1.81005713 L9.28581818,5.04270604 Z" id="Shape"></path>
                <path d="M19.9837682,6.20898082 C19.6729683,5.93033973 19.1677191,5.93033973 18.8569191,6.20898082 C18.5461192,6.48762191 18.5461192,6.94059229 18.8569191,7.21923338 L22.2773126,10.2857143 L13.796923,10.2855357 C13.3570215,10.2855357 13,10.6056157 13,11 C13,11.3943843 13.3570215,11.7144643 13.796923,11.7144643 L22.2773126,11.7146429 L18.8569191,14.7811239 C18.5461192,15.0597649 18.5461192,15.5127353 18.8569191,15.7913764 C19.013116,15.9314114 19.2171283,16 19.4211406,16 C19.6251529,16 19.8291652,15.9299825 19.9853621,15.7913764 L24.7669,11.5045904 C25.0777,11.2259493 25.0777,10.772979 24.7669,10.4943379 L19.9837682,6.20898082 Z" id="Shape"></path>
            </g>
        </g>
    </g>
</svg>