<?xml version="1.0" encoding="UTF-8"?>
<svg width="25px" height="25px" viewBox="0 0 25 25" version="1.1" xmlns="http://www.w3.org/2000/svg" xmlns:xlink="http://www.w3.org/1999/xlink">
    <!-- Generator: Sketch 56 (81588) - https://sketch.com -->
    <title>logout-d</title>
    <desc>Created with Sketch.</desc>
    <g id="Symbols" stroke="none" stroke-width="1" fill="none" fill-rule="evenodd">
        <g id="web-log-out-enabled" fill="#FC6692" fill-rule="nonzero">
            <g id="logout-d" transform="translate(-0.000000, 0.000000)">
                <path d="M16,7.4351999 C16,7.82549347 15.6741818,8.14225346 15.2727273,8.14083936 C14.8712727,8.14083936 14.5454545,7.82407936 14.5454545,7.43378579 L14.5454545,2.11974659 C14.5454545,1.72945302 14.2196364,1.41269303 13.8181818,1.41269303 L4.27054545,1.41269303 L9.85890909,3.74172747 C10.8552727,4.15606086 11.6363636,5.30714407 11.6363636,6.36206799 L11.6363636,19.7960858 L13.8181818,19.7960858 C14.2196364,19.7960858 14.5454545,19.4793258 14.5454545,19.0890322 L14.5454545,14.6922905 C14.5454545,14.3019969 14.8712727,13.9852369 15.2727273,13.9852369 C15.6741818,13.9852369 16,14.3019969 16,14.6922905 L16,19.0890322 C16,20.2584988 15.0210909,21.2101929 13.8181818,21.2101929 L11.6363636,21.2101929 L11.6363636,23.3313536 C11.6363636,23.943662 11.3730909,24.4640534 10.9163636,24.7567736 C10.6647273,24.9179818 10.3694545,25 10.0596364,25 C9.808,25 9.54472727,24.9462639 9.28581818,24.8387918 L1.77745455,21.7107868 C0.781090909,21.2964534 0,20.1453702 0,19.0904463 L0,2.1211607 C0,0.9516941 0.978909091,0 2.18181818,0 L13.8181818,0 C15.0210909,0 16,0.9516941 16,2.1211607 L16,7.4351999 Z" id="Shape"></path>
                <path d="M19.9837682,6.20898082 C19.6729683,5.93033973 19.1677191,5.93033973 18.8569191,6.20898082 C18.5461192,6.48762191 18.5461192,6.94059229 18.8569191,7.21923338 L22.2773126,10.2857143 L13.796923,10.2855357 C13.3570215,10.2855357 13,10.6056157 13,11 C13,11.3943843 13.3570215,11.7144643 13.796923,11.7144643 L22.2773126,11.7146429 L18.8569191,14.7811239 C18.5461192,15.0597649 18.5461192,15.5127353 18.8569191,15.7913764 C19.013116,15.9314114 19.2171283,16 19.4211406,16 C19.6251529,16 19.8291652,15.9299825 19.9853621,15.7913764 L24.7669,11.5045904 C25.0777,11.2259493 25.0777,10.772979 24.7669,10.4943379 L19.9837682,6.20898082 Z" id="Shape"></path>
            </g>
        </g>
    </g>
</svg>