<?xml version="1.0" encoding="UTF-8"?>
<svg width="14px" height="25px" viewBox="0 0 14 25" version="1.1" xmlns="http://www.w3.org/2000/svg" xmlns:xlink="http://www.w3.org/1999/xlink">
    <!-- Generator: Sketch 56 (81588) - https://sketch.com -->
    <title>phone</title>
    <desc>Created with Sketch.</desc>
    <g id="Symbols" stroke="none" stroke-width="1" fill="none" fill-rule="evenodd">
        <g id="web-app-disabled" transform="translate(-6.000000, 0.000000)" fill="#31314F">
            <path d="M8,0 L17.0180079,0 C18.1225774,-2.02906125e-16 19.0180079,0.8954305 19.0180079,2 L19.0180079,23 C19.0180079,24.1045695 18.1225774,25 17.0180079,25 L8,25 C6.8954305,25 6,24.1045695 6,23 L6,2 C6,0.8954305 6.8954305,2.02906125e-16 8,0 Z M8.44398971,1.05777283 C7.5055646,1.02945198 7.03635205,1.45426482 7.03635205,2.33221135 L7.03635205,22.6002566 C6.99725101,23.5631657 7.46646356,24.0257397 8.44398971,23.9879785 L16.5653643,23.9879785 C17.5428905,24.0257397 18.0218783,23.5631657 18.0023278,22.6002566 L18.0023278,2.33221135 C17.9827773,1.45426482 17.5037894,1.02945198 16.5653643,1.05777283 L15.7149166,1.05777283 C15.5976135,1.05777283 15.5389619,1.12385483 15.5389619,1.25601883 C15.5389619,1.51090653 15.4216587,1.90739851 14.8351431,1.90739851 C12.7163502,1.90739851 11.132348,1.90739851 10.0831366,1.90739851 C9.52594671,1.90739851 9.40864357,1.51090653 9.40864357,1.25601883 C9.40864357,1.12385483 9.34977517,1.05777283 9.23203836,1.05777283 C9.04319453,1.05777283 8.78051164,1.05777283 8.44398971,1.05777283 Z" id="phone"></path>
        </g>
    </g>
</svg>