<?xml version="1.0" encoding="UTF-8"?>
<svg width="25px" height="23px" viewBox="0 0 25 23" version="1.1" xmlns="http://www.w3.org/2000/svg" xmlns:xlink="http://www.w3.org/1999/xlink">
    <!-- Generator: Sketch 56 (81588) - https://sketch.com -->
    <title>profit</title>
    <desc>Created with Sketch.</desc>
    <g id="Symbols" stroke="none" stroke-width="1" fill="none" fill-rule="evenodd">
        <g id="profit-icon" transform="translate(0.000000, -2.000000)" fill="#31314F">
            <path d="M8.30561709,9.57484177 C3.55197785,9.57484177 7.9113924e-05,7.69564873 7.9113924e-05,6.0153481 C7.9113924e-05,4.3352057 3.55205696,2.45593354 8.30561709,2.45593354 C13.0591772,2.45593354 16.6112342,4.3352057 16.6112342,6.0153481 C16.6112342,7.69564873 13.0592563,9.57484177 8.30561709,9.57484177 Z M8.30561709,23.8132911 C3.55197785,23.8132911 7.9113924e-05,21.934019 7.9113924e-05,20.2538766 L7.9113924e-05,19.3071994 C0.323734177,19.5260285 0.677848101,19.7327532 1.06265823,19.9251582 C3.01700949,20.9023734 5.58931962,21.4405854 8.30553797,21.4405854 C8.53583861,21.4405854 8.76455696,21.4352848 8.99248418,21.4276108 C9.32420886,22.2477057 9.76700949,23.0113133 10.3024525,23.6994462 C9.66724684,23.772943 8.9994462,23.8132911 8.30561709,23.8132911 Z M8.30561709,19.0671677 C3.55197785,19.0671677 0,17.1878956 0,15.5076741 L0,14.5610759 C0.323655063,14.7798259 0.677848101,14.9865506 1.06273734,15.1789557 C3.01716772,16.1561709 5.58939873,16.6943829 8.30561709,16.6943829 C8.32990506,16.6943829 8.3539557,16.6935127 8.37824367,16.6935127 C8.32950949,17.0821203 8.30419304,17.4780063 8.30419304,17.8797468 C8.30419304,18.2816456 8.32958861,18.677769 8.37824367,19.066693 C8.3539557,19.0667722 8.32998418,19.0671677 8.30561709,19.0671677 Z M8.30561709,14.3208861 C3.55197785,14.3208861 0,12.4417722 0,10.7615506 L0,9.81487342 C0.323655063,10.0337025 0.677848101,10.2403481 1.06273734,10.4328323 C3.01716772,11.4100475 5.58939873,11.9482595 8.30561709,11.9482595 C9.04731013,11.9482595 9.77761076,11.9067247 10.488212,11.8284019 C9.8744462,12.5686709 9.3710443,13.4034019 9.00268987,14.3071203 C8.77333861,14.3161392 8.54106013,14.3208861 8.30561709,14.3208861 Z M11.8657437,13.9464399 C12.9330696,12.3420886 14.6330696,11.1934335 16.6068038,10.8596519 C16.9943038,10.7941456 17.3921677,10.7594937 17.797943,10.7594937 C21.7240506,10.7594937 24.9181962,13.9535601 24.9181962,17.8797468 C24.9181962,21.8058544 21.7240506,25 17.797943,25 C15.9516614,25 14.2673259,24.2935127 13.0008703,23.136788 C12.3914557,22.5802215 11.8790348,21.9192247 11.491693,21.1825949 C11.1225475,20.4806171 10.8672468,19.7100475 10.7503956,18.8950949 C10.7028481,18.5633703 10.6776899,18.2244462 10.6776899,17.8797468 C10.6776899,17.4212816 10.7216772,16.972943 10.8049842,16.5383703 C10.985443,15.5956487 11.3522943,14.7183544 11.8657437,13.9464399 Z" id="profit"></path>
        </g>
    </g>
</svg>