<?xml version="1.0" encoding="UTF-8"?>
<svg width="20px" height="20px" viewBox="0 0 20 20" version="1.1" xmlns="http://www.w3.org/2000/svg" xmlns:xlink="http://www.w3.org/1999/xlink">
    <!-- Generator: Sketch 56 (81588) - https://sketch.com -->
    <title>resend</title>
    <desc>Created with Sketch.</desc>
    <g id="resend" stroke="none" stroke-width="1" fill="none" fill-rule="evenodd">
        <path d="M10,19.9989474 C7.32842105,19.9989474 4.81789474,18.9589474 2.92842105,17.0705263 C1.03894737,15.1821053 0,12.6705263 0,10 C0,9.70947368 0.235789474,9.47368421 0.526315789,9.47368421 C0.816842105,9.47368421 1.05263158,9.70947368 1.05263158,10 C1.05263158,14.9336842 5.06631579,18.9473684 10,18.9473684 C14.9336842,18.9473684 18.9473684,14.9336842 18.9473684,10 C18.9473684,5.06631579 14.9336842,1.05263158 10,1.05263158 C9.70947368,1.05263158 9.47368421,0.816842105 9.47368421,0.526315789 C9.47368421,0.235789474 9.70947368,0 10,0 C12.6715789,0 15.1821053,1.04 17.0705263,2.92947368 C18.9589474,4.81894737 20,7.32947368 20,10.0010526 C20,12.6726316 18.96,15.1831579 17.0715789,17.0715789 C15.1831579,18.96 12.6715789,20 10,20 L10,19.9989474 Z" id="Fill-1708" fill="#31314F"></path>
        <path d="M1.87765306,1.10011001 L7.14982125,1.10011001 C7.45341366,1.10011001 7.6998075,0.853685369 7.6998075,0.550055006 C7.6998075,0.245324532 7.45341366,0 7.14982125,0 L0.54998625,0 C0.24639384,0 0,0.245324532 0,0.550055006 L0,7.15071507 C0,7.45434543 0.24639384,7.70077008 0.54998625,7.70077008 C0.853578661,7.70077008 1.0999725,7.45434543 1.0999725,7.15071507 L1.0999725,1.87788779 L10.0603485,10.8393839 C10.1681458,10.9471947 10.3089423,11 10.4497388,11 C10.5905352,11 10.7313317,10.9460946 10.839129,10.8393839 C11.0536237,10.6248625 11.0536237,10.2750275 10.839129,10.0616062 L1.87765306,1.10011001 Z" id="Fill-1709" fill="#31314F"></path>
    </g>
</svg>