<?xml version="1.0" encoding="UTF-8"?>
<svg width="25px" height="25px" viewBox="0 0 25 25" version="1.1" xmlns="http://www.w3.org/2000/svg" xmlns:xlink="http://www.w3.org/1999/xlink">
    <!-- Generator: Sketch 56 (81588) - https://sketch.com -->
    <title>round-arrows</title>
    <desc>Created with Sketch.</desc>
    <g id="Symbols" stroke="none" stroke-width="1" fill="none" fill-rule="evenodd">
        <g id="web-subscription-icon-enabled" fill="#31314F" fill-rule="nonzero">
            <path d="M12.8051758,16.6666031 L11.6104126,17.8613663 C11.40728,18.0644989 11.40728,18.3948517 11.6104126,18.5979843 C11.7124558,18.6988831 11.8457794,18.75 11.9791031,18.75 C12.1124268,18.75 12.2457504,18.6988831 12.3468399,18.598938 L14.4302368,16.5155411 C14.476933,16.4688448 14.5128947,16.4154357 14.5381219,16.3584001 C14.5672133,16.2934999 14.5833969,16.2215759 14.5833969,16.1458969 C14.5833969,15.9881562 14.5131809,15.8467649 14.4023533,15.7512328 L12.3468399,13.6959076 C12.1437073,13.492775 11.8135452,13.492775 11.6104126,13.6959076 C11.40728,13.8990402 11.40728,14.2292022 11.6104126,14.4323349 L12.8030777,15.625 L8.33339692,15.625 C6.61048887,15.625 5.20839692,14.222908 5.20839692,12.5 C5.20839692,10.777092 6.61048887,9.375 8.33339692,9.375 C8.62083438,9.375 8.85410308,9.14173125 8.85410308,8.85410308 C8.85410308,8.56666563 8.62083438,8.33339692 8.33339692,8.33339692 C6.03542329,8.33339692 4.16660308,10.2020264 4.16660308,12.5 C4.16660308,14.7979736 6.03542329,16.6666031 8.33339692,16.6666031 L12.8051758,16.6666031 Z M12.1948242,9.375 L16.6666031,9.375 C18.3895111,9.375 19.7916031,10.777092 19.7916031,12.5 C19.7916031,14.222908 18.3895111,15.625 16.6666031,15.625 C16.3791656,15.625 16.1458969,15.8582688 16.1458969,16.1458969 C16.1458969,16.4333344 16.3791656,16.6666031 16.6666031,16.6666031 C18.9645767,16.6666031 20.8333969,14.7979736 20.8333969,12.5 C20.8333969,10.2020264 18.9645767,8.33339692 16.6666031,8.33339692 L12.1946914,8.33339692 L13.3886337,7.1395874 C13.5915756,6.93645479 13.5915756,6.60629272 13.3886337,6.40316011 C13.1855011,6.20002744 12.8551483,6.20002744 12.6520157,6.40316011 L10.5688095,8.48636626 C10.4863182,8.56915024 10.4315223,8.67912324 10.4192271,8.80156039 C10.4038539,8.95201936 10.4537393,9.10791413 10.5688095,9.22298433 L12.6520157,11.3061905 C12.7542496,11.40728 12.8875732,11.4583969 13.0208969,11.4583969 C13.1542206,11.4583969 13.2875442,11.40728 13.3886337,11.3052368 C13.5915756,11.1021042 13.5915756,10.7719421 13.3886337,10.5688095 L12.1948242,9.375 Z M25,12.5 C25,19.4036484 19.4036484,25 12.5,25 C5.59635161,25 -1.95399252e-14,19.4036484 -1.95399252e-14,12.5 C-1.95399252e-14,5.59635161 5.59635161,2.13162821e-14 12.5,2.13162821e-14 C19.4036484,2.13162821e-14 25,5.59635161 25,12.5 Z" id="round-arrows"></path>
        </g>
    </g>
</svg>