<?xml version="1.0" encoding="UTF-8"?>
<svg width="17px" height="17px" viewBox="0 0 17 17" version="1.1" xmlns="http://www.w3.org/2000/svg" xmlns:xlink="http://www.w3.org/1999/xlink">
    <!-- Generator: Sketch 56 (81588) - https://sketch.com -->
    <title>Shape</title>
    <desc>Created with Sketch.</desc>
    <g id="Symbols" stroke="none" stroke-width="1" fill="none" fill-rule="evenodd">
        <g id="search" fill="#31314F" fill-rule="nonzero">
            <path d="M10.6548562,12.2419355 C9.5518362,13.0275397 8.20281888,13.4901733 6.74508663,13.4901733 C3.02021173,13.4901733 0,10.4699615 0,6.74508663 C0,3.02021173 3.02021173,0 6.74508663,0 C10.4699615,0 13.4901733,3.02021173 13.4901733,6.74508663 C13.4901733,8.20281888 13.0275397,9.5518362 12.2419355,10.6548562 L16.6738541,15.0867749 C17.1103009,15.5232217 17.1071268,16.2223301 16.6738541,16.6548092 L16.6556027,16.6730606 C16.2239172,17.1047461 15.5200476,17.1063332 15.0875685,16.6730606 L10.6556498,12.2411419 L10.6548562,12.2419355 Z M6.74508663,11.903094 C9.5938938,11.903094 11.903094,9.5938938 11.903094,6.74508663 C11.903094,3.89627945 9.5938938,1.58707921 6.74508663,1.58707921 C3.89627945,1.58707921 1.58707921,3.89627945 1.58707921,6.74508663 C1.58707921,9.5938938 3.89627945,11.903094 6.74508663,11.903094 L6.74508663,11.903094 Z" id="Shape"></path>
        </g>
    </g>
</svg>