<?xml version="1.0" encoding="UTF-8"?>
<svg width="25px" height="25px" viewBox="0 0 25 25" version="1.1" xmlns="http://www.w3.org/2000/svg" xmlns:xlink="http://www.w3.org/1999/xlink">
    <!-- Generator: Sketch 56 (81588) - https://sketch.com -->
    <title>settings-d</title>
    <desc>Created with Sketch.</desc>
    <g id="Symbols" stroke="none" stroke-width="1" fill="none" fill-rule="evenodd">
        <g id="web-settings-icon-enabled" fill="#31314F" fill-rule="nonzero">
            <path d="M24.9217725,11.1120208 C24.8822388,10.7605983 24.4724839,10.4965198 24.1181691,10.4965198 C22.9726225,10.4965198 21.9560953,9.82390572 21.5297827,8.78368395 C21.0942611,7.71825427 21.3750898,6.47571806 22.2288312,5.6925984 C22.4975672,5.44693752 22.5302174,5.03570436 22.3048289,4.75004567 C21.7185212,4.00552854 21.0521229,3.33300745 20.3245171,2.75015583 C20.0395955,2.52151727 19.6215618,2.55332947 19.3744995,2.82689579 C18.6294059,3.65205964 17.291028,3.95874042 16.256827,3.52722931 C15.1805807,3.07451006 14.5019036,1.98396548 14.5683202,0.813332289 C14.59018,0.445631613 14.321444,0.125928293 13.9548505,0.0832329703 C13.0211115,-0.024761081 12.0791867,-0.0281097337 11.1426571,0.0757915198 C10.7802495,0.115789317 10.5115135,0.427958168 10.5236992,0.791007937 C10.5644421,1.95010688 9.87757928,3.02158274 8.81203032,3.45802382 C7.79020096,3.87539618 6.46121816,3.5713199 5.71761289,2.75350449 C5.47185293,2.48412398 5.06060963,2.45100952 4.77429277,2.67416002 C4.02510627,3.2619416 3.34373166,3.9350208 2.75202874,4.67339873 C2.52124507,4.96045269 2.55519752,5.37652279 2.82663112,5.62348593 C3.69665115,6.41134951 3.97757283,7.66467582 3.52558659,8.7423839 C3.09406484,9.76986219 2.02712057,10.4320583 0.805669382,10.4320583 C0.409309354,10.4193148 0.126992366,10.6853466 0.0836448483,11.0456989 C-0.0263052932,11.9848099 -0.0276075792,12.9416875 0.0782496637,13.888426 C0.117504283,14.2413368 0.539723989,14.5030898 0.897945643,14.5030898 C1.98647065,14.4752774 3.03155512,15.1491938 3.46996038,16.2160187 C3.90697033,17.2814484 3.62604865,18.5232405 2.77100491,19.3070113 C2.50357119,19.5526722 2.46961873,19.9632542 2.69500722,20.2489129 C3.27582675,20.9886861 3.94231809,21.6618583 4.67252842,22.2495469 C4.95893831,22.4803248 5.37566981,22.4477685 5.62394132,22.1742022 C6.37182553,21.3469919 7.71011038,21.0408692 8.74021856,21.4732175 C9.81916246,21.9245415 10.4978395,23.0149931 10.4314229,24.1862774 C10.4097491,24.5541641 10.6797874,24.8744255 11.0448926,24.9164697 C11.5225525,24.9721876 12.003096,25 12.4849418,25 C12.9423232,25 13.3997977,24.9748851 13.8571791,24.9240042 C14.2196797,24.8840064 14.4882296,24.5718375 14.476044,24.2081366 C14.4340918,23.0496888 15.1221638,21.978213 16.1863175,21.542516 C17.2150304,21.1223531 18.5384319,21.4298711 19.2821302,22.2468493 C19.5292855,22.5156717 19.9376452,22.5481351 20.2255434,22.3257287 C20.9733346,21.7393424 21.6533139,21.0668213 22.2478074,20.326397 C22.478498,20.0399941 22.4459409,19.6232729 22.173112,19.3764028 C21.303092,18.5885392 21.020775,17.3350269 21.4727612,16.2580629 C21.8976785,15.2442583 22.9249961,14.5635516 24.0299857,14.5635516 L24.1845856,14.5675514 C24.5429933,14.5966661 24.8727507,14.3205883 24.9161913,13.9547479 C25.0263275,13.0147997 25.0276298,12.0587594 24.9217725,11.1120208 Z M12.645874,16.2916667 C10.6353726,16.2916667 9,14.6563123 9,12.6458333 C9,10.6354357 10.6353726,9 12.645874,9 C14.656294,9 16.2916667,10.6354357 16.2916667,12.6458333 C16.2916667,14.6563123 14.656294,16.2916667 12.645874,16.2916667 Z" id="settings-d"></path>
        </g>
    </g>
</svg>