<?xml version="1.0" encoding="UTF-8"?>
<svg width="25px" height="25px" viewBox="0 0 25 25" version="1.1" xmlns="http://www.w3.org/2000/svg" xmlns:xlink="http://www.w3.org/1999/xlink">
    <!-- Generator: Sketch 56 (81588) - https://sketch.com -->
    <title>settings</title>
    <desc>Created with Sketch.</desc>
    <g id="Symbols" stroke="none" stroke-width="1" fill="none" fill-rule="evenodd">
        <g id="web-settings-icon-disabled" fill="#31314F" fill-rule="nonzero">
            <path d="M24.9217725,11.1120208 C25.0276298,12.0587594 25.0263275,13.0147997 24.9161913,13.9547479 C24.8727507,14.3205883 24.5429933,14.5966661 24.1845856,14.5675514 L24.0299857,14.5635516 C22.9249961,14.5635516 21.8976785,15.2442583 21.4727612,16.2580629 C21.020775,17.3350269 21.303092,18.5885392 22.173112,19.3764028 C22.4459409,19.6232729 22.478498,20.0399941 22.2478074,20.326397 C21.6533139,21.0668213 20.9733346,21.7393424 20.2255434,22.3257287 C19.9376452,22.5481351 19.5292855,22.5156717 19.2821302,22.2468493 C18.5384319,21.4298711 17.2150304,21.1223531 16.1863175,21.542516 C15.1221638,21.978213 14.4340918,23.0496888 14.476044,24.2081366 C14.4882296,24.5718375 14.2196797,24.8840064 13.8571791,24.9240042 C13.3997977,24.9748851 12.9423232,25 12.4849418,25 C12.003096,25 11.5225525,24.9721876 11.0448926,24.9164697 C10.6797874,24.8744255 10.4097491,24.5541641 10.4314229,24.1862774 C10.4978395,23.0149931 9.81916246,21.9245415 8.74021856,21.4732175 C7.71011038,21.0408692 6.37182553,21.3469919 5.62394132,22.1742022 C5.37566981,22.4477685 4.95893831,22.4803248 4.67252842,22.2495469 C3.94231809,21.6618583 3.27582675,20.9886861 2.69500722,20.2489129 C2.46961873,19.9632542 2.50357119,19.5526722 2.77100491,19.3070113 C3.62604865,18.5232405 3.90697033,17.2814484 3.46996038,16.2160187 C3.03155512,15.1491938 1.98647065,14.4752774 0.897945643,14.5030898 C0.539723989,14.5030898 0.117504283,14.2413368 0.0782496637,13.888426 C-0.0276075792,12.9416875 -0.0263052932,11.9848099 0.0836448483,11.0456989 C0.126992366,10.6853466 0.409309354,10.4193148 0.805669382,10.4320583 C2.02712057,10.4320583 3.09406484,9.76986219 3.52558659,8.7423839 C3.97757283,7.66467582 3.69665115,6.41134951 2.82663112,5.62348593 C2.55519752,5.37652279 2.52124507,4.96045269 2.75202874,4.67339873 C3.34373166,3.9350208 4.02510627,3.2619416 4.77429277,2.67416002 C5.06060963,2.45100952 5.47185293,2.48412398 5.71761289,2.75350449 C6.46121816,3.5713199 7.79020096,3.87539618 8.81203032,3.45802382 C9.87757928,3.02158274 10.5644421,1.95010688 10.5236992,0.791007937 C10.5115135,0.427958168 10.7802495,0.115789317 11.1426571,0.0757915198 C12.0791867,-0.0281097337 13.0211115,-0.024761081 13.9548505,0.0832329703 C14.321444,0.125928293 14.59018,0.445631613 14.5683202,0.813332289 C14.5019036,1.98396548 15.1805807,3.07451006 16.256827,3.52722931 C17.291028,3.95874042 18.6294059,3.65205964 19.3744995,2.82689579 C19.6215618,2.55332947 20.0395955,2.52151727 20.3245171,2.75015583 C21.0521229,3.33300745 21.7185212,4.00552854 22.3048289,4.75004567 C22.5302174,5.03570436 22.4975672,5.44693752 22.2288312,5.6925984 C21.3750898,6.47571806 21.0942611,7.71825427 21.5297827,8.78368395 C21.9560953,9.82390572 22.9726225,10.4965198 24.1181691,10.4965198 C24.4724839,10.4965198 24.8822388,10.7605983 24.9217725,11.1120208 Z M20.6041335,9.16206674 C20.0463612,7.79757155 20.3482618,6.22725854 21.3489321,5.1576846 C20.9119987,4.6289274 20.4302067,4.14206973 19.911801,3.70522618 C18.8600009,4.68637147 17.2043134,5.0061136 15.869088,4.44899852 C14.4927851,3.87006154 13.5956206,2.52903683 13.5647964,1.04810134 C12.8840518,0.985760976 12.2013301,0.983975073 11.5222841,1.04304599 C11.4626035,2.50710253 10.5560549,3.82431636 9.19015963,4.38377661 C7.86810693,4.923777 6.22515407,4.60188603 5.18014108,3.63085467 C4.64486035,4.07162009 4.15058724,4.559901 3.70674991,5.08659739 C4.72500985,6.16284933 5.02620843,7.74991825 4.44757482,9.12960179 C3.88868664,10.4603469 2.57774896,11.3299139 1.04937232,11.4232013 C0.985144932,12.1105323 0.983599309,12.808169 1.04469332,13.5031807 C2.4955472,13.536275 3.82654562,14.4528587 4.39515625,15.8365288 C4.95525203,17.2020416 4.65282203,18.7732644 3.65111911,19.8420873 C4.08423579,20.3672602 4.56607963,20.8547683 5.08725339,21.2954028 C6.14118643,20.3128643 7.7970033,19.9928312 9.12611875,20.550677 C10.5057983,21.1277992 11.4044458,22.4693292 11.4349897,23.9518278 C11.7834385,23.9839341 12.1336496,24.0000083 12.4849418,24.0000083 C12.8164563,24.0000083 13.1470715,23.9856582 13.4772386,23.9568558 C13.5357995,22.493481 14.4430202,21.1757043 15.8082044,20.6167566 C17.1354223,20.0746736 18.7755535,20.3978122 19.8195483,21.3692061 C20.3528561,20.9301085 20.8465839,20.4421757 21.2928503,19.9131555 C20.2743918,18.836741 19.9721591,17.2495291 20.5504933,15.8715116 C21.1182327,14.5169497 22.4599455,13.6056711 23.9516084,13.5652854 C24.0150046,12.879983 24.0160943,12.1853197 23.9549754,11.4931233 C22.4726756,11.431331 21.1651302,10.5309246 20.6041335,9.16206674 Z M12.645878,16.6458333 C10.4400707,16.6458333 8.64583333,14.8516159 8.64583333,12.6458333 C8.64583333,10.44014 10.4400707,8.64583333 12.645878,8.64583333 C14.8515959,8.64583333 16.6458333,10.44014 16.6458333,12.6458333 C16.6458333,14.8516159 14.8515959,16.6458333 12.645878,16.6458333 Z M12.6458794,15.6458333 C14.2992114,15.6458333 15.6458333,14.2992057 15.6458333,12.6458333 C15.6458333,10.9925175 14.2991757,9.64583333 12.6458794,9.64583333 C10.9925014,9.64583333 9.64583333,10.9925071 9.64583333,12.6458333 C9.64583333,14.299216 10.9924656,15.6458333 12.6458794,15.6458333 Z" id="settings"></path>
        </g>
    </g>
</svg>