<?xml version="1.0" encoding="UTF-8"?>
<svg width="4px" height="8px" viewBox="0 0 4 8" version="1.1" xmlns="http://www.w3.org/2000/svg" xmlns:xlink="http://www.w3.org/1999/xlink">
    <!-- Generator: Sketch 56 (81588) - https://sketch.com -->
    <title>sort-desc</title>
    <desc>Created with Sketch.</desc>
    <g id="Symbols" stroke="none" stroke-width="1" fill="none" fill-rule="evenodd">
        <g id="arrows" transform="translate(-5.000000, -1.000000)" fill="#8155F4" fill-rule="nonzero">
            <path d="M9.41278977,3.360125 C9.31528977,3.262625 9.15678977,3.262625 9.05928977,3.360125 C8.96178977,3.457625 8.96178977,3.616125 9.05928977,3.713625 L10.1322898,4.786625 L3.16328977,4.7865625 C3.02528977,4.7865625 2.91328977,4.8985625 2.91328977,5.0365625 C2.91328977,5.1745625 3.02528977,5.2865625 3.16328977,5.2865625 L10.1322898,5.286625 L9.05928977,6.359625 C8.96178977,6.457125 8.96178977,6.615625 9.05928977,6.713125 C9.10828977,6.762125 9.17228977,6.786125 9.23628977,6.786125 C9.30028977,6.786125 9.36428977,6.761625 9.41328977,6.713125 L10.9132898,5.213125 C11.0107898,5.115625 11.0107898,4.957125 10.9132898,4.859625 L9.41278977,3.360125 Z" id="sort-desc" transform="translate(6.949852, 5.036563) rotate(-270.000000) translate(-6.949852, -5.036563) "></path>
        </g>
    </g>
</svg>