<?xml version="1.0" encoding="UTF-8"?>
<svg width="4px" height="8px" viewBox="0 0 4 8" version="1.1" xmlns="http://www.w3.org/2000/svg" xmlns:xlink="http://www.w3.org/1999/xlink">
    <!-- Generator: Sketch 56 (81588) - https://sketch.com -->
    <title>sort-asc</title>
    <desc>Created with Sketch.</desc>
    <g id="Symbols" stroke="none" stroke-width="1" fill="none" fill-rule="evenodd">
        <g id="arrows" transform="translate(0.000000, -1.000000)" fill="#8155F4" fill-rule="nonzero">
            <path d="M-0.9329375,4.71325 L0.1400625,3.64025 C0.2375625,3.54275 0.2375625,3.38425 0.1400625,3.28675 C0.0425625,3.18925 -0.1159375,3.18925 -0.2134375,3.28675 L-1.7134375,4.78675 C-1.8109375,4.88425 -1.8109375,5.04275 -1.7134375,5.14025 L-0.2134375,6.64025 C-0.1644375,6.68925 -0.1004375,6.71325 -0.0364375,6.71325 C0.0275625,6.71325 0.0915625,6.68875 0.1405625,6.64025 C0.2380625,6.54275 0.2380625,6.38425 0.1405625,6.28675 L-0.9324375,5.21375 L6.0365625,5.2134375 C6.1745625,5.2134375 6.2865625,5.1014375 6.2865625,4.9634375 C6.2865625,4.8254375 6.1745625,4.7134375 6.0365625,4.7134375 L-0.9329375,4.71325 Z" id="sort-asc" transform="translate(2.250000, 4.963437) rotate(-270.000000) translate(-2.250000, -4.963437) "></path>
        </g>
    </g>
</svg>