<?xml version="1.0" encoding="UTF-8"?>
<svg width="9px" height="10px" viewBox="0 0 9 10" version="1.1" xmlns="http://www.w3.org/2000/svg" xmlns:xlink="http://www.w3.org/1999/xlink">
    <!-- Generator: Sketch 56 (81588) - https://sketch.com -->
    <title>sort</title>
    <desc>Created with Sketch.</desc>
    <g id="sort" stroke="none" stroke-width="1" fill="none" fill-rule="evenodd">
        <path d="M9.41278977,3.360125 C9.31528977,3.262625 9.15678977,3.262625 9.05928977,3.360125 C8.96178977,3.457625 8.96178977,3.616125 9.05928977,3.713625 L10.1322898,4.786625 L3.16328977,4.7865625 C3.02528977,4.7865625 2.91328977,4.8985625 2.91328977,5.0365625 C2.91328977,5.1745625 3.02528977,5.2865625 3.16328977,5.2865625 L10.1322898,5.286625 L9.05928977,6.359625 C8.96178977,6.457125 8.96178977,6.615625 9.05928977,6.713125 C9.10828977,6.762125 9.17228977,6.786125 9.23628977,6.786125 C9.30028977,6.786125 9.36428977,6.761625 9.41328977,6.713125 L10.9132898,5.213125 C11.0107898,5.115625 11.0107898,4.957125 10.9132898,4.859625 L9.41278977,3.360125 Z" id="sort-desc" fill="#8155F4" fill-rule="nonzero" transform="translate(6.949852, 5.036563) rotate(-270.000000) translate(-6.949852, -5.036563) "></path>
        <path d="M-0.9329375,4.71325 L0.1400625,3.64025 C0.2375625,3.54275 0.2375625,3.38425 0.1400625,3.28675 C0.0425625,3.18925 -0.1159375,3.18925 -0.2134375,3.28675 L-1.7134375,4.78675 C-1.8109375,4.88425 -1.8109375,5.04275 -1.7134375,5.14025 L-0.2134375,6.64025 C-0.1644375,6.68925 -0.1004375,6.71325 -0.0364375,6.71325 C0.0275625,6.71325 0.0915625,6.68875 0.1405625,6.64025 C0.2380625,6.54275 0.2380625,6.38425 0.1405625,6.28675 L-0.9324375,5.21375 L6.0365625,5.2134375 C6.1745625,5.2134375 6.2865625,5.1014375 6.2865625,4.9634375 C6.2865625,4.8254375 6.1745625,4.7134375 6.0365625,4.7134375 L-0.9329375,4.71325 Z" id="sort-asc" fill="#8155F4" fill-rule="nonzero" transform="translate(2.250000, 4.963437) rotate(-270.000000) translate(-2.250000, -4.963437) "></path>
    </g>
</svg>