<?xml version="1.0" encoding="UTF-8"?>
<svg width="28px" height="28px" viewBox="0 0 28 28" version="1.1" xmlns="http://www.w3.org/2000/svg" xmlns:xlink="http://www.w3.org/1999/xlink">
    <!-- Generator: Sketch 56 (81588) - https://sketch.com -->
    <title>contact</title>
    <desc>Created with Sketch.</desc>
    <g id="Backend-admin-" stroke="none" stroke-width="1" fill="none" fill-rule="evenodd">
        <g id="Dashboard" transform="translate(-615.000000, -2028.000000)" fill="#31314F" fill-rule="nonzero">
            <g id="contact-details-" transform="translate(465.000000, 2010.000000)">
                <g id="row-1" transform="translate(20.000000, 18.000000)">
                    <g id="contacts-blue" transform="translate(130.000000, 0.000000)">
                        <path d="M27.1420552,25.4286385 L25.1494215,27.4220748 C24.793671,27.7773824 23.7519621,27.9991033 23.7185207,27.9991033 C17.4147201,28.0540975 11.3451117,25.5775126 6.88551033,21.1166229 C2.4137018,16.6413691 -0.0652678773,10.548917 0.00130711722,4.22263704 C0.00130711722,4.21976421 0.229447006,3.20770717 0.584889774,2.85558026 L2.57742089,0.862349101 C3.30656582,0.129674795 4.70720523,-0.201418887 5.6883914,0.126904566 L6.1075369,0.266749837 C7.0858508,0.594765486 8.1129932,1.67669387 8.38329384,2.67346335 L9.38561167,6.35294325 C9.6559123,7.35258556 9.29133983,8.77473912 8.56240006,9.50402759 L7.23192598,10.8349688 C8.53819097,15.6717889 12.3325553,19.4676184 17.1692441,20.7773212 L18.4992053,19.4460722 C19.2317354,18.7133978 20.6530961,18.3490614 21.6503875,18.6190049 L25.3286303,19.625111 C26.3254087,19.8990559 27.406919,20.9199367 27.7347675,21.8981353 L27.8745853,22.3234168 C28.1995615,23.3020259 27.8710975,24.7026332 27.1420552,25.4286385 Z" id="phone"></path>
                    </g>
                </g>
            </g>
        </g>
    </g>
</svg>