<?xml version="1.0" encoding="UTF-8"?>
<svg width="24px" height="24px" viewBox="0 0 24 24" version="1.1" xmlns="http://www.w3.org/2000/svg" xmlns:xlink="http://www.w3.org/1999/xlink">
    <!-- Generator: Sketch 56 (81588) - https://sketch.com -->
    <title>uncheck</title>
    <desc>Created with Sketch.</desc>
    <g id="Backend-admin-" stroke="none" stroke-width="1" fill="none" fill-rule="evenodd">
        <g id="SaaS-Service" transform="translate(-747.000000, -443.000000)" fill="#748FB2" fill-rule="nonzero">
            <g id="info-block" transform="translate(108.000000, 431.000000)">
                <g id="sepparators" transform="translate(13.000000, 12.000000)">
                    <g id="Select-" transform="translate(626.000000, 0.000000)">
                        <path d="M12,23.5 C18.3512746,23.5 23.5,18.3512746 23.5,12 C23.5,5.64872538 18.3512746,0.5 12,0.5 C5.64872538,0.5 0.5,5.64872538 0.5,12 C0.5,18.3512746 5.64872538,23.5 12,23.5 Z M12,22.5 C6.20101013,22.5 1.5,17.7989899 1.5,12 C1.5,6.20101013 6.20101013,1.5 12,1.5 C17.7989899,1.5 22.5,6.20101013 22.5,12 C22.5,17.7989899 17.7989899,22.5 12,22.5 Z" id="uncheck"></path>
                    </g>
                </g>
            </g>
        </g>
    </g>
</svg>