<?xml version="1.0" encoding="UTF-8"?>
<svg width="25px" height="25px" viewBox="0 0 25 25" version="1.1" xmlns="http://www.w3.org/2000/svg" xmlns:xlink="http://www.w3.org/1999/xlink">
    <!-- Generator: Sketch 56 (81588) - https://sketch.com -->
    <title>user</title>
    <desc>Created with Sketch.</desc>
    <g id="Symbols" stroke="none" stroke-width="1" fill="none" fill-rule="evenodd">
        <g id="admin-blue" fill="#31314F" fill-rule="nonzero">
            <path d="M18.3283633,15.5039302 L17.9170023,15.3802318 C17.2593571,15.1942577 16.5712593,15.0372887 15.8540401,14.9210975 C18.1075396,13.2567143 19.6416566,10.1238178 19.6416566,7.32243309 C19.6416566,4.1567779 17.671883,1.48625753 14.928977,0.463911633 C14.4265352,0.293065667 14.0380276,0.182049913 13.7634541,0.13086437 C13.3515939,0.0540860565 12.9325781,0 12.4999168,0 C12.0672555,0 11.6482397,0.0551097674 11.2363795,0.13086437 C10.961806,0.181367439 10.573021,0.292383193 10.0700246,0.463911633 C7.32661932,1.48625753 5.35717852,4.15780162 5.35717852,7.32243309 C5.35717852,10.1238178 6.89179475,13.2567143 9.14429586,14.9210975 C8.5651954,15.0156201 8.00689595,15.1372711 7.46640219,15.2763252 L6.31169583,15.6141497 C2.54288339,16.8741672 0,19.2459346 0,21.9690054 C0,22.7606752 0.966831522,23.3963996 2.50893612,23.8785674 L3.68427709,24.1921642 C4.57439444,24.3938352 5.58316082,24.5600176 6.67147032,24.6866165 L7.08233211,24.7313186 C8.15533205,24.8444386 9.29073506,24.9224112 10.4545939,24.9640422 L10.8634588,24.9773504 C11.951269,25.0075499 13.0485646,25.0075499 14.1363748,24.9773504 L14.5467374,24.9640422 C15.5721446,24.9275298 16.5752531,24.8620123 17.5359275,24.7685134 L18.7135982,24.637649 C19.8128906,24.4974006 20.8211578,24.3185925 21.6996266,24.0984946 L22.1121525,23.9904931 C23.8742487,23.4968939 25,22.8248277 25,21.9686642 C24.9996672,19.1597723 22.2923725,16.7308476 18.3283633,15.5039302 Z" id="phone"></path>
        </g>
    </g>
</svg>