<?xml version="1.0" encoding="UTF-8"?>
<svg width="25px" height="25px" viewBox="0 0 25 25" version="1.1" xmlns="http://www.w3.org/2000/svg" xmlns:xlink="http://www.w3.org/1999/xlink">
    <!-- Generator: Sketch 56 (81588) - https://sketch.com -->
    <title>web-transactions</title>
    <desc>Created with Sketch.</desc>
    <g id="web-transactions" stroke="none" stroke-width="1" fill="none" fill-rule="evenodd">
        <path d="M19.7297916,19.954541 C19.7121412,17.4989702 18.1188526,15.4119857 15.9121988,14.6561114 C16.6952357,13.8272883 17.1753086,12.7092054 17.1753086,11.4790123 C17.1753086,8.92367372 15.1035519,6.85216049 12.5481481,6.85216049 C9.99271186,6.85216049 7.92037037,8.92401489 7.92037037,11.479321 C7.92037037,12.7093476 8.40055549,13.8272947 9.18367177,14.6560496 C6.97704149,15.4118285 5.3835074,17.4986923 5.36497811,19.954541 L1.54047852,19.954541 C0.691015625,19.954541 0,19.2635254 0,18.4141113 L0,3.54042969 C0,2.69101563 0.691015625,2 1.54047852,2 L23.4595215,2 C24.3089844,2 25,2.69101563 25,3.54042969 L25,18.4141113 C25,19.2635254 24.3089355,19.954541 23.4595215,19.954541 L19.7297916,19.954541 Z" id="Combined-Shape" fill="#31314F" fill-rule="nonzero"></path>
        <path d="M6.36481481,19.9978395 L6.36481481,23.7617284 L6.37438272,23.820679 L6.63364198,23.9018519 C9.07746914,24.6654321 11.2006173,24.9200617 12.9481481,24.9200617 C16.3614198,24.9200617 18.3398148,23.9469136 18.4617284,23.8848765 L18.7040123,23.7623457 L18.7300044,23.7623457 L18.7300044,19.9978395 C18.7307575,17.732354 17.1003205,15.8403206 14.9511652,15.4340634 C14.0101912,15.2176154 13.049878,15.2176154 12.5,15.2055582 C11.9646073,15.1938185 11.0119387,15.2176154 10.2143137,15.4091902 C10.1900445,15.4150192 10.1679354,15.4255086 10.144845,15.4340005 C7.99551448,15.8401254 6.36481481,17.7322371 6.36481481,19.9978395 Z" id="Path" fill="#31314F" fill-rule="nonzero"></path>
        <path d="M11.0175412,14.5550131 L14.0069546,14.5550131 C14.2192867,14.5550131 14.2192867,14.5550131 14.7149813,14.388104 C15.6013886,13.7267869 16.1753086,12.6698806 16.1753086,11.4790123 C16.1753086,9.47592593 14.5512346,7.85216049 12.5481481,7.85216049 C10.5450617,7.85216049 8.92037037,9.47623457 8.92037037,11.479321 C8.92037037,12.670101 9.49453251,13.7268298 10.3810284,14.3880681 C10.8053234,14.5550131 10.8053234,14.5550131 11.0175412,14.5550131 Z" id="Path" fill="#31314F" fill-rule="nonzero"></path>
    </g>
</svg>