<?xml version="1.0" encoding="UTF-8"?>
<svg width="25px" height="25px" viewBox="0 0 25 25" version="1.1" xmlns="http://www.w3.org/2000/svg" xmlns:xlink="http://www.w3.org/1999/xlink">
    <!-- Generator: Sketch 56 (81588) - https://sketch.com -->
    <title>world</title>
    <desc>Created with Sketch.</desc>
    <g id="Symbols" stroke="none" stroke-width="1" fill="none" fill-rule="evenodd">
        <g id="map-blue" fill="#31314F" fill-rule="nonzero">
            <path d="M22.2090933,8.88602669 L22.4309901,9.04199817 L22.6379088,9.04199817 L22.6379088,8.65179775 L23.2902854,8.58984392 L23.9099321,9.04199817 L24.4046737,9.10612582 L24.4762354,9.04199817 C24.3741629,8.70559976 24.2749481,8.37518311 24.1482697,8.04605103 L23.9898149,7.99802183 L23.656415,7.63934177 L23.592065,7.0627364 L23.2503439,7.24533716 L23.0672791,7.95019782 L22.5741135,7.43608974 L22.5541428,6.95024129 L22.0781742,6.54862832 L21.9028758,6.37744011 L21.3509076,6.37744011 L21.5245418,6.85948437 L22.1891226,7.22251206 L22.3045089,7.34261554 L22.160276,7.41326464 L22.1669329,7.79531325 L21.8429637,7.92791618 L21.5667022,7.86867962 L21.3936227,7.62901613 L21.8435184,7.65238468 L21.9650069,7.49206556 L20.9692451,6.833942 L20.8926907,6.55351941 L20.4882839,6.91219947 L20.0783296,6.82959437 L19.4542449,7.62466849 L19.3310922,7.936068 L18.931678,7.97139255 L18.3408778,7.97519673 L17.9875072,7.81324725 L17.8832157,7.12577714 L18.0102516,6.798074 L18.6115919,6.66927525 L19.2672969,6.798074 L19.3477344,6.44265467 L19.069254,6.37798357 L19.1641149,5.8242033 L19.8242578,5.72312073 L20.285803,5.08456154 L20.7623264,5.00630407 L21.1922514,5.06880136 L21.3509076,5.06880136 L21.2632583,4.46882744 L20.7406914,4.6753402 L20.5565171,4.22699013 L20.2530733,4.18568758 L20.1959349,3.87863571 L20.4433498,3.61451676 L20.8743842,3.65310204 L21.0258288,3.38789618 C18.7613722,1.34708802 15.9854436,0 12.7590645,0 C9.95928194,0 7.5272933,0.728744728 5.1857276,2.3575062 L5.90633737,2.38902656 L6.19313895,2.54445459 L6.7334576,2.65858006 L6.77561798,2.86672319 L7.63491324,2.8977001 L7.51841743,2.62760315 L6.75509253,2.60640842 L6.93482892,2.44065475 L6.87214308,2.24283727 L6.18204411,2.24283727 L6.93482892,1.69231773 L7.65599343,1.69231773 L7.99494075,2.14990653 L8.55744907,2.18088344 L8.8963964,1.85861484 L9.15102294,1.98306595 L8.68393024,2.42978566 C8.68393024,2.42978566 8.03765588,2.44119821 8.06927617,2.44119821 C8.10089646,2.44119821 8.1225314,2.87704882 8.1225314,2.87704882 L8.90638175,2.85585409 L8.99125727,2.64879788 L9.53157591,2.61727751 L9.59537123,2.30587801 L9.27750411,2.25316291 L9.38345981,1.97274032 L9.62699152,1.90046085 L10.4751919,1.9417634 L10.0075445,2.3575062 L10.0829894,2.67923134 L10.5706076,2.75205426 L10.5389873,2.1705578 L11.0055252,1.93143776 L11.8326455,1.83796357 L13.0303333,2.3575062 L13.0303333,2.8042259 L13.4119957,2.8977001 L13.2206098,3.25094561 L12.6797364,3.25094561 L12.519416,3.65581931 L11.2851152,3.37050563 L12.2564683,2.86346246 L11.8864554,2.55532368 L11.0487951,2.65912352 L10.9755692,2.7335768 L10.9727955,2.73248989 L10.9600364,2.74988044 L10.7187236,2.99552193 L10.3198642,3.02758576 L10.3514845,3.22214252 L10.4907247,3.2786618 L10.4851773,3.34278944 L10.1606533,3.38789618 L10.1367994,3.5721273 L9.82669862,3.58788748 L9.77066968,3.22159906 L9.21426352,3.38735272 L8.07704256,4.03949828 L8.2046332,4.49871745 L8.52250033,4.70196948 L9.15823459,4.78783531 L9.15823459,5.4959567 L9.45224781,5.44976305 L9.72296188,4.89652624 L10.3991923,4.68675275 L10.3991923,3.83733316 L10.7753073,3.55908439 L11.6845294,3.76940133 L11.620734,4.33078997 L11.8648205,4.33078997 L12.5332845,4.00906482 L12.5654595,4.7459893 L13.0519682,5.03673753 L13.0314428,5.47367506 L12.5654595,5.62910308 L12.5970798,5.77366201 L13.1590334,6.0241946 L13.1473838,6.32526847 L12.9848445,6.33885483 C12.9842897,6.33396374 12.9831802,6.33070301 12.9831802,6.33070301 L12.27422,6.11658189 L12.244264,5.89376549 L12.4511827,5.75409765 L12.4511827,5.55084562 L12.2281765,5.4959567 L12.1727023,5.68344855 L11.7816092,5.7426851 L11.7427773,5.73018564 L11.7427773,5.74920656 L11.6074202,5.76931438 L11.4970266,5.55084562 L11.3694359,5.4959567 L11.0909555,5.4959567 L10.9644743,5.59812617 L10.9644743,5.8242033 L11.2024586,5.90191731 L11.4376692,5.93452459 L11.3849687,5.95734968 L11.1702836,6.19049172 L11.0759775,6.07419243 L10.868504,6.02039042 L10.3032219,6.54101996 L10.3770026,6.60025651 L9.54267075,7.05295422 L8.75771091,7.85291944 L8.70390095,8.20888222 L7.91727688,8.71538194 L7.5272933,9.09960437 L7.57056317,9.86804922 L7.02968979,9.62132081 L7.03357298,9.17188383 L5.52855811,9.17242729 L4.7491457,9.55882353 L4.41075312,10.17021 L4.27650557,10.6549715 L4.49562863,11.1250598 L5.10972795,11.1984262 L6.08551902,10.5593235 L6.17094927,10.8761576 L5.87305286,11.4272206 L6.61585231,11.5516717 L6.69018772,12.6755358 L7.70813917,12.8450937 L8.35496827,12.1125168 L9.13992811,12.2690318 L9.41563485,12.6445589 L10.1684197,12.6010826 L10.1894998,12.3831573 L10.6033373,12.5798878 L11.0698753,13.296161 L11.8753606,13.3070301 L12.1727023,13.8167906 L12.2148626,14.4395896 L13.1057782,14.7716404 L14.2296854,14.7830529 L14.5586473,15.3118343 L15.0568056,15.4683492 L14.96139,15.9058302 L14.4155239,16.5851485 L14.256313,18.0899743 L13.7631474,18.4714795 L13.0319975,18.4502848 L12.7884658,18.8654841 L12.9693117,19.645885 L12.173257,20.6425808 L11.9191852,21.1001696 L11.160853,21.4566758 L10.66214,21.5311291 L10.6416145,21.7381853 L10.9916567,21.8365506 L10.9494963,22.0599104 L10.6360671,22.3555498 L10.8263436,22.5908656 L11.2035681,22.6011913 L11.1824879,22.8859615 L11.0820796,23.1669275 L11.0499046,23.3951785 L11.607975,23.8554845 L11.5336396,24.0946046 L10.7741978,24.0804748 L10.0186393,23.4348507 L9.43005814,22.4213078 L9.51215994,21.4430894 L9.06670217,20.8610495 L9.2469933,19.8746794 L8.9823814,19.8023999 L8.9823814,17.6622756 C8.9823814,17.6622756 8.24013669,17.1112126 8.19742156,17.1112126 C8.15470643,17.1112126 7.80466427,17.0177384 7.80466427,17.0177384 L7.73032885,16.6134081 L6.76563263,15.428677 L6.86104824,15.003152 L6.89266853,14.3069867 L7.56057782,13.8493979 L7.46516221,13.0700839 L6.48992589,12.9983479 L5.72660099,12.146211 L5.1857276,11.9994783 L4.83624018,11.9364375 L4.87840057,11.625038 L4.4329428,11.5630842 L4.4329428,11.739707 L3.31902099,11.4674362 L2.87078951,10.7957263 L3.05329961,10.4701969 L2.34822261,9.4620886 L2.22728887,8.72462067 L1.94104203,8.72462067 L2.0359029,9.44089387 L2.52352106,10.1783618 L2.47026583,10.4696535 L2.05698309,10.4071562 L1.54828474,9.55773662 L1.54828474,8.56919264 L1.01795145,8.31974697 L1.01795145,7.60836485 C0.363355967,9.11156037 0,10.7647494 0,12.5 C0,19.3926351 5.72382728,25 12.7596192,25 C16.7482137,25 20.5565171,22.5431793 22.4309901,20.0277985 L22.009941,20.0277985 L22.2346115,19.5486066 L21.747548,18.9062432 L21.747548,17.9068301 L21.3758709,17.5438024 L21.3431412,17.1280596 L21.8157813,16.2449459 L20.9209826,14.6966436 L21.0258288,13.6461458 L20.2203435,13.5646276 L19.9235566,13.2738794 L19.3821284,13.2738794 L19.1069764,13.5227816 L18.1522656,13.5227816 L18.1200905,13.6059302 L17.5892025,13.6059302 L16.3709892,12.2456632 L16.3809746,11.1859267 L16.5823459,11.1136472 L16.6572361,10.7082301 L16.3709892,10.7082301 L16.2539387,10.2827051 L17.6635379,9.2860093 L17.6635379,8.57951828 L18.3536369,8.20399113 L18.6332268,8.23116386 L19.2007278,8.23116386 L19.6450761,7.99747837 L21.076865,7.88824399 L21.076865,8.60506065 L22.2090933,8.88602669 Z M18.7463942,4.25307595 L19.1657791,4.16992739 L19.2706253,4.66881875 L19.4936316,5.0215208 L19.6417477,5.18836138 L19.911907,5.29161776 L19.6572804,5.58834399 L19.1641149,5.63453763 L18.7935472,5.63453763 L18.8351529,5.20357811 L19.1435894,5.14108082 L19.1175165,4.93837224 L18.8301602,4.76174949 L18.6293436,4.62697274 L18.6298984,4.42915525 L18.7463942,4.25307595 Z M18.1960902,4.80848659 L18.5394754,4.73022912 L18.7835619,4.83402896 L18.7613722,5.10412591 L18.2365863,5.46769706 L17.9403541,5.46769706 L17.9403541,5.2084692 L18.1960902,4.80848659 Z M11.0088537,6.74590235 L10.7431323,6.76764054 L10.7575556,6.58667014 L10.8762704,6.44156776 L11.036036,6.5643885 L11.0088537,6.74590235 Z M11.9402654,6.42635103 L11.7588648,6.44156776 L11.7222518,6.61329942 L11.5824568,6.6986218 L11.3583411,6.71709926 C11.3505747,6.66547107 11.3461368,6.62634233 11.3461368,6.62634233 L11.2590423,6.62634233 L11.2590423,6.44156776 L11.6246172,6.44156776 L11.7000621,6.25081518 L11.8454045,6.24809791 L12.0112724,6.2817921 L11.9402654,6.42635103 Z" id="world"></path>
        </g>
    </g>
</svg>