<?xml version="1.0" encoding="UTF-8"?>
<svg width="20px" height="20px" viewBox="0 0 20 20" version="1.1" xmlns="http://www.w3.org/2000/svg" xmlns:xlink="http://www.w3.org/1999/xlink">
    <!-- Generator: Sketch 56 (81588) - https://sketch.com -->
    <title>add</title>
    <desc>Created with Sketch.</desc>
    <g id="add" stroke="none" stroke-width="1" fill="none" fill-rule="evenodd">
        <path d="M10,19 C5.03729412,19 1,14.9627059 1,10 C1,5.03623529 5.03729412,1 10,1 C14.9627059,1 19,5.03623529 19,10 C19,14.9627059 14.9627059,19 10,19 M17.0715789,2.92857519 C15.1831579,1.04005474 12.6715789,0 10,0 C7.32842105,0 4.81789474,1.04005474 2.92842105,2.92857519 C1.03894737,4.81709564 0,7.32880678 0,9.99947366 C0,12.6701405 1.04,15.1818517 2.92842105,17.0714248 C4.81684211,18.9609979 7.32842105,20 10,20 C12.6715789,20 15.1821053,18.9599453 17.0715789,17.0714248 C18.9610526,15.1829044 20,12.6711932 20,9.99947366 C20,7.32775409 18.96,4.81709564 17.0715789,2.92857519" id="Fill-3204" fill="#31314F"></path>
        <path d="M16.4615385,9.46153846 L10.5384615,9.46153846 L10.5384615,3.53846154 C10.5384615,3.24123077 10.2972308,3 10,3 C9.70276923,3 9.46153846,3.24123077 9.46153846,3.53846154 L9.46153846,9.46153846 L3.53846154,9.46153846 C3.24123077,9.46153846 3,9.70276923 3,10 C3,10.2972308 3.24123077,10.5384615 3.53846154,10.5384615 L9.46153846,10.5384615 L9.46153846,16.4615385 C9.46153846,16.7576923 9.70276923,17 10,17 C10.2972308,17 10.5384615,16.7576923 10.5384615,16.4615385 L10.5384615,10.5384615 L16.4615385,10.5384615 C16.7587692,10.5384615 17,10.2972308 17,10 C17,9.70276923 16.7587692,9.46153846 16.4615385,9.46153846" id="Fill-3205" fill="#31314F"></path>
    </g>
</svg>