<?xml version="1.0" encoding="UTF-8"?>
<svg width="28px" height="28px" viewBox="0 0 28 28" version="1.1" xmlns="http://www.w3.org/2000/svg" xmlns:xlink="http://www.w3.org/1999/xlink">
    <!-- Generator: Sketch 56 (81588) - https://sketch.com -->
    <title>bank</title>
    <desc>Created with Sketch.</desc>
    <g id="Backend-admin-" stroke="none" stroke-width="1" fill="none" fill-rule="evenodd">
        <g id="Dashboard---activity-details" transform="translate(-617.000000, -1524.000000)" fill="#31314F">
            <g id="banks-blue" transform="translate(617.000000, 1524.000000)">
                <path d="M26.7156029,25.453814 C27.4173746,25.453814 27.9868939,26.0236065 27.9874896,26.727503 C27.9874896,27.4302074 27.4179703,28 26.7150072,28 L1.27250663,28 C0.569543472,28 2.41662395e-05,27.4302074 2.41662395e-05,26.727503 C2.41662395e-05,26.0236065 0.569543472,25.453814 1.27250663,25.453814 L26.7156029,25.453814 Z M2.86251398,22.1441298 L2.86251398,22.1435337 L3.1806346,22.1435337 L3.1806346,10.6886767 L2.86251398,10.6886767 C2.51162813,10.6886767 2.22686848,10.4037805 2.22686848,10.0527262 C2.22686848,9.70167204 2.5110324,9.41677576 2.86251398,9.41677576 L25.1249998,9.41677576 C25.4758857,9.41677576 25.7606453,9.70167204 25.7606453,10.0527262 C25.7606453,10.4037805 25.4770771,10.6886767 25.1249998,10.6886767 L24.8074749,10.6886767 L24.8074749,22.1441298 L25.1249998,22.1441298 C25.827963,22.1441298 26.3974823,22.7139223 26.3974823,23.4172228 C26.3974823,24.1205232 25.827963,24.6909118 25.1249998,24.6909118 L2.86251398,24.6909118 C2.15955082,24.6909118 1.59003152,24.1205232 1.59003152,23.4172228 C1.59003152,22.7139223 2.15955082,22.1441298 2.86251398,22.1441298 Z M22.26251,10.6886767 L18.4462541,10.6886767 L18.4462541,22.1435337 L22.26251,22.1435337 L22.26251,10.6886767 Z M15.9012891,10.6886767 L12.0850332,10.6886767 L12.0850332,22.1435337 L15.9012891,22.1435337 L15.9012891,10.6886767 Z M5.72440807,10.6886767 L5.72440807,22.1435337 L9.540664,22.1435337 L9.540664,10.6886767 L5.72440807,10.6886767 Z M1.27250663,8.27242249 C0.67260502,8.27242249 0.154318623,7.85342231 0.0286192778,7.26694126 C-0.0976757984,6.68046021 0.203168605,6.08563492 0.750645846,5.83888374 L13.4730876,0.111753249 C13.8055058,-0.0372510829 14.1849867,-0.0372510829 14.5168092,0.111753249 L27.1403595,5.79477846 C27.6401782,5.96643145 28,6.44026523 28,6.99932948 C28,7.70262993 27.4310764,8.27242249 26.7275175,8.27242249 C26.7239431,8.27242249 26.7191773,8.27242249 26.7150072,8.27242249 L1.27250663,8.27242249 Z" id="Combined-Shape"></path>
            </g>
        </g>
    </g>
</svg>