<?xml version="1.0" encoding="UTF-8"?>
<svg width="25px" height="17px" viewBox="0 0 25 17" version="1.1" xmlns="http://www.w3.org/2000/svg" xmlns:xlink="http://www.w3.org/1999/xlink">
    <!-- Generator: Sketch 56 (81588) - https://sketch.com -->
    <title>cloud</title>
    <desc>Created with Sketch.</desc>
    <g id="Symbols" stroke="none" stroke-width="1" fill="none" fill-rule="evenodd">
        <g id="web-SaaS-icon-disabled" transform="translate(0.000000, -4.000000)" fill="#31314F" fill-rule="nonzero">
            <path d="M21.24,10.7475 C23.4054167,11.3166667 25,13.3679167 25,15.655 C25,18.4183333 22.7516667,20.6666667 19.9883333,20.6666667 L15.90375,20.6666667 C15.86,20.6666667 15.8175,20.6641667 15.775,20.6608333 L15.7191667,20.6575 L15.6933333,20.6608333 C15.65,20.6641667 15.6070833,20.6666667 15.56375,20.6666667 L5.35208333,20.6666667 C2.40083333,20.6666667 -1.95399252e-14,18.2654167 -1.95399252e-14,15.3141667 C-1.95399252e-14,13.3329167 1.19041667,11.35375 2.92333333,10.40875 L2.92333333,10.4070833 C2.92,10.355 2.91666667,10.3029167 2.91666667,10.25 C2.91666667,8.18208333 4.59875,6.5 6.66666667,6.5 C6.80875,6.5 6.94875,6.50958333 7.08708333,6.525 C7.12958333,6.52958333 7.17083333,6.53791667 7.21291667,6.54416667 C7.30958333,6.55875 7.40541667,6.575 7.49916667,6.59625 C7.5475,6.60708333 7.595,6.62041667 7.64291667,6.63333333 C7.73041667,6.65708333 7.81625,6.68333333 7.90083333,6.71291667 C7.94875,6.72958333 7.99625,6.74666667 8.04375,6.76541667 C8.12916667,6.79958333 8.21291667,6.8375 8.29541667,6.8775 C8.32708333,6.8925 8.36,6.90375 8.39125,6.92 C9.74875,5.10958333 11.9395833,4 14.2020833,4 C17.9283333,4 21.0195833,6.9975 21.24,10.7475 Z M19.9883333,19.8333333 C22.2920833,19.8333333 24.1666667,17.95875 24.1666667,15.655 C24.1666667,13.6504167 22.7041667,11.8633333 20.7641667,11.4945833 C20.7075,11.4866667 19.7404167,11.355 18.8125,11.4954167 C18.7916667,11.49875 18.7704167,11.5004167 18.7495833,11.5004167 C18.5470833,11.5004167 18.3695833,11.3525 18.3383333,11.14625 C18.30375,10.91875 18.46,10.70625 18.6875,10.6716667 C19.3254167,10.5745833 19.9629167,10.59 20.38875,10.62 C20.1091667,7.38958333 17.4291667,4.83333333 14.2020833,4.83333333 C12.245,4.83333333 10.2779167,5.82458333 9.08333333,7.38708333 C9.8975,8.07541667 10.4166667,9.1025 10.4166667,10.25 C10.4166667,10.4804167 10.2304167,10.6666667 10,10.6666667 C9.76958333,10.6666667 9.58333333,10.4804167 9.58333333,10.25 C9.58333333,9.22416667 9.04958333,8.32208333 8.24666667,7.80208333 C8.15208333,7.74083333 8.05416667,7.68666667 7.95416667,7.63708333 C7.925,7.62291667 7.89625,7.60833333 7.86666667,7.595 C7.75333333,7.54333333 7.6375,7.4975 7.51875,7.46125 C7.50416667,7.45708333 7.48916667,7.45416667 7.47458333,7.45 C7.36666667,7.41875 7.25708333,7.39458333 7.14583333,7.37625 C7.11375,7.37083333 7.08125,7.36541667 7.04875,7.36125 C6.9225,7.34458333 6.79541667,7.33333333 6.66666667,7.33333333 C5.05875,7.33333333 3.75,8.64208333 3.75,10.25 C3.75,10.2841667 3.7525,10.3179167 3.755,10.3516667 L3.76,10.4391667 L3.75625,10.5058333 C3.75333333,10.56 3.75,10.61375 3.75,10.6666667 L3.75,10.9291667 L3.51375,11.0420833 C1.96041667,11.7866667 0.833333333,13.5833333 0.833333333,15.3141667 C0.833333333,17.80625 2.86041667,19.8333333 5.35208333,19.8333333 L15.56375,19.8333333 C15.5879167,19.8333333 15.6120833,19.83125 15.6358333,19.8295833 L15.7183333,19.825 L15.83125,19.8295833 C15.8554167,19.83125 15.8791667,19.8333333 15.90375,19.8333333 L19.9883333,19.8333333 Z M6.62844248,15.6340339 C6.40515902,15.5921683 6.20048558,15.5363482 6.01441603,15.4665721 C5.82834648,15.3967961 5.6678639,15.3084144 5.53296348,15.2014244 C5.39806305,15.0944344 5.29281904,14.9682578 5.21722829,14.822891 C5.14163753,14.6775242 5.10384272,14.5083197 5.10384272,14.3152726 C5.10384272,14.1198995 5.14454482,13.9419732 5.22595025,13.7814882 C5.30735568,13.6210032 5.41608844,13.4826161 5.5521518,13.3663226 C5.68821516,13.2500291 5.84637191,13.159903 6.02662678,13.0959416 C6.20688166,13.0319802 6.3946928,13 6.59006582,13 C6.72729212,13 6.86277198,13.013955 6.99650947,13.0418654 C7.13024696,13.0697759 7.25642348,13.1110594 7.37504281,13.1657174 C7.49366215,13.2203753 7.60181346,13.2889874 7.69949997,13.3715558 C7.79718648,13.4541241 7.87742777,13.5489019 7.94022625,13.6558919 C7.96115907,13.6907799 7.9733697,13.7268304 7.97685851,13.7640443 C7.98034731,13.8012582 7.97802148,13.8373086 7.96988093,13.8721967 C7.96174039,13.9070847 7.9489483,13.9402278 7.93150428,13.9716271 C7.91406026,14.0030263 7.89370921,14.029192 7.87045052,14.0501248 C7.84486595,14.0757093 7.81346719,14.0966418 7.77625328,14.1129229 C7.73903937,14.129204 7.69950018,14.1390888 7.65763453,14.1425776 C7.61576888,14.1460664 7.57274094,14.1425777 7.52854943,14.1321113 C7.48435791,14.1216448 7.44132997,14.1024567 7.39946432,14.0745463 C7.33666585,14.0210513 7.27735707,13.9745346 7.2215362,13.9349948 C7.16571534,13.895455 7.10756948,13.8623119 7.04709687,13.8355644 C6.98662427,13.8088169 6.92091944,13.7890473 6.84998043,13.776255 C6.77904141,13.7634627 6.69705575,13.7570667 6.60402097,13.7570667 C6.49935685,13.7570667 6.4016718,13.7698588 6.31096289,13.7954434 C6.22025399,13.8210279 6.14175707,13.8582413 6.0754698,13.9070845 C6.00918252,13.9559278 5.95685124,14.0140736 5.9184744,14.0815239 C5.88009755,14.1489741 5.86090942,14.2245637 5.86090942,14.308295 C5.86090942,14.4059815 5.8864936,14.4862228 5.93766272,14.5490213 C5.98883185,14.6118197 6.0597698,14.6647325 6.15047871,14.7077611 C6.24118761,14.7507896 6.34759454,14.7868401 6.46970268,14.8159134 C6.59181083,14.8449868 6.72380193,14.8746412 6.86567997,14.9048775 C7.02849082,14.9467431 7.18722903,14.998493 7.34189934,15.0601285 C7.49656966,15.121764 7.63437535,15.2014239 7.75532056,15.2991104 C7.87626576,15.3967969 7.97336935,15.5159959 8.04663424,15.656711 C8.11989913,15.7974261 8.15653102,15.9654677 8.15653102,16.1608407 C8.15653102,16.3562137 8.11582892,16.5376288 8.03442349,16.7050914 C7.95301806,16.872554 7.84195946,17.0185001 7.70124436,17.1429341 C7.56052927,17.2673681 7.3942321,17.3644717 7.20234788,17.4342478 C7.01046365,17.5040239 6.80404584,17.5389114 6.58308825,17.5389114 C6.40632218,17.5389114 6.23769918,17.5162345 6.07721419,17.4708801 C5.9167292,17.4255256 5.76962017,17.363891 5.63588268,17.2859744 C5.50214519,17.2080577 5.38527201,17.1161873 5.28525962,17.0103602 C5.18524724,16.9045332 5.10733179,16.7923117 5.05151092,16.6736923 C5.02127462,16.6132197 5.00441232,16.5562368 5.00092351,16.5027418 C4.99743471,16.4492468 5.00383076,16.4004043 5.02011184,16.3562127 C5.03639293,16.3120212 5.06023273,16.2730635 5.09163197,16.2393384 C5.1230312,16.2056133 5.15850018,16.1782847 5.19803996,16.1573519 C5.2934006,16.1061828 5.38236377,16.0951351 5.46493214,16.1242084 C5.5475005,16.1532818 5.631812,16.2236383 5.71786917,16.33528 C5.81555568,16.477158 5.93882491,16.5870537 6.08768055,16.6649704 C6.23653619,16.742887 6.41097378,16.7818447 6.61099854,16.7818447 C6.70868506,16.7818447 6.80462573,16.7690526 6.89882344,16.7434681 C6.99302115,16.7178835 7.07733265,16.6800887 7.15176047,16.6300825 C7.22618829,16.5800763 7.28607853,16.5190231 7.33143298,16.4469212 C7.37678743,16.3748192 7.39946432,16.2922521 7.39946432,16.1992173 C7.39946432,16.0968791 7.37620598,16.0137305 7.32968859,15.9497691 C7.2831712,15.8858077 7.22328096,15.8340579 7.15001608,15.7945181 C7.07675119,15.7549783 6.99418407,15.7235795 6.90231223,15.7003208 C6.81044039,15.6770622 6.71915138,15.6549667 6.62844248,15.6340339 Z M8.50540968,15.8747602 C8.50540968,15.6444991 8.54960054,15.428778 8.63798357,15.2275903 C8.72636661,15.0264026 8.84614709,14.8502206 8.9973286,14.6990391 C9.14851011,14.5478576 9.32469207,14.4286586 9.52587977,14.3414385 C9.72706747,14.2542184 9.9416257,14.210609 10.1695609,14.210609 C10.399822,14.210609 10.6155431,14.2542184 10.8167308,14.3414385 C11.0179185,14.4286586 11.193519,14.5478576 11.3435376,14.6990391 C11.4935562,14.8502206 11.6121737,15.0264026 11.6993938,15.2275903 C11.7866139,15.428778 11.8302233,15.6444991 11.8302233,15.8747602 L11.8302233,17.1097906 C11.8302233,17.1632856 11.8203385,17.2132911 11.8005687,17.2598085 C11.7807988,17.3063259 11.7534702,17.347028 11.7185822,17.381916 C11.6836941,17.416804 11.6424106,17.4447141 11.5947302,17.4656469 C11.5470499,17.4865797 11.496463,17.497046 11.442968,17.497046 C11.3522591,17.497046 11.2755066,17.4702989 11.2127081,17.4168039 C11.1499096,17.3633089 11.1080446,17.2958597 11.0871118,17.2144542 C10.9545372,17.3144666 10.810917,17.393545 10.6562466,17.4516917 C10.5015763,17.5098385 10.3393494,17.5389114 10.1695609,17.5389114 C9.9416257,17.5389114 9.72706747,17.495302 9.52587977,17.4080819 C9.32469207,17.3208618 9.14851011,17.2016628 8.9973286,17.0504813 C8.84614709,16.8992998 8.72636661,16.7225363 8.63798357,16.5201857 C8.54960054,16.3178351 8.50540968,16.1026954 8.50540968,15.8747602 Z M9.26247638,15.8747602 C9.26247638,15.9980313 9.28631618,16.1149044 9.33399651,16.2253832 C9.38167683,16.335862 9.44680019,16.4323842 9.52936856,16.5149525 C9.61193692,16.5975209 9.70787759,16.6626443 9.81719345,16.7103246 C9.92650931,16.7580049 10.043964,16.7818447 10.1695609,16.7818447 C10.2951578,16.7818447 10.413194,16.7580049 10.5236727,16.7103246 C10.6341515,16.6626443 10.7300922,16.5975209 10.8114976,16.5149525 C10.8929031,16.4323842 10.9568635,16.335862 11.0033809,16.2253832 C11.0498983,16.1149044 11.0731566,15.9980313 11.0731566,15.8747602 C11.0731566,15.7491632 11.0498983,15.6311271 11.0033809,15.5206483 C10.9568635,15.4101695 10.8929031,15.3142289 10.8114976,15.2328234 C10.7300922,15.151418 10.6341515,15.0868761 10.5236727,15.0391958 C10.413194,14.9915155 10.2951578,14.9676757 10.1695609,14.9676757 C10.0462898,14.9676757 9.92941664,14.9915155 9.81893785,15.0391958 C9.70845905,15.0868761 9.61193692,15.151418 9.52936856,15.2328234 C9.44680019,15.3142289 9.38167683,15.4101695 9.33399651,15.5206483 C9.28631618,15.6311271 9.26247638,15.7491632 9.26247638,15.8747602 Z M12.3221423,15.8747602 C12.3221423,15.6444991 12.3663331,15.428778 12.4547161,15.2275903 C12.5430992,15.0264026 12.6628797,14.8502206 12.8140612,14.6990391 C12.9652427,14.5478576 13.1414246,14.4286586 13.3426123,14.3414385 C13.5438,14.2542184 13.7583583,14.210609 13.9862935,14.210609 C14.2165545,14.210609 14.4322757,14.2542184 14.6334634,14.3414385 C14.8346511,14.4286586 15.0102516,14.5478576 15.1602702,14.6990391 C15.3102887,14.8502206 15.4289063,15.0264026 15.5161264,15.2275903 C15.6033465,15.428778 15.6469559,15.6444991 15.6469559,15.8747602 L15.6469559,17.1097906 C15.6469559,17.1632856 15.6370711,17.2132911 15.6173012,17.2598085 C15.5975313,17.3063259 15.5702028,17.347028 15.5353147,17.381916 C15.5004267,17.416804 15.4591431,17.4447141 15.4114628,17.4656469 C15.3637825,17.4865797 15.3131956,17.497046 15.2597006,17.497046 C15.1689917,17.497046 15.0922391,17.4702989 15.0294407,17.4168039 C14.9666422,17.3633089 14.9247772,17.2958597 14.9038444,17.2144542 C14.7712698,17.3144666 14.6276495,17.393545 14.4729792,17.4516917 C14.3183089,17.5098385 14.1560819,17.5389114 13.9862935,17.5389114 C13.7583583,17.5389114 13.5438,17.495302 13.3426123,17.4080819 C13.1414246,17.3208618 12.9652427,17.2016628 12.8140612,17.0504813 C12.6628797,16.8992998 12.5430992,16.7225363 12.4547161,16.5201857 C12.3663331,16.3178351 12.3221423,16.1026954 12.3221423,15.8747602 Z M13.079209,15.8747602 C13.079209,15.9980313 13.1030488,16.1149044 13.1507291,16.2253832 C13.1984094,16.335862 13.2635328,16.4323842 13.3461011,16.5149525 C13.4286695,16.5975209 13.5246102,16.6626443 13.633926,16.7103246 C13.7432419,16.7580049 13.8606965,16.7818447 13.9862935,16.7818447 C14.1118904,16.7818447 14.2299265,16.7580049 14.3404053,16.7103246 C14.4508841,16.6626443 14.5468248,16.5975209 14.6282302,16.5149525 C14.7096356,16.4323842 14.7735961,16.335862 14.8201135,16.2253832 C14.8666309,16.1149044 14.8898892,15.9980313 14.8898892,15.8747602 C14.8898892,15.7491632 14.8666309,15.6311271 14.8201135,15.5206483 C14.7735961,15.4101695 14.7096356,15.3142289 14.6282302,15.2328234 C14.5468248,15.151418 14.4508841,15.0868761 14.3404053,15.0391958 C14.2299265,14.9915155 14.1118904,14.9676757 13.9862935,14.9676757 C13.8630224,14.9676757 13.7461492,14.9915155 13.6356704,15.0391958 C13.5251916,15.0868761 13.4286695,15.151418 13.3461011,15.2328234 C13.2635328,15.3142289 13.1984094,15.4101695 13.1507291,15.5206483 C13.1030488,15.6311271 13.079209,15.7491632 13.079209,15.8747602 Z M17.7472055,15.6340339 C17.523922,15.5921683 17.3192486,15.5363482 17.133179,15.4665721 C16.9471095,15.3967961 16.7866269,15.3084144 16.6517265,15.2014244 C16.516826,15.0944344 16.411582,14.9682578 16.3359913,14.822891 C16.2604005,14.6775242 16.2226057,14.5083197 16.2226057,14.3152726 C16.2226057,14.1198995 16.2633078,13.9419732 16.3447132,13.7814882 C16.4261187,13.6210032 16.5348514,13.4826161 16.6709148,13.3663226 C16.8069781,13.2500291 16.9651349,13.159903 17.1453898,13.0959416 C17.3256446,13.0319802 17.5134558,13 17.7088288,13 C17.8460551,13 17.981535,13.013955 18.1152724,13.0418654 C18.2490099,13.0697759 18.3751865,13.1110594 18.4938058,13.1657174 C18.6124251,13.2203753 18.7205764,13.2889874 18.818263,13.3715558 C18.9159495,13.4541241 18.9961908,13.5489019 19.0589892,13.6558919 C19.0799221,13.6907799 19.0921327,13.7268304 19.0956215,13.7640443 C19.0991103,13.8012582 19.0967845,13.8373086 19.0886439,13.8721967 C19.0805034,13.9070847 19.0677113,13.9402278 19.0502673,13.9716271 C19.0328232,14.0030263 19.0124722,14.029192 18.9892135,14.0501248 C18.9636289,14.0757093 18.9322302,14.0966418 18.8950163,14.1129229 C18.8578023,14.129204 18.8182632,14.1390888 18.7763975,14.1425776 C18.7345319,14.1460664 18.6915039,14.1425777 18.6473124,14.1321113 C18.6031209,14.1216448 18.560093,14.1024567 18.5182273,14.0745463 C18.4554288,14.0210513 18.39612,13.9745346 18.3402992,13.9349948 C18.2844783,13.895455 18.2263325,13.8623119 18.1658599,13.8355644 C18.1053872,13.8088169 18.0396824,13.7890473 17.9687434,13.776255 C17.8978044,13.7634627 17.8158187,13.7570667 17.722784,13.7570667 C17.6181198,13.7570667 17.5204348,13.7698588 17.4297259,13.7954434 C17.339017,13.8210279 17.2605201,13.8582413 17.1942328,13.9070845 C17.1279455,13.9559278 17.0756142,14.0140736 17.0372374,14.0815239 C16.9988605,14.1489741 16.9796724,14.2245637 16.9796724,14.308295 C16.9796724,14.4059815 17.0052566,14.4862228 17.0564257,14.5490213 C17.1075948,14.6118197 17.1785328,14.6647325 17.2692417,14.7077611 C17.3599506,14.7507896 17.4663575,14.7868401 17.5884657,14.8159134 C17.7105738,14.8449868 17.8425649,14.8746412 17.9844429,14.9048775 C18.1472538,14.9467431 18.305992,14.998493 18.4606623,15.0601285 C18.6153326,15.121764 18.7531383,15.2014239 18.8740835,15.2991104 C18.9950287,15.3967969 19.0921323,15.5159959 19.1653972,15.656711 C19.2386621,15.7974261 19.275294,15.9654677 19.275294,16.1608407 C19.275294,16.3562137 19.2345919,16.5376288 19.1531865,16.7050914 C19.071781,16.872554 18.9607224,17.0185001 18.8200073,17.1429341 C18.6792922,17.2673681 18.5129951,17.3644717 18.3211109,17.4342478 C18.1292266,17.5040239 17.9228088,17.5389114 17.7018512,17.5389114 C17.5250852,17.5389114 17.3564622,17.5162345 17.1959772,17.4708801 C17.0354922,17.4255256 16.8883832,17.363891 16.7546457,17.2859744 C16.6209082,17.2080577 16.504035,17.1161873 16.4040226,17.0103602 C16.3040102,16.9045332 16.2260948,16.7923117 16.1702739,16.6736923 C16.1400376,16.6132197 16.1231753,16.5562368 16.1196865,16.5027418 C16.1161977,16.4492468 16.1225937,16.4004043 16.1388748,16.3562127 C16.1551559,16.3120212 16.1789957,16.2730635 16.2103949,16.2393384 C16.2417942,16.2056133 16.2772632,16.1782847 16.3168029,16.1573519 C16.4121636,16.1061828 16.5011268,16.0951351 16.5836951,16.1242084 C16.6662635,16.1532818 16.750575,16.2236383 16.8366321,16.33528 C16.9343187,16.477158 17.0575879,16.5870537 17.2064435,16.6649704 C17.3552992,16.742887 17.5297368,16.7818447 17.7297615,16.7818447 C17.827448,16.7818447 17.9233887,16.7690526 18.0175864,16.7434681 C18.1117841,16.7178835 18.1960956,16.6800887 18.2705235,16.6300825 C18.3449513,16.5800763 18.4048415,16.5190231 18.450196,16.4469212 C18.4955504,16.3748192 18.5182273,16.2922521 18.5182273,16.1992173 C18.5182273,16.0968791 18.494969,16.0137305 18.4484516,15.9497691 C18.4019342,15.8858077 18.3420439,15.8340579 18.2687791,15.7945181 C18.1955142,15.7549783 18.112947,15.7235795 18.0210752,15.7003208 C17.9292034,15.6770622 17.8379144,15.6549667 17.7472055,15.6340339 Z" id="Combined-Shape"></path>
        </g>
    </g>
</svg>