<?xml version="1.0" encoding="UTF-8"?>
<svg width="25px" height="25px" viewBox="0 0 25 25" version="1.1" xmlns="http://www.w3.org/2000/svg" xmlns:xlink="http://www.w3.org/1999/xlink">
    <!-- Generator: Sketch 56 (81588) - https://sketch.com -->
    <title>cloud-arrows</title>
    <desc>Created with Sketch.</desc>
    <g id="cloud-arrows" stroke="none" stroke-width="1" fill="none" fill-rule="evenodd">
        <path d="M21.24,10.7475 C23.4054167,11.3166667 25,13.3679167 25,15.655 C25,18.4183333 22.7516667,20.6666667 19.9883333,20.6666667 L15.90375,20.6666667 C15.86,20.6666667 15.8175,20.6641667 15.775,20.6608333 L15.7191667,20.6575 L15.6933333,20.6608333 C15.65,20.6641667 15.6070833,20.6666667 15.56375,20.6666667 L5.35208333,20.6666667 C2.40083333,20.6666667 0,18.2654167 0,15.3141667 C0,13.3329167 1.19041667,11.35375 2.92333333,10.40875 L2.92333333,10.4070833 C2.92,10.355 2.91666667,10.3029167 2.91666667,10.25 C2.91666667,8.18208333 4.59875,6.5 6.66666667,6.5 C6.80875,6.5 6.94875,6.50958333 7.08708333,6.525 C7.12958333,6.52958333 7.17083333,6.53791667 7.21291667,6.54416667 C7.30958333,6.55875 7.40541667,6.575 7.49916667,6.59625 C7.5475,6.60708333 7.595,6.62041667 7.64291667,6.63333333 C7.73041667,6.65708333 7.81625,6.68333333 7.90083333,6.71291667 C7.94875,6.72958333 7.99625,6.74666667 8.04375,6.76541667 C8.12916667,6.79958333 8.21291667,6.8375 8.29541667,6.8775 C8.32708333,6.8925 8.36,6.90375 8.39125,6.92 C9.74875,5.10958333 11.9395833,4 14.2020833,4 C17.9283333,4 21.0195833,6.9975 21.24,10.7475 Z M11.1994461,12.3691398 L9.9520449,11.1217386 C9.78967484,10.9594205 9.52647317,10.9594205 9.36410311,11.1217386 L8.11670186,12.3691398 C7.95719043,12.5343165 7.96176423,12.7975702 8.12694095,12.9570816 C8.28806361,13.1126949 8.54352099,13.1126949 8.70464365,12.9570816 L9.24227359,12.4194517 L9.24227765,16.5712858 C9.24227765,16.8009116 9.42845228,16.9870862 9.65807806,16.9870862 C9.88770384,16.9870862 10.0738785,16.8009116 10.0738785,16.5712858 L10.0738744,12.4194517 L10.6115044,12.9570816 C10.7766811,13.116593 11.0399347,13.1120192 11.1994461,12.9468425 C11.3550595,12.7857199 11.3550595,12.5302625 11.1994461,12.3691398 Z M16.1736515,15.0370023 C16.0125288,14.881389 15.7570714,14.881389 15.5958968,15.0370023 L15.0582669,15.5746322 L15.0582669,11.438833 C15.0582669,11.2092072 14.8720922,11.0230326 14.6424665,11.0230326 C14.4128407,11.0230326 14.226666,11.2092072 14.226666,11.438833 L14.226666,15.5746322 L13.6890361,15.0370023 C13.5238594,14.8774389 13.2606577,14.8820127 13.1010943,15.0471894 C12.945481,15.2083121 12.945481,15.4637694 13.1010943,15.6249441 L14.3484956,16.8723453 C14.5108656,17.0346634 14.7740673,17.0346634 14.9364373,16.8723453 L16.1838386,15.6249441 C16.343402,15.4597674 16.3388282,15.1965137 16.1736515,15.0370023 Z" id="Combined-Shape" fill="#31314F" fill-rule="nonzero"></path>
    </g>
</svg>