<?xml version="1.0" encoding="UTF-8"?>
<svg width="25px" height="25px" viewBox="0 0 25 25" version="1.1" xmlns="http://www.w3.org/2000/svg" xmlns:xlink="http://www.w3.org/1999/xlink">
    <!-- Generator: Sketch 56 (81588) - https://sketch.com -->
    <title>company</title>
    <desc>Created with Sketch.</desc>
    <g id="company" stroke="none" stroke-width="1" fill="none" fill-rule="evenodd">
        <path d="M24.6914497,9.84101562 L21.1549479,8.75460069 L21.1549479,6.12013889 C21.1549479,5.9703125 21.0704861,5.83381076 20.9360677,5.76792535 L11.3857639,1.04188368 C11.3847222,1.04136285 11.3825955,1.04136285 11.378342,1.04136285 C11.3602865,1.03177083 11.2891059,0.998871528 11.1855035,1.0046875 C11.0776476,1.01054687 10.9990451,1.06258681 10.984158,1.07430556 L10.984158,1.07430556 L4.17300347,5.93098958 C4.06940104,6.00481771 4.0077691,6.12382812 4.0077691,6.25082465 L4.0077691,9.64179687 L2.74231771,9.49088542 C2.74179687,9.49088542 2.73806424,9.49140625 2.73116319,9.49249132 C2.71471354,9.49140625 2.67643229,9.48980035 2.64032118,9.49461806 C2.59461806,9.50047743 2.55533854,9.51536458 2.54045139,9.52118056 C2.53832465,9.52170139 2.53676215,9.52222222 2.53676215,9.52222222 L0.233767361,10.5422743 C0.09140625,10.6049479 0,10.7462674 0,10.9013889 L0,17.4713108 C0,17.6152778 0.0786458333,17.7475694 0.203993056,17.8155816 L2.51228299,19.081033 C2.51228299,19.081033 2.57287326,19.1161024 2.64561632,19.1251302 C2.71046007,19.1335937 2.75772569,19.1251302 2.75772569,19.1251302 L4.00720486,18.9434028 L4.00720486,19.6675347 C4.00720486,19.8115017 4.08585069,19.9432726 4.21119792,20.012283 L11.0213108,23.7443142 C11.0213108,23.7443142 11.0972656,23.7884115 11.1966146,23.7931858 C11.2725694,23.7969184 11.3469618,23.7692708 11.3469618,23.7692708 L11.3469618,23.7671441 C11.3480035,23.7671441 11.3490885,23.7671441 11.3490885,23.7671441 L20.8999132,20.1360677 L24.7142795,18.6857205 C24.8667535,18.6278212 24.9677244,18.4817708 24.9677244,18.3186632 L24.9677244,10.2171007 C24.9692708,10.043967 24.8566406,9.89144965 24.6914497,9.84101562 Z M1.09596354,15.8382812 C1.09596354,15.8791667 1.07682292,15.9179687 1.04388021,15.9423611 C1.02048611,15.9598958 0.992881944,15.9694444 0.964713542,15.9694444 C0.952994792,15.9694444 0.941319444,15.9678819 0.929644097,15.9647135 L0.492447917,15.8430122 C0.435590278,15.8270833 0.396310764,15.7755642 0.396310764,15.7165799 L0.396310764,14.4979167 C0.396310764,14.4612413 0.41171875,14.425651 0.439322917,14.4006944 C0.466449653,14.3757378 0.503081597,14.3640191 0.539713542,14.3677517 L0.976909722,14.4102431 C1.04383681,14.4171441 1.0953559,14.4729167 1.0953559,14.540408 L1.0953559,15.8382378 L1.09596354,15.8382378 L1.09596354,15.8382812 Z M1.09596354,13.243099 C1.09596354,13.3116319 1.04335937,13.3679687 0.975347222,13.3737847 L0.538151042,13.4099392 C0.534939236,13.4099392 0.53125,13.4099392 0.527517361,13.4099392 C0.495095486,13.4099392 0.463237847,13.3982205 0.438802083,13.3759549 C0.41171875,13.3509549 0.396310764,13.3164497 0.396310764,13.2792101 L0.396310764,12.0605469 C0.396310764,12.0010417 0.436675347,11.9490017 0.494053819,11.9341146 L0.931293403,11.8188368 C0.970616319,11.8087674 1.01202257,11.8172309 1.04444444,11.8422309 C1.07686632,11.8666667 1.09544271,11.9049045 1.09544271,11.9453125 L1.09544271,13.2431424 L1.09596354,13.2431424 L1.09596354,13.243099 Z M2.37417535,16.1936632 C2.37417535,16.2345486 2.35507812,16.2727865 2.32261285,16.2977431 C2.29921875,16.3152778 2.27161458,16.3243056 2.24344618,16.3243056 C2.23177083,16.3243056 2.22005208,16.3226997 2.20837674,16.3195312 L1.60911458,16.1527344 C1.55225694,16.1373264 1.51297743,16.0852431 1.51297743,16.0268229 L1.51297743,14.6067708 C1.51297743,14.5701389 1.52834201,14.5345486 1.55598958,14.509592 C1.58307292,14.4846354 1.61974826,14.4729167 1.65694444,14.4766493 L2.2562066,14.5350694 C2.32369792,14.5414497 2.37465278,14.5977431 2.37465278,14.6652344 L2.37465278,16.1936632 L2.37417535,16.1936632 Z M2.37417535,13.1378906 C2.37417535,13.2059028 2.32157118,13.2627604 2.25412326,13.2686198 L1.65434028,13.3180122 C1.65065104,13.3180122 1.64743924,13.3180122 1.6437066,13.3180122 C1.61076389,13.3180122 1.57890625,13.305816 1.55499132,13.2835069 C1.52786458,13.2585503 1.5125,13.2240017 1.5125,13.1868056 L1.5125,11.7673177 C1.5125,11.7078125 1.55290799,11.6557726 1.61024306,11.6403646 L2.21002604,11.4831163 C2.24934896,11.4724826 2.29075521,11.4809896 2.32317708,11.5059462 C2.35507813,11.5309028 2.37417535,11.5691406 2.37417535,11.6095486 L2.37417535,13.1378906 L2.37417535,13.1378906 Z M5.6546441,17.1042535 C5.6546441,17.1451389 5.63550347,17.183941 5.6030816,17.2083333 C5.58025174,17.2258681 5.55208333,17.2354167 5.52391493,17.2354167 C5.51171875,17.2354167 5.5,17.2338542 5.48884549,17.2306424 L4.71588542,17.016059 C4.65902778,17.0001302 4.61970486,16.9485677 4.61970486,16.8901476 L4.61970486,14.9101562 C4.61970486,14.8730035 4.63511285,14.8378906 4.66276042,14.812934 C4.68984375,14.7879774 4.7265191,14.7763021 4.76315104,14.7789497 L5.53611111,14.8549479 C5.60355903,14.8612847 5.65455729,14.9176215 5.65455729,14.9850694 L5.65455729,17.1042535 L5.6546441,17.1042535 Z M5.6546441,12.8669705 C5.6546441,12.9349826 5.60256076,12.9918403 5.53459201,12.9971354 L4.76158854,13.0608941 C4.75842014,13.0614583 4.7546875,13.0614583 4.75095486,13.0614583 C4.71801215,13.0614583 4.68615451,13.0492187 4.66223958,13.0269097 C4.63511285,13.0019531 4.61974826,12.9668837 4.61974826,12.9302083 L4.61974826,10.9502604 C4.61974826,10.8907552 4.66011285,10.8387153 4.71749132,10.8238281 L5.49045139,10.6203559 C5.52977431,10.6102865 5.57174479,10.61875 5.60360243,10.64375 C5.63546007,10.6681858 5.65460069,10.7064236 5.65460069,10.7468316 L5.65460069,12.8669705 L5.6546441,12.8669705 Z M5.6546441,8.62868924 C5.6546441,8.68072917 5.62434896,8.72803819 5.57708333,8.74874132 L4.80412326,9.09084201 C4.78710938,9.09830729 4.76905382,9.10256076 4.75099826,9.10256076 C4.72604167,9.10256076 4.70108507,9.09513889 4.67929687,9.0812934 C4.64210069,9.05685764 4.61979167,9.01540799 4.61979167,8.97131076 L4.61979167,6.99136285 C4.61979167,6.94618056 4.64318576,6.90421007 4.68142361,6.88029514 L5.45438368,6.39900174 C5.49479167,6.37352431 5.54574653,6.37243924 5.58719618,6.3953125 C5.62864583,6.4187066 5.6546875,6.46223958 5.6546875,6.51006944 L5.6546875,8.62868924 L5.6546441,8.62868924 Z M7.58042535,17.6391927 C7.58042535,17.6800781 7.56128472,17.7188802 7.52886285,17.743316 C7.50603299,17.7608073 7.47786458,17.7703993 7.44969618,17.7703993 C7.43802083,17.7703993 7.42630208,17.7687934 7.41462674,17.765625 L6.37921007,17.477691 C6.32235243,17.462283 6.28307292,17.4101997 6.28307292,17.3517795 L6.28307292,15.0722222 C6.28307292,15.0355469 6.2984809,14.9999566 6.32608507,14.975 C6.35321181,14.9506076 6.38984375,14.9388889 6.42647569,14.9420573 L7.46241319,15.0429687 C7.52934028,15.0498698 7.58033854,15.1056424 7.58033854,15.1731337 L7.58033854,17.6391927 L7.58042535,17.6391927 Z M7.58042535,12.7075955 C7.58042535,12.7761285 7.52834201,12.8324653 7.46032986,12.8382812 L6.4249566,12.9238281 C6.42122396,12.9238281 6.41753472,12.9243924 6.41380208,12.9243924 C6.38085938,12.9243924 6.34952257,12.9116319 6.32508681,12.8893229 C6.29800347,12.8643663 6.28259549,12.8298177 6.28259549,12.7926215 L6.28259549,10.5135417 C6.28259549,10.4540365 6.32296007,10.4019965 6.38033854,10.3871094 L7.41571181,10.1145833 C7.45503472,10.1039497 7.49700521,10.1124566 7.52886285,10.1374132 C7.56128472,10.1623698 7.57986111,10.2006076 7.57986111,10.2410156 L7.57986111,12.7075955 L7.58042535,12.7075955 Z M7.58042535,7.77604167 C7.58042535,7.828125 7.55013021,7.87539062 7.50286458,7.89613715 L6.46744792,8.35460069 C6.45043403,8.36258681 6.43237847,8.36575521 6.41432292,8.36575521 C6.38936632,8.36575521 6.36440972,8.35833333 6.34314236,8.34453125 C6.30598958,8.32061632 6.28363715,8.27916667 6.28363715,8.23454861 L6.28363715,5.95546875 C6.28363715,5.91028646 6.30703125,5.86835937 6.3452691,5.84444444 L7.38064236,5.19895833 C7.42100694,5.1734809 7.47200521,5.17239583 7.51345486,5.19522569 C7.55490451,5.21861979 7.58094618,5.26215278 7.58094618,5.30998264 L7.58094618,7.77604167 L7.58042535,7.77604167 Z M10.260026,18.3835069 C10.260026,18.422309 10.2451389,18.4594618 10.2175347,18.4860243 C10.1697049,18.5343316 10.1054253,18.5343316 10.0831163,18.5343316 C10.0831163,18.5343316 10.0831163,18.5343316 10.0825955,18.5343316 C9.82439236,18.5343316 8.82248264,18.1736111 8.62482639,18.1019097 C8.57278646,18.0832899 8.53875868,18.033941 8.53875868,17.9786458 L8.53875868,15.2926215 C8.53875868,15.2559896 8.55416667,15.2203993 8.58125,15.1954427 C8.60885417,15.1704861 8.64552951,15.1587674 8.68220486,15.1625 L10.1415365,15.3048611 C10.2084635,15.3117622 10.2599826,15.3680556 10.2599826,15.4349826 C10.260026,15.4637153 10.2589844,18.2575521 10.260026,18.3835069 Z M10.260026,12.4865885 C10.260026,12.5545573 10.2074653,12.6114583 10.1394531,12.6167535 L8.68007812,12.7373264 C8.67638889,12.7373264 8.67265625,12.7378906 8.66944444,12.7378906 C8.63650174,12.7378906 8.6046441,12.7251302 8.58072917,12.7027778 C8.55360243,12.6778212 8.53823785,12.643316 8.53823785,12.6060764 L8.53823785,9.92009549 C8.53823785,9.86111111 8.5780816,9.80855035 8.6359809,9.79366319 L10.0953125,9.41011285 C10.1346354,9.39947917 10.1760851,9.40798611 10.2084635,9.43294271 C10.240842,9.45789931 10.2594618,9.49618056 10.2594618,9.53654514 L10.2594618,12.4865451 L10.260026,12.4865451 L10.260026,12.4865885 Z M10.260026,6.58923611 C10.260026,6.64127604 10.2292101,6.68802083 10.1819444,6.70876736 L8.72261285,7.35529514 C8.70559896,7.36328125 8.6875434,7.36644965 8.66948785,7.36644965 C8.64453125,7.36644965 8.61957465,7.35902778 8.59778646,7.34522569 C8.56059028,7.32078993 8.53828125,7.27986111 8.53828125,7.23524306 L8.53828125,4.54973958 C8.53828125,4.50407986 8.56167535,4.46206597 8.59991319,4.43819444 L10.0592882,3.52925347 C10.0996528,3.50377604 10.150651,3.50269097 10.1921007,3.52552083 C10.2335503,3.54891493 10.2595486,3.59244792 10.2595486,3.64027778 L10.2595486,6.58923611 L10.260026,6.58923611 Z M16.0612847,5.11927083 C16.0612847,5.07517361 16.0836372,5.03428819 16.1202691,5.00985243 C16.156901,4.98541667 16.2036458,4.98168403 16.2440538,4.99869792 L17.8016927,5.67230903 C17.8495226,5.69305556 17.880816,5.74032118 17.880816,5.79288194 L17.880816,8.11922743 C17.880816,8.16067708 17.8611979,8.1999566 17.827691,8.22439236 C17.8048611,8.24140625 17.7777778,8.25043403 17.7501302,8.25043403 C17.7373698,8.25043403 17.7240885,8.24830729 17.7118924,8.24457465 L16.1542535,7.76592882 C16.0990017,7.74891493 16.0618056,7.69796007 16.0618056,7.64110243 L16.0618056,5.11927083 L16.0612847,5.11927083 Z M16.0612847,10.1613715 C16.0612847,10.1225694 16.0782986,10.0854167 16.1080295,10.0609809 C16.1378038,10.0360243 16.1776476,10.0259115 16.2153646,10.0328125 L17.7735243,10.3164931 C17.8356771,10.3282118 17.880816,10.3818576 17.880816,10.4450521 L17.880816,12.7931424 C17.880816,12.8292535 17.8659288,12.8643663 17.8388455,12.8893229 C17.8144531,12.9121528 17.7825521,12.9243924 17.7496094,12.9243924 C17.7463976,12.9243924 17.7432292,12.9238281 17.7405382,12.9238281 L16.1829427,12.8128038 C16.1144097,12.8080295 16.0612413,12.7511719 16.0612413,12.6826389 L16.0612413,10.1613715 L16.0612847,10.1613715 Z M12.00625,3.36614583 C12.00625,3.32204861 12.028559,3.28116319 12.0652344,3.25672743 C12.1018663,3.2328125 12.1486111,3.22855903 12.1890191,3.24609375 L14.4016927,4.20286458 C14.4495226,4.22361111 14.480816,4.27087674 14.480816,4.3234809 L14.480816,7.07482639 C14.480816,7.11627604 14.4611979,7.15559896 14.427691,7.18003472 C14.4048611,7.19704861 14.3772135,7.20607639 14.3501302,7.20607639 C14.3373698,7.20607639 14.3240885,7.20394965 14.3113281,7.20021701 L12.0986979,6.52022569 C12.0434462,6.50377604 12.00625,6.45273437 12.00625,6.39539931 L12.00625,3.36614583 L12.00625,3.36614583 Z M12.00625,12.4504774 L12.00625,9.42235243 C12.00625,9.38355035 12.0232639,9.34639757 12.0529948,9.32196181 C12.0827691,9.29700521 12.1220486,9.28689236 12.1603299,9.2937934 L14.3729601,9.69704861 C14.4351128,9.70872396 14.4807726,9.76293403 14.4807726,9.82612847 L14.4807726,12.5774306 C14.4807726,12.6135851 14.4658854,12.6480903 14.4393663,12.6730469 C14.4149306,12.6958767 14.3825087,12.7086372 14.3496094,12.7086372 C14.3469184,12.7086372 14.3442708,12.7086372 14.3421441,12.7081163 L12.1295139,12.581684 C12.0604601,12.5769097 12.00625,12.5200955 12.00625,12.4504774 Z M16.3231771,21.5067274 C16.3231771,21.5614583 16.2891927,21.6092448 16.2387587,21.6289062 L13.3428819,22.7296441 C13.3279948,22.7354601 13.312066,22.7381076 13.2967014,22.7381076 C13.2706163,22.7381076 13.2440972,22.7301215 13.222309,22.7152778 C13.1867187,22.690842 13.1659722,22.6504774 13.1659722,22.6074653 L13.1659722,15.3994792 C13.1659722,15.3303819 13.2191406,15.2735677 13.288151,15.26875 L16.1840278,15.0726997 C16.2206597,15.0700521 16.2557292,15.0833333 16.2822917,15.1078125 C16.3088542,15.1322049 16.3237413,15.1667535 16.3237413,15.2034288 L16.3237413,21.5067274 L16.3231771,21.5067274 Z M19.8129774,20.1796007 C19.8129774,20.2343316 19.7795139,20.2826823 19.7285156,20.3017795 L17.7963108,21.0365017 C17.7809462,21.0423611 17.7655382,21.0455295 17.7496094,21.0455295 C17.7235243,21.0455295 17.697526,21.037066 17.675217,21.0221788 C17.6401476,20.9977431 17.6188802,20.9573785 17.6188802,20.9143663 L17.6188802,15.0982205 C17.6188802,15.0291667 17.6720486,14.9723524 17.741059,14.9675347 L19.6732205,14.8368056 C19.7098958,14.834158 19.7449219,14.8469184 19.7715278,14.8713542 C19.7980903,14.8957899 19.8129774,14.9308594 19.8129774,14.9669705 L19.8129774,20.1796007 L19.8129774,20.1796007 Z M20.3713108,12.9142795 C20.3713108,12.9503906 20.3564236,12.9849392 20.3298611,13.0098958 C20.3054253,13.0327257 20.2730035,13.0454861 20.2401042,13.0454861 C20.2374132,13.0454861 20.234809,13.0454861 20.2326389,13.0454861 L19.0766493,12.9790799 C19.0075955,12.9748264 18.9533854,12.9179687 18.9533854,12.8483941 L18.9533854,10.6883681 C18.9533854,10.649566 18.9709201,10.6124132 19.0001302,10.5874132 C19.0304253,10.5624566 19.0697483,10.5528646 19.1079427,10.5592448 L20.2634115,10.7701389 C20.3256076,10.7812934 20.3712674,10.8354601 20.3712674,10.8986979 L20.3712674,12.9142795 L20.3713108,12.9142795 Z M20.3713108,8.88420139 C20.3713108,8.92565104 20.3516493,8.96497396 20.3181424,8.98940972 C20.2953125,9.00642361 20.2677083,9.01545139 20.2405816,9.01545139 C20.2278646,9.01545139 20.2145399,9.01332465 20.2017795,9.00907118 L19.0463108,8.65421007 C18.9911024,8.63719618 18.9539062,8.58619792 18.9539062,8.52938368 L18.9539062,6.36931424 C18.9539062,6.32521701 18.9762153,6.2843316 19.0128472,6.25989583 C19.0494792,6.23546007 19.0962674,6.23172743 19.1366319,6.24926215 L20.2926649,6.74865451 C20.3404948,6.76940104 20.3717882,6.81662326 20.3717882,6.86922743 L20.3717882,8.88424479 L20.3713108,8.88424479 L20.3713108,8.88420139 Z M22.6811632,16.4996528 C22.6811632,16.5623264 22.6365885,16.6165365 22.5749566,16.6282118 L21.735026,16.7902344 C21.7265191,16.7918403 21.718533,16.7923611 21.7105903,16.7923611 C21.6803385,16.7923611 21.6505642,16.7817708 21.6271701,16.7621094 C21.5969184,16.7376736 21.5799045,16.7004774 21.5799045,16.6617187 L21.5799045,14.8305122 C21.5799045,14.7614583 21.6330295,14.7046441 21.7020833,14.6998264 L22.5420139,14.6429687 C22.578125,14.640842 22.6137153,14.653559 22.6402778,14.6780382 C22.6668403,14.7024306 22.6817274,14.7369792 22.6817274,14.7736545 L22.6817274,16.4996962 L22.6811632,16.4996962 L22.6811632,16.4996528 Z M22.6811632,13.0470486 C22.6811632,13.0826389 22.6663194,13.1171875 22.6397569,13.1421441 C22.6153212,13.164974 22.5834201,13.177691 22.55,13.177691 C22.547309,13.177691 22.5452257,13.177691 22.5425347,13.177691 L21.7026042,13.1293837 C21.6335503,13.1251302 21.5793837,13.068316 21.5793837,12.9986979 L21.5793837,11.1675347 C21.5793837,11.128776 21.5963976,11.0921007 21.6260851,11.0671441 C21.6558594,11.0421875 21.6951823,11.0320747 21.7334201,11.0384549 L22.5728299,11.1914497 C22.6349826,11.2026042 22.6806424,11.2573351 22.6806424,11.3205295 L22.6806424,13.0470486 L22.6811632,13.0470486 L22.6811632,13.0470486 Z M24.1012153,16.2255642 C24.1012153,16.2882378 24.0565972,16.3424045 23.9949653,16.3541233 L23.3229601,16.483724 C23.3144965,16.4853299 23.3065104,16.4858507 23.2985677,16.4858507 C23.2682726,16.4858507 23.2384983,16.4752604 23.2151476,16.455599 C23.1848524,16.4306424 23.1678385,16.393967 23.1678385,16.3552083 L23.1678385,14.7221354 C23.1678385,14.6536024 23.2214844,14.5967448 23.2900174,14.5919705 L23.9615451,14.5462674 C23.9976563,14.5436198 24.0332465,14.556901 24.0598524,14.580816 C24.0863715,14.6057726 24.1012587,14.6403212 24.1012587,14.6769965 L24.1012587,16.2255642 L24.1012153,16.2255642 Z M24.1012153,13.1278212 C24.1012153,13.1639757 24.0863281,13.1984809 24.0603299,13.2234375 C24.0359375,13.2462674 24.0040365,13.2590278 23.9705729,13.2590278 C23.9678819,13.2590278 23.9657986,13.2590278 23.9631076,13.2585069 L23.2916233,13.2202257 C23.222526,13.2164931 23.1683594,13.159158 23.1683594,13.0895399 L23.1683594,11.4777344 C23.1683594,11.4394965 23.184809,11.4028212 23.2140625,11.3778646 C23.2427517,11.352908 23.2809896,11.3422743 23.3187066,11.3475694 L23.9907118,11.4490451 C24.0549913,11.4585937 24.1017795,11.5138889 24.1017795,11.5786892 L24.1017795,13.1277778 L24.1012153,13.1277778 L24.1012153,13.1278212 Z" id="Shape" fill="#31314F" fill-rule="nonzero"></path>
    </g>
</svg>