<?xml version="1.0" encoding="UTF-8"?>
<svg width="25px" height="21px" viewBox="0 0 25 21" version="1.1" xmlns="http://www.w3.org/2000/svg" xmlns:xlink="http://www.w3.org/1999/xlink">
    <!-- Generator: Sketch 56 (81588) - https://sketch.com -->
    <title>eshop</title>
    <desc>Created with Sketch.</desc>
    <g id="Symbols" stroke="none" stroke-width="1" fill="none" fill-rule="evenodd">
        <g id="web-ecommerce-icon-disabled" transform="translate(0.000000, -2.000000)" fill="#31314F" fill-rule="nonzero">
            <path d="M23.4595215,2 L1.54047852,2 C0.691015625,2 0,2.69101563 0,3.54042969 L0,18.4141113 C0,19.2635254 0.691015625,19.954541 1.54047852,19.954541 L8.95385742,19.954541 L8.65400391,21.989356 L7.41162109,21.989356 C7.20932617,21.989356 7.00353374,22.237285 7.00353374,22.490743 C7.00353374,22.744201 7.20932617,22.9986952 7.41162109,22.9986952 L17.5883789,22.9986952 C17.7906738,22.9986952 18.0075274,22.8189459 18.0075274,22.5483779 C18.0075274,22.2778099 17.7906738,21.989356 17.5883789,21.989356 L16.3460449,21.989356 L16.0461426,19.954541 L23.4595215,19.954541 C24.3089355,19.954541 25,19.2635254 25,18.4141113 L25,3.54042969 C25,2.69101563 24.3089844,2 23.4595215,2 Z M9.68060545,22.0012689 L9.9805078,19.954541 L15.0151504,19.954541 L15.3149551,22.0012689 L9.68060545,22.0012689 Z M24.0015442,18.1806461 C24.0015442,18.6262027 23.6390442,18.9886539 23.1934876,18.9886539 L1.81370791,18.9886539 C1.36815127,18.9886539 1.00565127,18.6262027 1.00565127,18.1806461 L1.00565127,3.82298125 C1.00565127,3.37742461 1.36815127,3.01497344 1.81370791,3.01497344 L23.1934876,3.01497344 C23.6390442,3.01497344 24.0015442,3.37742461 24.0015442,3.82298125 L24.0015442,18.1806461 Z M17.4853516,7.62026367 C17.4195312,7.53613281 17.3202637,7.48496094 17.213623,7.48012695 L8.60258789,7.08867187 C8.59584961,7.08837891 8.58925781,7.08823242 8.5824707,7.08833008 C8.53149414,6.92099609 8.4237793,6.77587891 8.27797852,6.67861328 L7.2234375,5.97558594 C7.05517578,5.86342773 6.8277832,5.90888672 6.715625,6.07719727 C6.6034668,6.24550781 6.64892578,6.47285156 6.8171875,6.58500977 L7.87167969,7.28793945 C7.87666016,7.29125977 7.88032227,7.29628906 7.88198242,7.30205078 L9.22519531,12.0032715 C9.26708984,12.1498535 9.33603516,12.2815918 9.42456055,12.3953613 L8.93310547,13.3782715 C8.81479492,13.6148437 8.82719727,13.8903809 8.96625977,14.1153809 C9.01669922,14.1969727 9.08066406,14.2664551 9.15415039,14.3221191 C9.05795898,14.4900391 9.00263672,14.6842773 9.00263672,14.8913086 C9.00263672,15.5249023 9.51811523,16.040332 10.1516602,16.040332 C10.7852051,16.040332 11.3006836,15.5248535 11.3006836,14.8913086 C11.3006836,14.7443848 11.2726562,14.6039551 11.222168,14.474707 L14.5608887,14.474707 C14.5104004,14.6039551 14.482373,14.7443848 14.482373,14.8913086 C14.482373,15.5249023 14.9978516,16.040332 15.6313965,16.040332 C16.2649414,16.040332 16.7804199,15.5248535 16.7804199,14.8913086 C16.7804199,14.7075195 16.7368164,14.5338379 16.6597656,14.3796387 C16.7336914,14.3126465 16.7804199,14.2161621 16.7804199,14.1084961 C16.7804199,13.90625 16.6165039,13.7422852 16.414209,13.7422852 L9.6105957,13.7422852 C9.60537109,13.7422852 9.5965332,13.7422852 9.58916016,13.7303223 C9.58178711,13.7184082 9.58574219,13.7105469 9.58808594,13.7058105 L10.0408203,12.8003906 C10.132959,12.8240723 10.2289551,12.8368652 10.3271973,12.8368652 C10.3724609,12.8368652 10.4181641,12.8341797 10.4641602,12.8288086 L15.6099609,12.2234375 C16.2745605,12.1452148 16.8092773,11.6518555 16.9405273,10.9956055 L17.5560547,7.91777344 C17.577002,7.81303711 17.5511719,7.70439453 17.4853516,7.62026367 Z M15.6312988,14.4748047 C15.8610352,14.4748047 16.0479004,14.6617187 16.0479004,14.8914062 C16.0479004,15.1211426 15.8610352,15.3080078 15.6312988,15.3080078 C15.4015625,15.3080078 15.2146973,15.1211426 15.2146973,14.8914062 C15.2146973,14.6616699 15.4015625,14.4748047 15.6312988,14.4748047 Z M10.1515625,14.4748047 C10.3812988,14.4748047 10.5681641,14.6616699 10.5681641,14.8914062 C10.5681641,15.1211426 10.3812988,15.3080078 10.1515625,15.3080078 C9.92182617,15.3080078 9.73496094,15.1211426 9.73496094,14.8914062 C9.73496094,14.6616699 9.92182617,14.4748047 10.1515625,14.4748047 Z M9.25351562,9.43681641 L8.79458008,7.83061523 L10.2586914,7.89716797 L10.5125488,9.43681641 L9.25351562,9.43681641 Z M10.3786133,12.101416 C10.1744141,12.1254395 9.98569336,11.9995117 9.9293457,11.8020996 L9.46279297,10.1692383 L10.6333008,10.1692383 L10.9409668,12.0352539 L10.3786133,12.101416 Z M12.5252441,11.848877 L11.6691895,11.9496094 L11.3756836,10.1692871 L12.5252441,10.1692871 L12.5252441,11.848877 Z M12.5252441,9.43681641 L11.2548828,9.43681641 L11.0066406,7.93120117 L12.5252441,8.00024414 L12.5252441,9.43681641 Z M14.379834,11.6306641 L13.257666,11.7626953 L13.257666,10.1692383 L14.5121094,10.1692383 L14.379834,11.6306641 Z M14.578418,9.43681641 L13.257666,9.43681641 L13.257666,8.03349609 L14.6995117,8.09902344 L14.578418,9.43681641 Z M16.2222656,10.8520508 C16.153418,11.1961914 15.8729492,11.4550293 15.5243652,11.4960449 L15.1231445,11.5432617 L15.2475098,10.1692871 L16.3587891,10.1692871 L16.2222656,10.8520508 Z M16.5053223,9.43681641 L15.3138672,9.43681641 L15.4319336,8.13232422 L16.7541992,8.19243164 L16.5053223,9.43681641 Z" id="eshop"></path>
        </g>
    </g>
</svg>