<?xml version="1.0" encoding="UTF-8"?>
<svg width="20px" height="20px" viewBox="0 0 20 20" version="1.1" xmlns="http://www.w3.org/2000/svg" xmlns:xlink="http://www.w3.org/1999/xlink">
    <!-- Generator: Sketch 56 (81588) - https://sketch.com -->
    <title>export</title>
    <desc>Created with Sketch.</desc>
    <g id="export" stroke="none" stroke-width="1" fill="none" fill-rule="evenodd">
        <path d="M16.5,0 L4.5,0 C3.673,0 3,0.673 3,1.5 L3,11.5 C3,12.327 3.673,13 4.5,13 L8.5,13 C8.776,13 9,12.776 9,12.5 C9,12.224 8.776,12 8.5,12 L4.5,12 C4.224,12 4,11.776 4,11.5 L4,1.5 C4,1.224 4.224,1 4.5,1 L16.5,1 C16.776,1 17,1.224 17,1.5 L17,11.5 C17,11.776 16.776,12 16.5,12 L12.5,12 C12.224,12 12,12.224 12,12.5 C12,12.776 12.224,13 12.5,13 L16.5,13 C17.327,13 18,12.327 18,11.5 L18,1.5 C18,0.673 17.327,0 16.5,0" id="Fill-2961" fill="#31314F"></path>
        <path d="M13.8537187,16.7372826 L10.8530757,19.8483361 C10.6590341,20.0505546 10.3409659,20.0505546 10.1469243,19.8483361 L7.14628135,16.7372826 C6.95123955,16.5361012 6.95123955,16.2063295 7.14628135,16.004111 C7.34032293,15.8029296 7.65839108,15.8029296 7.85243266,16.004111 L9.99989283,18.2295513 L9.99989283,6.51850892 C9.99989283,6.23229199 10.2239408,6 10.5,6 C10.7770594,6 11.0001072,6.23229199 11.0001072,6.51850892 L11.0001072,18.2295513 L13.1485676,16.004111 C13.2465886,15.9024833 13.374616,15.8527064 13.500643,15.8527064 C13.6276702,15.8527064 13.7566979,15.9035203 13.8537187,16.004111 C14.0487604,16.2063295 14.0487604,16.5361012 13.8537187,16.7372826" id="Fill-2962" fill="#31314F"></path>
    </g>
</svg>