<?xml version="1.0" encoding="UTF-8"?>
<svg width="24px" height="25px" viewBox="0 0 24 25" version="1.1" xmlns="http://www.w3.org/2000/svg" xmlns:xlink="http://www.w3.org/1999/xlink">
    <!-- Generator: Sketch 56 (81588) - https://sketch.com -->
    <title>message</title>
    <desc>Created with Sketch.</desc>
    <g id="Symbols" stroke="none" stroke-width="1" fill="none" fill-rule="evenodd">
        <g id="ask-money-icon" fill="#31314F" fill-rule="nonzero">
            <path d="M20.4893041,3.37538487 C25.170232,7.87493644 25.170232,15.1967242 20.4893041,19.6962758 C20.3359208,19.843718 20.1708002,19.9733389 20.0037457,20.0973186 L20.0037457,24.0381283 C20.0037457,24.426927 19.7604663,24.7782241 19.3862775,24.9265638 C19.0173571,25.0745829 18.5847492,24.9957334 18.2959216,24.7180933 L15.9266816,22.440624 C11.5906664,23.8869039 6.78276382,22.8407053 3.51069585,19.6963399 C-1.17023195,15.1967883 -1.17023195,7.87500055 3.51069585,3.37538487 C8.19255729,-1.12512829 15.8074427,-1.12512829 20.4893041,3.37538487 Z M7.49922674,13.5 C8.32765387,13.5 8.99922674,12.8284271 8.99922674,12 C8.99922674,11.1715729 8.32765387,10.5 7.49922674,10.5 C6.67079962,10.5 5.99922674,11.1715729 5.99922674,12 C5.99922674,12.8284271 6.67079962,13.5 7.49922674,13.5 Z M12,13.4513431 C12.8284271,13.4513431 13.5,12.7797702 13.5,11.9513431 C13.5,11.122916 12.8284271,10.4513431 12,10.4513431 C11.1715729,10.4513431 10.5,11.122916 10.5,11.9513431 C10.5,12.7797702 11.1715729,13.4513431 12,13.4513431 Z M16.5,13.4513431 C17.3284271,13.4513431 18,12.7797702 18,11.9513431 C18,11.122916 17.3284271,10.4513431 16.5,10.4513431 C15.6715729,10.4513431 15,11.122916 15,11.9513431 C15,12.7797702 15.6715729,13.4513431 16.5,13.4513431 Z" id="message"></path>
        </g>
    </g>
</svg>