<?xml version="1.0" encoding="UTF-8"?>
<svg width="20px" height="20px" viewBox="0 0 20 20" version="1.1" xmlns="http://www.w3.org/2000/svg" xmlns:xlink="http://www.w3.org/1999/xlink">
    <!-- Generator: Sketch 56 (81588) - https://sketch.com -->
    <title>pause</title>
    <desc>Created with Sketch.</desc>
    <g id="pause" stroke="none" stroke-width="1" fill="none" fill-rule="evenodd">
        <path d="M10,1 C5.03729412,1 1,5.03729412 1,10 C1,14.9637647 5.03729412,19 10,19 C14.9627059,19 19,14.9637647 19,10 C19,5.03729412 14.9627059,1 10,1 M10,20 C7.32842105,20 4.81789474,18.96 2.92842105,17.0715789 C1.03789474,15.1831579 0,12.6715789 0,10.0010526 C0,7.32947368 1.04,4.81894737 2.92842105,2.92947368 C4.81684211,1.04 7.32842105,0 10,0 C12.6715789,0 15.1821053,1.04 17.0715789,2.92947368 C18.9621053,4.81894737 20,7.32947368 20,10.0010526 C20,12.6726316 18.96,15.1831579 17.0715789,17.0715789 C15.1831579,18.96 12.6715789,20 10,20" id="Fill-3242" fill="#FC6692"></path>
        <path d="M6.5,6 C6.225,6 6,6.25714286 6,6.57142857 L6,13.4285714 C6,13.7428571 6.225,14 6.5,14 L7.5,14 C7.775,14 8,13.7428571 8,13.4285714 L8,6.57142857 C8,6.25714286 7.775,6 7.5,6 L6.5,6 Z M7.5,15 L6.5,15 C5.673,15 5,14.2522222 5,13.3333333 L5,6.66666667 C5,5.74777778 5.673,5 6.5,5 L7.5,5 C8.327,5 9,5.74777778 9,6.66666667 L9,13.3333333 C9,14.2522222 8.327,15 7.5,15 L7.5,15 Z" id="Fill-3243" fill="#FC6692"></path>
        <path d="M12.5,6 C12.225,6 12,6.25714286 12,6.57142857 L12,13.4285714 C12,13.7428571 12.225,14 12.5,14 L13.5,14 C13.775,14 14,13.7428571 14,13.4285714 L14,6.57142857 C14,6.25714286 13.775,6 13.5,6 L12.5,6 Z M13.5,15 L12.5,15 C11.673,15 11,14.2522222 11,13.3333333 L11,6.66666667 C11,5.74777778 11.673,5 12.5,5 L13.5,5 C14.327,5 15,5.74777778 15,6.66666667 L15,13.3333333 C15,14.2522222 14.327,15 13.5,15 L13.5,15 Z" id="Fill-3244" fill="#FC6692"></path>
    </g>
</svg>