<?xml version="1.0" encoding="UTF-8"?>
<svg width="14px" height="14px" viewBox="0 0 14 14" version="1.1" xmlns="http://www.w3.org/2000/svg" xmlns:xlink="http://www.w3.org/1999/xlink">
    <!-- Generator: Sketch 56 (81588) - https://sketch.com -->
    <title>plus</title>
    <desc>Created with Sketch.</desc>
    <g id="Symbols" stroke="none" stroke-width="1" fill="none" fill-rule="evenodd">
        <g id="Add" transform="translate(-1.000000, -1.000000)" fill="#8155F4">
            <path d="M7.25,7.25 L7.25,1.76324118 C7.25,1.34902762 7.58578644,1.01324118 8,1.01324118 C8.41421356,1.01324118 8.75,1.34902762 8.75,1.76324118 L8.75,7.25 L14.2453616,7.25 C14.6595751,7.25 14.9953616,7.58578644 14.9953616,8 C14.9953616,8.41421356 14.6595751,8.75 14.2453616,8.75 L8.75,8.75 L8.75,14.2303026 C8.75,14.6445162 8.41421356,14.9803026 8,14.9803026 C7.58578644,14.9803026 7.25,14.6445162 7.25,14.2303026 L7.25,8.75 L1.75355761,8.75 C1.33934405,8.75 1.00355761,8.41421356 1.00355761,8 C1.00355761,7.58578644 1.33934405,7.25 1.75355761,7.25 L7.25,7.25 Z" id="plus"></path>
        </g>
    </g>
</svg>