<?xml version="1.0" encoding="UTF-8"?>
<svg width="20px" height="20px" viewBox="0 0 20 20" version="1.1" xmlns="http://www.w3.org/2000/svg" xmlns:xlink="http://www.w3.org/1999/xlink">
    <!-- Generator: Sketch 56 (81588) - https://sketch.com -->
    <title>reset-2fa</title>
    <desc>Created with Sketch.</desc>
    <g id="reset-2fa" stroke="none" stroke-width="1" fill="none" fill-rule="evenodd">
        <path d="M12.9736196,9.49567062 C12.7433066,8.06765219 11.5050336,6.97702751 10.0120316,6.97702751 C8.35517735,6.97702751 7.0120316,8.32017326 7.0120316,9.97702751 C7.0120316,11.6338818 8.35517735,12.9770275 10.0120316,12.9770275 C11.4744641,12.9770275 12.692492,11.9306072 12.9582112,10.5456706 L10.5,10.5456706 C10.2238576,10.5456706 10,10.321813 10,10.0456706 L10,9.99567062 C10,9.71952824 10.2238576,9.49567062 10.5,9.49567062 L12.9736196,9.49567062 Z M10,14 C7.790861,14 6,12.209139 6,10 C6,7.790861 7.790861,6 10,6 C12.209139,6 14,7.790861 14,10 C14,12.209139 12.209139,14 10,14 Z" id="Combined-Shape" fill="#31314F"></path>
        <path d="M17.0487068,2.92870713 C15.1456212,1.03989601 12.6182429,0 9.92874988,0 C6.81332817,0 3.9123812,1.42485751 2.02137863,3.80661934 L2.02137863,2.49975002 C2.02137863,2.22377762 1.79582774,1.99980002 1.51791682,1.99980002 C1.2400059,1.99980002 1.014455,2.22377762 1.014455,2.49975002 L1.014455,5.47145285 C1.014455,5.70042996 1.16952124,5.90040996 1.39406521,5.95640436 C1.4917368,5.98240176 1.5894084,5.97540246 1.6790246,5.94640536 L4.55278463,4.97350265 C4.8155917,4.88451155 4.95555408,4.60053995 4.86593788,4.33956604 C4.77632168,4.07859214 4.49035537,3.93960604 4.22855522,4.02859714 L2.72723209,4.53554645 C4.4279261,2.32776722 7.07814909,1.00189981 9.9297568,1.00189981 C14.9271188,1.00189981 18.9920694,5.03849615 18.9920694,10.0009999 C18.9920694,14.9635036 14.9271188,19.0001 9.9297568,19.0001 C6.58979113,19.0001 3.53176407,17.1862814 1.94686628,14.2635736 C1.81495929,14.0205979 1.50885451,13.929607 1.26517899,14.0615938 C1.02049655,14.1925807 0.927859572,14.4945505 1.06077349,14.7385261 C2.82188292,17.9842016 6.22125708,20 9.93076373,20 C12.6202567,20 15.147635,18.960104 17.0507207,17.0722928 C18.9527994,15.1824818 20,12.6717328 20,10.0009999 C20,7.33026697 18.9527994,4.82051795 17.0507207,2.93070693 L17.0487068,2.92870713 Z" id="Fill-2905" fill="#31314F"></path>
    </g>
</svg>