<?xml version="1.0" encoding="UTF-8"?>
<svg width="25px" height="21px" viewBox="0 0 25 21" version="1.1" xmlns="http://www.w3.org/2000/svg" xmlns:xlink="http://www.w3.org/1999/xlink">
    <!-- Generator: Sketch 56 (81588) - https://sketch.com -->
    <title>revenue</title>
    <desc>Created with Sketch.</desc>
    <g id="Symbols" stroke="none" stroke-width="1" fill="none" fill-rule="evenodd">
        <g id="web-transactions-amount-icon-enabled" transform="translate(0.000000, -2.000000)" fill="#31314F" fill-rule="nonzero">
            <path d="M23.4595215,2 C24.3089844,2 25,2.69101562 25,3.54042969 L25,18.4141113 C25,19.2635254 24.3089355,19.954541 23.4595215,19.954541 L16.0461426,19.954541 L16.3460449,21.989356 L17.5883789,21.989356 C17.7906738,21.989356 18.0075274,22.2778099 18.0075274,22.5483779 C18.0075274,22.8189459 17.7906738,22.9986952 17.5883789,22.9986952 L7.41162109,22.9986952 C7.20932617,22.9986952 7.00353374,22.744201 7.00353374,22.490743 C7.00353374,22.237285 7.20932617,21.989356 7.41162109,21.989356 L8.65400391,21.989356 L8.95385742,19.954541 L1.54047852,19.954541 C0.691015625,19.954541 0,19.2635254 0,18.4141113 L0,3.54042969 C0,2.69101562 0.691015625,2 1.54047852,2 L23.4595215,2 Z M10.6664688,9.15777468 C12.7649365,9.15777468 14.3329375,8.32421032 14.3329375,7.57886979 C14.3329375,6.83359946 12.7649016,6 10.6664688,6 C8.56803591,6 7.00003492,6.83359946 7.00003492,7.57886979 C7.00003492,8.32421032 8.56800099,9.15777468 10.6664688,9.15777468 Z M10.6664688,15.4736048 C10.9727558,15.4736048 11.2675527,15.4557074 11.5479607,15.4231059 C11.3115924,15.1178669 11.1161205,14.7791491 10.9696824,14.415375 C10.8690652,14.418779 10.7680988,14.4211302 10.6664338,14.4211302 C9.46737426,14.4211302 8.33184217,14.1823924 7.4691046,13.7489235 C7.2992323,13.6635773 7.14291066,13.5718793 7.00003492,13.474812 L7.00003492,13.894735 C7.00003492,14.6400053 8.56800099,15.4736048 10.6664688,15.4736048 Z M10.6664688,13.3683398 C10.6772255,13.3683398 10.6878076,13.3681643 10.6985294,13.3681292 C10.6770509,13.195612 10.6658401,13.0199012 10.6658401,12.8416287 C10.6658401,12.6634264 10.6770159,12.487821 10.6985294,12.3154441 C10.6878076,12.3154441 10.6771906,12.3158301 10.6664688,12.3158301 C9.46740918,12.3158301 8.33191202,12.0770923 7.46913953,11.6436234 C7.2992323,11.5582772 7.14287574,11.4665792 7,11.369547 L7,11.7894349 C7,12.5347403 8.56800099,13.3683398 10.6664688,13.3683398 Z M10.6664688,11.2630046 C10.7704038,11.2630046 10.8729418,11.260899 10.9741877,11.2568984 C11.1367957,10.8560309 11.3590197,10.4857645 11.6299632,10.1573992 C11.3162722,10.1921413 10.9938851,10.2105651 10.6664688,10.2105651 C9.46740918,10.2105651 8.33191202,9.97182733 7.46913953,9.53835842 C7.2992323,9.45297712 7.14287574,9.36131416 7,9.26424689 L7,9.68416989 C7,10.4294753 8.56800099,11.2630046 10.6664688,11.2630046 Z M12.238067,11.0969094 C12.0114076,11.4393119 11.8494631,11.8284583 11.7698005,12.2466267 C11.7330252,12.4393926 11.7136072,12.6382647 11.7136072,12.8416287 C11.7136072,12.994529 11.7247131,13.1448675 11.7457027,13.2920125 C11.7972861,13.6535056 11.9099871,13.9953116 12.0729444,14.3066919 C12.2439343,14.6334429 12.4701396,14.9266451 12.7391623,15.1735244 C13.2982322,15.6866194 14.0417728,16 14.8568036,16 C16.5899621,16 18,14.5831547 18,12.8416287 C18,11.1000677 16.5899621,9.68325747 14.8568036,9.68325747 C14.6776763,9.68325747 14.5020415,9.69862821 14.3309818,9.72768523 C13.4596877,9.87574266 12.7092321,10.3852581 12.238067,11.0969094 Z" id="revenue"></path>
        </g>
    </g>
</svg>