<?xml version="1.0" encoding="UTF-8"?>
<svg width="18px" height="18px" viewBox="0 0 18 18" version="1.1" xmlns="http://www.w3.org/2000/svg" xmlns:xlink="http://www.w3.org/1999/xlink">
    <!-- Generator: Sketch 56 (81588) - https://sketch.com -->
    <title>spinner</title>
    <desc>Created with Sketch.</desc>
    <g id="Backend-admin-" stroke="none" stroke-width="1" fill="none" fill-rule="evenodd">
        <g id="Login-popup---error" transform="translate(-546.000000, -530.000000)" fill="#FFFFFF" fill-rule="nonzero">
            <g id="login-popup" transform="translate(372.000000, 227.000000)">
                <g id="button-blue" transform="translate(48.000000, 287.000000)">
                    <g id="spinner+text" transform="translate(126.000000, 16.000000)">
                        <g id="spinner">
                            <path d="M18,9.29924732 C17.9767783,8.04561773 17.7132115,6.79678673 17.2278772,5.65472418 C16.7437039,4.51146198 16.0400852,3.47496824 15.1773975,2.61962097 C14.3147099,1.76427371 13.2917922,1.08647398 12.1841153,0.639006192 C11.0775994,0.190338761 9.88748519,-0.0231981441 8.71130406,0.00199441221 C7.53512294,0.0259873229 6.36474725,0.289909341 5.29422505,0.776965429 C4.22254175,1.26282187 3.25303412,1.9670138 2.450723,2.83075859 C1.64841189,3.69450337 1.0144584,4.71900066 0.596467079,5.82627349 C0.177314675,6.93354632 -0.0223922881,8.12239505 0.00199053877,9.29924732 C0.0252122786,10.4760996 0.273684895,11.6445543 0.729992083,12.7146382 C1.18513818,13.784722 1.84579668,14.7540356 2.65507432,15.5553988 C3.46435195,16.356762 4.4234098,16.9889752 5.46026049,17.4064519 C6.49595008,17.8239285 7.60943251,18.0230697 8.71014298,17.9978771 C9.81201453,17.9738842 10.9045974,17.7255576 11.9042933,17.2684926 C12.9051503,16.813827 13.8107981,16.1540219 14.5596992,15.3442612 C15.3086004,14.5345004 15.8995936,13.5783829 16.2873967,12.5430888 C16.5242584,11.9156742 16.6844884,11.2606678 16.7692478,10.5972638 C16.7913084,10.5984634 16.8145302,10.5996631 16.8377519,10.5996631 C17.4786719,10.5996631 17.9988389,10.0622219 17.9988389,9.40001754 C17.9988389,9.36642747 17.9976778,9.33283739 17.9941946,9.30044696 L17.9988389,9.30044696 L18,9.29924732 Z M16.1550328,12.4843062 C15.7289138,13.4812117 15.1123767,14.3845447 14.3553479,15.1307243 C13.5983192,15.8769038 12.7042822,16.4647301 11.7382579,16.851016 C10.7722335,17.2385015 9.73770497,17.4220472 8.71014298,17.395655 C7.68374208,17.3716621 6.66779096,17.1377313 5.73776028,16.7118571 C4.8077296,16.2871826 3.96594153,15.6717644 3.27045042,14.918387 C2.57495931,14.1650096 2.02692625,13.273673 1.66815037,12.3115573 C1.3082134,11.3506412 1.13753362,10.3201457 1.16307753,9.29804767 C1.18862144,8.27594968 1.40458362,7.26584814 1.80283646,6.34212107 C2.19992821,5.41839401 2.77350519,4.58104142 3.47596282,3.8900456 C4.17842045,3.19904977 5.00975873,2.65561034 5.90495681,2.29931561 C6.80015488,1.94182124 7.75805164,1.77387087 8.71014298,1.80026307 C9.66223431,1.82665527 10.6015537,2.04259147 11.459597,2.4384745 C12.3188013,2.83315788 13.0967296,3.40418915 13.7388107,4.10238286 C14.3808918,4.80057656 14.8859647,5.62593269 15.2157134,6.51487003 C15.5466232,7.40260773 15.7010478,8.35272699 15.6766649,9.29804767 L15.6813093,9.29804767 C15.6789871,9.3304381 15.6766649,9.36402818 15.6766649,9.39761825 C15.6766649,10.0166354 16.1294889,10.5252851 16.7123545,10.5900659 C16.5997291,11.2426731 16.4127941,11.8796849 16.1538717,12.4831066 L16.1550328,12.4843062 Z"></path>
                        </g>
                    </g>
                </g>
            </g>
        </g>
    </g>
</svg>