<?xml version="1.0" encoding="UTF-8"?>
<svg width="20px" height="20px" viewBox="0 0 20 20" version="1.1" xmlns="http://www.w3.org/2000/svg" xmlns:xlink="http://www.w3.org/1999/xlink">
    <!-- Generator: Sketch 56 (81588) - https://sketch.com -->
    <title>trash</title>
    <desc>Created with Sketch.</desc>
    <g id="trash" stroke="none" stroke-width="1" fill="none" fill-rule="evenodd">
        <path d="M9.25,1 L10.75,1 L11.5,2 L8.5,2 L9.25,1 Z M18.5,2 L12.75,2 L11.4,0.2 C11.306,0.074 11.157,0 11,0 L9,0 C8.843,0 8.694,0.074 8.6,0.2 L7.25,2 L1.5,2 C1.224,2 1,2.224 1,2.5 C1,2.776 1.224,3 1.5,3 L18.5,3 C18.776,3 19,2.776 19,2.5 C19,2.224 18.776,2 18.5,2 L18.5,2 Z" id="Fill-692" fill="#FC6692"></path>
        <path d="M17.5802682,4.0067724 C17.3082945,3.96177175 17.0503194,4.14577437 17.0053237,4.41777824 L14.6695492,18.4319777 C14.6185541,18.734982 14.3055844,19.0009858 13.998614,19.0009858 L5.99938621,19.0009858 C5.69241584,19.0009858 5.37844615,18.734982 5.32845098,18.4319777 L2.99267647,4.41777824 C2.94768081,4.14577437 2.68970572,3.96177175 2.41773197,4.0067724 C2.14575823,4.05177304 1.96177599,4.30977671 2.00677165,4.58178058 L4.34254616,18.59598 C4.47353351,19.3829912 5.20146324,20 6.00038611,20 L13.9996139,20 C14.7975369,20 15.5254666,19.3829912 15.6574538,18.59598 L17.9932284,4.58178058 C18.038224,4.30977671 17.8542418,4.05177304 17.582268,4.0067724 L17.5802682,4.0067724 Z" id="Fill-693" fill="#FC6692"></path>
    </g>
</svg>