<?xml version="1.0" encoding="UTF-8"?>
<svg width="25px" height="21px" viewBox="0 0 25 21" version="1.1" xmlns="http://www.w3.org/2000/svg" xmlns:xlink="http://www.w3.org/1999/xlink">
    <!-- Generator: Sketch 56 (81588) - https://sketch.com -->
    <title>user-group</title>
    <desc>Created with Sketch.</desc>
    <g id="Symbols" stroke="none" stroke-width="1" fill="none" fill-rule="evenodd">
        <g id="customers-icon" transform="translate(0.000000, -4.000000)" fill="#31314F" fill-rule="nonzero">
            <path d="M14.9243827,7.67962963 C16.0679012,8.39660494 16.8697531,9.60987654 17.0157407,11.0182099 C17.4820988,11.2361111 17.9996914,11.3614198 18.5484568,11.3614198 C20.5518519,11.3614198 22.1756173,9.73765432 22.1756173,7.7345679 C22.1756173,5.73117284 20.5518519,4.10740741 18.5484568,4.10740741 C16.5641975,4.10802469 14.9546296,5.70277778 14.9243827,7.67962963 Z M12.5481481,15.1061728 C14.5515432,15.1061728 16.1753086,13.4820988 16.1753086,11.4790123 C16.1753086,9.47592593 14.5512346,7.85216049 12.5481481,7.85216049 C10.5450617,7.85216049 8.92037037,9.47623457 8.92037037,11.479321 C8.92037037,13.4824074 10.5450617,15.1061728 12.5481481,15.1061728 Z M14.0867284,15.3533951 L11.0089506,15.3533951 C8.44814815,15.3533951 6.36481481,17.437037 6.36481481,19.9978395 L6.36481481,23.7617284 L6.37438272,23.820679 L6.63364198,23.9018519 C9.07746914,24.6654321 11.2006173,24.9200617 12.9481481,24.9200617 C16.3614198,24.9200617 18.3398148,23.9469136 18.4617284,23.8848765 L18.7040123,23.7623457 L18.7299386,23.7623457 L18.7299386,19.9978395 C18.7308642,17.437037 16.6475309,15.3533951 14.0867284,15.3533951 Z M20.0876543,11.6089506 L17.033642,11.6089506 C17.0006173,12.8308642 16.4790123,13.9311728 15.6540123,14.7225309 C17.9302469,15.3993827 19.595679,17.5101852 19.595679,20.0033951 L19.595679,21.1632716 C22.6111111,21.0527778 24.3487654,20.1981481 24.4632716,20.1407407 L24.7055556,20.0179012 L24.7314815,20.0179012 L24.7314815,16.2527778 C24.7314815,13.692284 22.6481481,11.6089506 20.0876543,11.6089506 Z M6.18364198,11.362037 C6.89320988,11.362037 7.55339506,11.1549383 8.11265432,10.8021605 C8.2904321,9.64259259 8.91203704,8.62932099 9.8,7.93919753 C9.8037037,7.8712963 9.81018519,7.80401235 9.81018519,7.73549383 C9.81018519,5.73209877 8.18611111,4.10833333 6.18364198,4.10833333 C4.17993827,4.10833333 2.55648148,5.73209877 2.55648148,7.73549383 C2.55648148,9.73796296 4.17993827,11.362037 6.18364198,11.362037 Z M9.44104938,14.7225309 C8.62006173,13.9351852 8.10030864,12.8407407 8.06234568,11.6262346 C7.94907407,11.6179012 7.83703704,11.6089506 7.72160494,11.6089506 L4.6441358,11.6089506 C2.08333333,11.6089506 0,13.692284 0,16.2527778 L0,20.017284 L0.00956790123,20.0753086 L0.26882716,20.1570988 C2.22932099,20.7691358 3.97901235,21.0512346 5.49876543,21.1401235 L5.49876543,20.0033951 C5.49938272,17.5101852 7.16419753,15.4 9.44104938,14.7225309 Z" id="user-group"></path>
        </g>
    </g>
</svg>